B612Mono-Italic.ufo
<glyph name="numbersign" format="2">
  <advance width="1300"/>
  <unicode hex="0023"/>
  <outline>
    <contour>
      <point x="1038" y="950" type="line"/>
      <point x="917" y="550" type="line"/>
      <point x="1189" y="550" type="line" name="sv01"/>
      <point x="1143" y="400" type="line"/>
      <point x="874" y="400" type="line"/>
      <point x="753" y="0" type="line" name="sv02"/>
      <point x="549" y="-20" type="line" name="ab03"/>
      <point x="677" y="400" type="line"/>
      <point x="404" y="400" type="line"/>
      <point x="285" y="0" type="line" name="ab01"/>
      <point x="82" y="-20" type="line" name="ab02"/>
      <point x="207" y="400" type="line"/>
      <point x="39" y="400" type="line" name="sv03"/>
      <point x="39" y="550" type="line" name="av02"/>
      <point x="250" y="550" type="line"/>
      <point x="372" y="950" type="line"/>
      <point x="110" y="950" type="line"/>
      <point x="156" y="1100" type="line" name="av01"/>
      <point x="415" y="1100" type="line"/>
      <point x="472" y="1285" type="line"/>
      <point x="510" y="1500" type="line" name="at01"/>
      <point x="739" y="1520" type="line" name="at02"/>
      <point x="612" y="1100" type="line"/>
      <point x="885" y="1100" type="line"/>
      <point x="1004" y="1500" type="line" name="sv04"/>
      <point x="1208" y="1520" type="line" name="at03"/>
      <point x="1083" y="1100" type="line"/>
      <point x="1260" y="1100" type="line" name="sv05"/>
      <point x="1260" y="950" type="line" name="sv06"/>
    </contour>
    <contour>
      <point x="840" y="950" type="line"/>
      <point x="569" y="950" type="line"/>
      <point x="449" y="550" type="line"/>
      <point x="720" y="550" type="line"/>
    </contour>
  </outline>
</glyph>
<glyph name="quotesingle" format="2">
  <advance width="1300"/>
  <unicode hex="0027"/>
  <outline>
    <contour>
      <point x="414" y="1500" type="line" name="at01"/>
      <point x="589" y="1500" type="line" name="sv01"/>
      <point x="571" y="1400" type="line"/>
      <point x="558" y="1326"/>
      <point x="457" y="1155"/>
      <point x="372" y="1067" type="qcurve" name="sv02"/>
      <point x="328" y="1067" type="line" name="av01"/>
      <point x="343" y="1143"/>
      <point x="358" y="1209" type="qcurve"/>
      <point x="364" y="1237"/>
      <point x="375" y="1295"/>
      <point x="386" y="1346"/>
      <point x="394" y="1388"/>
      <point x="396" y="1400" type="qcurve"/>
    </contour>
  </outline>
</glyph>
<glyph name="plus" format="2">
  <advance width="1300"/>
  <unicode hex="002B"/>
  <outline>
    <contour>
      <point x="223" y="700" type="line" name="av02"/>
      <point x="596" y="700" type="line"/>
      <point x="671" y="1123" type="line" name="av01"/>
      <point x="826" y="1123" type="line" name="sv01"/>
      <point x="751" y="700" type="line"/>
      <point x="1123" y="700" type="line" name="sv02"/>
      <point x="1096" y="545" type="line"/>
      <point x="724" y="545" type="line"/>
      <point x="649" y="122" type="line" name="sv03"/>
      <point x="494" y="122" type="line" name="av03"/>
      <point x="569" y="545" type="line"/>
      <point x="196" y="545" type="line"/>
    </contour>
  </outline>
</glyph>
<glyph name="hyphen" format="2">
  <advance width="1300"/>
  <unicode hex="002D"/>
  <outline>
    <contour>
      <point x="300" y="600" type="line"/>
      <point x="800" y="600" type="line"/>
      <point x="773" y="445" type="line" name="sv01"/>
      <point x="273" y="445" type="line" name="av01"/>
    </contour>
  </outline>
</glyph>
<glyph name="zero" format="2">
  <advance width="1300"/>
  <unicode hex="0030"/>
  <guideline x="0" y="700" angle="0"/>
  <outline>
    <contour>
      <point x="509" y="-17" type="qcurve" name="ab01"/>
      <point x="424" y="-7"/>
      <point x="300" y="66"/>
      <point x="213" y="178"/>
      <point x="160" y="322"/>
      <point x="135" y="485"/>
      <point x="134" y="662"/>
      <point x="142" y="750" type="qcurve"/>
      <point x="150" y="841"/>
      <point x="200" y="1031"/>
      <point x="280" y="1207"/>
      <point x="390" y="1361"/>
      <point x="526" y="1471"/>
      <point x="687" y="1526"/>
      <point x="779" y="1517" type="qcurve" name="at01"/>
      <point x="862" y="1508"/>
      <point x="986" y="1437"/>
      <point x="1075" y="1325"/>
      <point x="1129" y="1179"/>
      <point x="1156" y="1014"/>
      <point x="1156" y="837"/>
      <point x="1146" y="750" type="qcurve"/>
      <point x="1135" y="658"/>
      <point x="1082" y="468"/>
      <point x="999" y="290"/>
      <point x="888" y="136"/>
      <point x="754" y="26"/>
      <point x="597" y="-28"/>
    </contour>
    <contour>
      <point x="348" y="793" type="qcurve"/>
      <point x="340" y="735"/>
      <point x="326" y="600"/>
      <point x="325" y="463"/>
      <point x="343" y="335"/>
      <point x="393" y="232"/>
      <point x="479" y="165"/>
      <point x="547" y="158" type="qcurve" name="av02"/>
      <point x="605" y="152"/>
      <point x="706" y="194"/>
      <point x="790" y="274"/>
      <point x="857" y="385"/>
      <point x="905" y="511"/>
      <point x="934" y="644"/>
      <point x="939" y="707" type="qcurve"/>
      <point x="943" y="765"/>
      <point x="954" y="901"/>
      <point x="954" y="1038"/>
      <point x="937" y="1166"/>
      <point x="890" y="1268"/>
      <point x="806" y="1334"/>
      <point x="740" y="1341" type="qcurve" name="av01"/>
      <point x="679" y="1347"/>
      <point x="579" y="1306"/>
      <point x="498" y="1226"/>
      <point x="434" y="1115"/>
      <point x="388" y="989"/>
      <point x="357" y="856"/>
    </contour>
  </outline>
</glyph>
<glyph name="one" format="2">
  <advance width="1300"/>
  <unicode hex="0031"/>
  <outline>
    <contour>
      <point x="268" y="0" type="line"/>
      <point x="296" y="160" type="line"/>
      <point x="541" y="160" type="line"/>
      <point x="711" y="1126" type="line"/>
      <point x="809" y="1353" type="line"/>
      <point x="640" y="1167" type="line"/>
      <point x="395" y="979" type="line"/>
      <point x="308" y="1100" type="line"/>
      <point x="841" y="1520" type="line"/>
      <point x="977" y="1500" type="line"/>
      <point x="741" y="160" type="line"/>
      <point x="986" y="160" type="line"/>
      <point x="958" y="0" type="line"/>
    </contour>
  </outline>
</glyph>
<glyph name="two" format="2">
  <advance width="1300"/>
  <unicode hex="0032"/>
  <outline>
    <contour>
      <point x="71" y="0" type="line" name="ab01"/>
      <point x="100" y="168" type="line"/>
      <point x="169" y="266"/>
      <point x="312" y="428"/>
      <point x="456" y="566"/>
      <point x="598" y="685"/>
      <point x="665" y="739" type="qcurve"/>
      <point x="725" y="787"/>
      <point x="833" y="880"/>
      <point x="915" y="973"/>
      <point x="963" y="1070"/>
      <point x="963" y="1123" type="qcurve"/>
      <point x="963" y="1177"/>
      <point x="935" y="1263"/>
      <point x="872" y="1321"/>
      <point x="772" y="1352"/>
      <point x="699" y="1352" type="qcurve"/>
      <point x="651" y="1352"/>
      <point x="570" y="1319"/>
      <point x="502" y="1265"/>
      <point x="447" y="1196"/>
      <point x="426" y="1160" type="qcurve"/>
      <point x="296" y="1220" type="line"/>
      <point x="362" y="1362"/>
      <point x="598" y="1517"/>
      <point x="752" y="1517" type="qcurve" name="at01"/>
      <point x="762" y="1517"/>
      <point x="781" y="1517"/>
      <point x="791" y="1516" type="qcurve"/>
      <point x="882" y="1510"/>
      <point x="1015" y="1440"/>
      <point x="1102" y="1332"/>
      <point x="1144" y="1198"/>
      <point x="1144" y="1128" type="qcurve"/>
      <point x="1144" y="1122"/>
      <point x="1143" y="1110"/>
      <point x="1143" y="1104" type="qcurve"/>
      <point x="1139" y="1025"/>
      <point x="1064" y="888"/>
      <point x="956" y="766"/>
      <point x="829" y="658"/>
      <point x="772" y="607" type="qcurve"/>
      <point x="700" y="542"/>
      <point x="571" y="428"/>
      <point x="460" y="320"/>
      <point x="368" y="215"/>
      <point x="333" y="160" type="qcurve"/>
      <point x="1003" y="160" type="line"/>
      <point x="975" y="0" type="line"/>
    </contour>
  </outline>
</glyph>
<glyph name="four" format="2">
  <advance width="1300"/>
  <unicode hex="0034"/>
  <outline>
    <contour>
      <point x="1107" y="300" type="line"/>
      <point x="927" y="300" type="line"/>
      <point x="875" y="0" type="line"/>
      <point x="675" y="0" type="line"/>
      <point x="727" y="300" type="line"/>
      <point x="132" y="300" type="line"/>
      <point x="163" y="471" type="line"/>
      <point x="832" y="1520" type="line"/>
      <point x="1017" y="1500" type="line"/>
      <point x="443" y="600" type="line"/>
      <point x="326" y="460" type="line"/>
      <point x="756" y="460" type="line"/>
      <point x="827" y="867" type="line"/>
      <point x="1024" y="850" type="line"/>
      <point x="956" y="460" type="line"/>
      <point x="1151" y="460" type="line"/>
    </contour>
  </outline>
</glyph>
<glyph name="five" format="2">
  <advance width="1300"/>
  <unicode hex="0035"/>
  <outline>
    <contour>
      <point x="492" y="982" type="line"/>
      <point x="500" y="986"/>
      <point x="536" y="1004"/>
      <point x="584" y="1022"/>
      <point x="639" y="1035"/>
      <point x="666" y="1035" type="qcurve"/>
      <point x="769" y="1035"/>
      <point x="918" y="977"/>
      <point x="1014" y="875"/>
      <point x="1060" y="736"/>
      <point x="1060" y="655" type="qcurve"/>
      <point x="1060" y="539"/>
      <point x="985" y="353"/>
      <point x="854" y="207"/>
      <point x="675" y="101"/>
      <point x="466" y="33"/>
      <point x="237" y="0"/>
      <point x="121" y="0" type="qcurve"/>
      <point x="149" y="160" type="line"/>
      <point x="245" y="160"/>
      <point x="425" y="191"/>
      <point x="583" y="247"/>
      <point x="715" y="327"/>
      <point x="809" y="429"/>
      <point x="861" y="550"/>
      <point x="861" y="619" type="qcurve"/>
      <point x="861" y="668"/>
      <point x="827" y="757"/>
      <point x="763" y="825"/>
      <point x="673" y="866"/>
      <point x="618" y="866" type="qcurve"/>
      <point x="536" y="866"/>
      <point x="423" y="832"/>
      <point x="376" y="800" type="qcurve"/>
      <point x="262" y="800" type="line"/>
      <point x="385" y="1500" type="line"/>
      <point x="1128" y="1500" type="line"/>
      <point x="1100" y="1340" type="line"/>
      <point x="555" y="1340" type="line"/>
    </contour>
  </outline>
</glyph>
<glyph name="seven" format="2">
  <advance width="1300"/>
  <unicode hex="0037"/>
  <outline>
    <contour>
      <point x="264" y="1500" type="line"/>
      <point x="1157" y="1500" type="line"/>
      <point x="1134" y="1370" type="line"/>
      <point x="1126" y="1328"/>
      <point x="1039" y="1203"/>
      <point x="911" y="1046"/>
      <point x="759" y="861"/>
      <point x="616" y="657"/>
      <point x="499" y="440"/>
      <point x="469" y="329" type="qcurve"/>
      <point x="458" y="288"/>
      <point x="437" y="200"/>
      <point x="419" y="115"/>
      <point x="404" y="34"/>
      <point x="398" y="0" type="qcurve"/>
      <point x="200" y="0" type="line"/>
      <point x="205" y="30"/>
      <point x="225" y="130"/>
      <point x="250" y="242"/>
      <point x="278" y="352"/>
      <point x="291" y="392" type="qcurve"/>
      <point x="326" y="501"/>
      <point x="438" y="710"/>
      <point x="569" y="901"/>
      <point x="704" y="1069"/>
      <point x="820" y="1207"/>
      <point x="903" y="1310"/>
      <point x="915" y="1340" type="qcurve"/>
      <point x="236" y="1340" type="line"/>
    </contour>
  </outline>
</glyph>
<glyph name="eight" format="2">
  <advance width="1300"/>
  <unicode hex="0038"/>
  <outline>
    <contour>
      <point x="798" y="1517" type="line"/>
      <point x="879" y="1514"/>
      <point x="1010" y="1469"/>
      <point x="1101" y="1389"/>
      <point x="1150" y="1273"/>
      <point x="1150" y="1199" type="qcurve" name="ah04"/>
      <point x="1150" y="1127"/>
      <point x="1107" y="1020"/>
      <point x="1035" y="938"/>
      <point x="939" y="874"/>
      <point x="886" y="846" type="qcurve"/>
      <point x="939" y="823"/>
      <point x="1024" y="736"/>
      <point x="1084" y="629"/>
      <point x="1117" y="511"/>
      <point x="1117" y="458" type="qcurve" name="ah02"/>
      <point x="1117" y="328"/>
      <point x="1030" y="147"/>
      <point x="883" y="34"/>
      <point x="690" y="-17"/>
      <point x="583" y="-17" type="qcurve" name="ab01"/>
      <point x="489" y="-17"/>
      <point x="324" y="28"/>
      <point x="201" y="123"/>
      <point x="130" y="268"/>
      <point x="130" y="368" type="qcurve"/>
      <point x="130" y="457" name="ah01"/>
      <point x="186" y="606"/>
      <point x="285" y="726"/>
      <point x="420" y="817"/>
      <point x="498" y="850" type="qcurve"/>
      <point x="424" y="903"/>
      <point x="334" y="1049"/>
      <point x="334" y="1132" type="qcurve"/>
      <point x="334" y="1201" name="ah03"/>
      <point x="370" y="1311"/>
      <point x="433" y="1397"/>
      <point x="518" y="1458"/>
      <point x="616" y="1498"/>
      <point x="723" y="1517"/>
      <point x="776" y="1517" type="qcurve" name="at01"/>
    </contour>
    <contour>
      <point x="654" y="760" type="qcurve"/>
      <point x="586" y="733"/>
      <point x="465" y="669"/>
      <point x="372" y="587"/>
      <point x="318" y="482"/>
      <point x="318" y="414" type="qcurve"/>
      <point x="318" y="345"/>
      <point x="362" y="244"/>
      <point x="439" y="177"/>
      <point x="543" y="145"/>
      <point x="602" y="145" type="qcurve"/>
      <point x="661" y="145"/>
      <point x="777" y="184"/>
      <point x="870" y="255"/>
      <point x="927" y="354"/>
      <point x="927" y="415" type="qcurve"/>
      <point x="927" y="485"/>
      <point x="883" y="592"/>
      <point x="808" y="673"/>
      <point x="709" y="734"/>
    </contour>
    <contour>
      <point x="723" y="923" type="qcurve"/>
      <point x="773" y="944"/>
      <point x="862" y="992"/>
      <point x="928" y="1050"/>
      <point x="967" y="1121"/>
      <point x="967" y="1163" type="qcurve"/>
      <point x="967" y="1218"/>
      <point x="930" y="1294"/>
      <point x="871" y="1342"/>
      <point x="799" y="1363"/>
      <point x="763" y="1363" type="qcurve"/>
      <point x="720" y="1363"/>
      <point x="634" y="1330"/>
      <point x="566" y="1275"/>
      <point x="523" y="1204"/>
      <point x="523" y="1167" type="qcurve"/>
      <point x="523" y="1120"/>
      <point x="552" y="1049"/>
      <point x="605" y="992"/>
      <point x="679" y="945"/>
    </contour>
  </outline>
</glyph>
<glyph name="nine" format="2">
  <advance width="1300"/>
  <unicode hex="0039"/>
  <outline>
    <contour>
      <point x="814" y="663" type="line"/>
      <point x="782" y="641"/>
      <point x="721" y="607"/>
      <point x="660" y="585"/>
      <point x="596" y="573"/>
      <point x="560" y="573" type="qcurve" name="av01"/>
      <point x="472" y="573"/>
      <point x="328" y="631"/>
      <point x="226" y="742"/>
      <point x="170" y="904"/>
      <point x="170" y="1008" type="qcurve" name="ah01"/>
      <point x="170" y="1120"/>
      <point x="252" y="1307"/>
      <point x="392" y="1442"/>
      <point x="577" y="1517"/>
      <point x="680" y="1517" type="qcurve" name="at01"/>
      <point x="770" y="1517"/>
      <point x="906" y="1476"/>
      <point x="1005" y="1404"/>
      <point x="1071" y="1307"/>
      <point x="1110" y="1195"/>
      <point x="1126" y="1072"/>
      <point x="1126" y="1011" type="qcurve" name="ah02"/>
      <point x="1126" y="869"/>
      <point x="1063" y="607"/>
      <point x="947" y="378"/>
      <point x="781" y="190"/>
      <point x="575" y="57"/>
      <point x="334" y="-17"/>
      <point x="200" y="-17" type="qcurve" name="ab01"/>
      <point x="200" y="150" type="line"/>
      <point x="325" y="153"/>
      <point x="562" y="244"/>
      <point x="757" y="408"/>
      <point x="892" y="638"/>
      <point x="915" y="780" type="qcurve"/>
    </contour>
    <contour>
      <point x="934" y="953" type="qcurve"/>
      <point x="935" y="966"/>
      <point x="935" y="991"/>
      <point x="935" y="1004" type="qcurve" name="ah04"/>
      <point x="935" y="1076"/>
      <point x="910" y="1202"/>
      <point x="851" y="1295"/>
      <point x="753" y="1349"/>
      <point x="679" y="1349" type="qcurve"/>
      <point x="604" y="1349"/>
      <point x="486" y="1292"/>
      <point x="406" y="1194"/>
      <point x="364" y="1063"/>
      <point x="364" y="990" type="qcurve" name="ah03"/>
      <point x="364" y="934"/>
      <point x="395" y="842"/>
      <point x="457" y="777"/>
      <point x="552" y="741"/>
      <point x="616" y="741" type="qcurve"/>
      <point x="665" y="741"/>
      <point x="760" y="773"/>
      <point x="844" y="829"/>
      <point x="912" y="907"/>
    </contour>
  </outline>
</glyph>
<glyph name="less" format="2">
  <advance width="1300"/>
  <unicode hex="003C"/>
  <guideline x="0" y="1298" angle="0"/>
  <outline>
    <contour>
      <point x="1107" y="1187" type="line" name="av01"/>
      <point x="1076" y="1012" type="line" name="sv01"/>
      <point x="324" y="646" type="line"/>
      <point x="243" y="626" type="line" name="iv01"/>
      <point x="316" y="606" type="line"/>
      <point x="940" y="242" type="line" name="sv02"/>
      <point x="909" y="67" type="line" name="av02"/>
      <point x="92" y="524" type="line"/>
      <point x="129" y="733" type="line"/>
    </contour>
  </outline>
</glyph>
<glyph name="equal" format="2">
  <advance width="1300"/>
  <unicode hex="003D"/>
  <outline>
    <contour>
      <point x="341" y="800" type="line" name="av01"/>
      <point x="1041" y="800" type="line" name="sv01"/>
      <point x="1013" y="645" type="line" name="sv02"/>
      <point x="313" y="645" type="line"/>
    </contour>
    <contour>
      <point x="270" y="400" type="line" name="av02"/>
      <point x="970" y="400" type="line" name="sv03"/>
      <point x="943" y="245" type="line" name="sv04"/>
      <point x="243" y="245" type="line"/>
    </contour>
  </outline>
</glyph>
<glyph name="greater" format="2">
  <advance width="1300"/>
  <unicode hex="003E"/>
  <outline>
    <contour>
      <point x="1127" y="733" type="line"/>
      <point x="1090" y="524" type="line"/>
      <point x="111" y="67" type="line" name="av02"/>
      <point x="142" y="242" type="line" name="sv01"/>
      <point x="894" y="606" type="line"/>
      <point x="975" y="626" type="line" name="iv01"/>
      <point x="900" y="646" type="line"/>
      <point x="278" y="1012" type="line" name="sv02"/>
      <point x="309" y="1187" type="line" name="av01"/>
    </contour>
  </outline>
</glyph>
<glyph name="question" format="2">
  <advance width="1300"/>
  <unicode hex="003F"/>
  <outline>
    <contour>
      <point x="727" y="1517" type="qcurve" name="at01"/>
      <point x="815" y="1517"/>
      <point x="956" y="1469"/>
      <point x="1054" y="1381"/>
      <point x="1106" y="1254"/>
      <point x="1106" y="1176" type="qcurve"/>
      <point x="1106" y="1105"/>
      <point x="1065" y="998"/>
      <point x="996" y="912"/>
      <point x="908" y="842"/>
      <point x="814" y="775"/>
      <point x="721" y="705"/>
      <point x="645" y="622"/>
      <point x="592" y="518"/>
      <point x="584" y="450" type="qcurve"/>
      <point x="370" y="429" type="line"/>
      <point x="379" y="520"/>
      <point x="435" y="656"/>
      <point x="512" y="761"/>
      <point x="605" y="841"/>
      <point x="699" y="908"/>
      <point x="788" y="969"/>
      <point x="856" y="1037"/>
      <point x="897" y="1119"/>
      <point x="897" y="1173" type="qcurve"/>
      <point x="897" y="1219"/>
      <point x="864" y="1287"/>
      <point x="804" y="1330"/>
      <point x="722" y="1351"/>
      <point x="673" y="1351" type="qcurve"/>
      <point x="624" y="1351"/>
      <point x="541" y="1335"/>
      <point x="465" y="1298"/>
      <point x="390" y="1236"/>
      <point x="349" y="1190" type="qcurve"/>
      <point x="236" y="1300" type="line"/>
      <point x="285" y="1363"/>
      <point x="401" y="1446"/>
      <point x="527" y="1496"/>
      <point x="660" y="1517"/>
    </contour>
    <contour>
      <point x="297" y="105" type="qcurve"/>
      <point x="297" y="128"/>
      <point x="318" y="171"/>
      <point x="352" y="205"/>
      <point x="398" y="225"/>
      <point x="422" y="225" type="qcurve" name="av01"/>
      <point x="476" y="225"/>
      <point x="535" y="158"/>
      <point x="535" y="105" type="qcurve"/>
      <point x="535" y="82"/>
      <point x="517" y="39"/>
      <point x="485" y="4"/>
      <point x="441" y="-17"/>
      <point x="416" y="-17" type="qcurve" name="ab01"/>
      <point x="360" y="-17"/>
      <point x="297" y="51"/>
    </contour>
  </outline>
</glyph>
<glyph name="A" format="2">
  <advance width="1300"/>
  <unicode hex="0041"/>
  <outline>
    <contour>
      <point x="18" y="0" type="line" name="ab01"/>
      <point x="719" y="1300" type="line"/>
      <point x="789" y="1500" type="line"/>
      <point x="971" y="1520" type="line" name="at01"/>
      <point x="1250" y="0" type="line" name="sv01"/>
      <point x="1050" y="0" type="line"/>
      <point x="982" y="450" type="line" name="sv02"/>
      <point x="447" y="450" type="line" name="av01"/>
      <point x="201" y="0" type="line"/>
    </contour>
    <contour>
      <point x="877" y="1400" type="line"/>
      <point x="776" y="1080" type="line"/>
      <point x="522" y="600" type="line"/>
      <point x="959" y="600" type="line"/>
      <point x="866" y="1080" type="line"/>
    </contour>
  </outline>
</glyph>
<glyph name="C" format="2">
  <advance width="1300"/>
  <unicode hex="0043"/>
  <guideline x="0" y="153" angle="0"/>
  <outline>
    <contour>
      <point x="998" y="95" type="line"/>
      <point x="978" y="81"/>
      <point x="906" y="43"/>
      <point x="802" y="8"/>
      <point x="664" y="-17"/>
      <point x="577" y="-17" type="qcurve" name="ab01"/>
      <point x="458" y="-17"/>
      <point x="281" y="78"/>
      <point x="164" y="247"/>
      <point x="106" y="479"/>
      <point x="106" y="616" type="qcurve"/>
      <point x="106" y="738"/>
      <point x="149" y="967"/>
      <point x="233" y="1167"/>
      <point x="357" y="1333"/>
      <point x="519" y="1451"/>
      <point x="718" y="1517"/>
      <point x="835" y="1517" type="qcurve" name="at01"/>
      <point x="1078" y="1517"/>
      <point x="1210" y="1385" type="qcurve"/>
      <point x="1112" y="1263" type="line"/>
      <point x="1050" y="1306"/>
      <point x="917" y="1341"/>
      <point x="829" y="1341" type="qcurve"/>
      <point x="735" y="1341"/>
      <point x="585" y="1283"/>
      <point x="469" y="1180"/>
      <point x="385" y="1039"/>
      <point x="332" y="876"/>
      <point x="307" y="696"/>
      <point x="307" y="605" type="qcurve"/>
      <point x="307" y="518"/>
      <point x="332" y="355"/>
      <point x="402" y="229"/>
      <point x="530" y="153"/>
      <point x="632" y="153" type="qcurve"/>
      <point x="677" y="153"/>
      <point x="759" y="165"/>
      <point x="837" y="189"/>
      <point x="915" y="224"/>
      <point x="956" y="247" type="qcurve"/>
    </contour>
  </outline>
</glyph>
<glyph name="D" format="2">
  <advance width="1300"/>
  <unicode hex="0044"/>
  <guideline x="0" y="1370" angle="0"/>
  <guideline x="0" y="130" angle="0"/>
  <guideline x="278" y="0" angle="90"/>
  <outline>
    <contour>
      <point x="293" y="1500" type="line"/>
      <point x="324" y="1503"/>
      <point x="406" y="1507"/>
      <point x="493" y="1510"/>
      <point x="577" y="1511"/>
      <point x="610" y="1511" type="qcurve" name="at01"/>
      <point x="755" y="1511"/>
      <point x="984" y="1447"/>
      <point x="1143" y="1308"/>
      <point x="1227" y="1089"/>
      <point x="1227" y="933" type="qcurve"/>
      <point x="1227" y="772"/>
      <point x="1160" y="509"/>
      <point x="1039" y="302"/>
      <point x="872" y="149"/>
      <point x="674" y="49"/>
      <point x="451" y="0"/>
      <point x="335" y="0" type="qcurve" name="sv01"/>
      <point x="59" y="0" type="line" name="ab01"/>
      <point x="286" y="1290" type="line"/>
    </contour>
    <contour>
      <point x="461" y="1150" type="line"/>
      <point x="449" y="1083"/>
      <point x="426" y="953" type="qcurve"/>
      <point x="416" y="897"/>
      <point x="390" y="747"/>
      <point x="356" y="552"/>
      <point x="313" y="309"/>
      <point x="287" y="160" type="qcurve"/>
      <point x="307" y="160" type="line"/>
      <point x="450" y="160"/>
      <point x="670" y="226"/>
      <point x="833" y="340"/>
      <point x="943" y="493"/>
      <point x="1009" y="667"/>
      <point x="1038" y="855"/>
      <point x="1038" y="946" type="qcurve"/>
      <point x="1038" y="1036"/>
      <point x="993" y="1188"/>
      <point x="886" y="1297"/>
      <point x="710" y="1358"/>
      <point x="579" y="1358" type="qcurve"/>
      <point x="563" y="1358"/>
      <point x="527" y="1356"/>
      <point x="510" y="1354" type="qcurve"/>
      <point x="491" y="1352"/>
      <point x="472" y="1350" type="qcurve"/>
    </contour>
  </outline>
</glyph>
<glyph name="E" format="2">
  <advance width="1300"/>
  <unicode hex="0045"/>
  <outline>
    <contour>
      <point x="1040" y="160" type="line"/>
      <point x="992" y="0" type="line" name="sv01"/>
      <point x="72" y="0" type="line" name="ab01"/>
      <point x="123" y="200" type="line"/>
      <point x="315" y="1290" type="line"/>
      <point x="322" y="1500" type="line" name="at01"/>
      <point x="1242" y="1500" type="line" name="sv02"/>
      <point x="1214" y="1340" type="line"/>
      <point x="489" y="1340" type="line"/>
      <point x="475" y="1150" type="line"/>
      <point x="428" y="885" type="line"/>
      <point x="1063" y="885" type="line"/>
      <point x="1038" y="740" type="line" name="sv03"/>
      <point x="403" y="740" type="line" name="av01"/>
      <point x="332" y="340" type="line"/>
      <point x="290" y="160" type="line"/>
    </contour>
  </outline>
</glyph>
<glyph name="F" format="2">
  <advance width="1300"/>
  <unicode hex="0046"/>
  <outline>
    <contour>
      <point x="300" y="0" type="line" name="sv01"/>
      <point x="100" y="0" type="line" name="ab01"/>
      <point x="327" y="1290" type="line"/>
      <point x="334" y="1500" type="line" name="at01"/>
      <point x="1209" y="1500" type="line" name="sv02"/>
      <point x="1161" y="1340" type="line"/>
      <point x="516" y="1340" type="line"/>
      <point x="502" y="1150" type="line"/>
      <point x="456" y="885" type="line"/>
      <point x="996" y="885" type="line"/>
      <point x="970" y="740" type="line" name="sv03"/>
      <point x="430" y="740" type="line" name="av01"/>
    </contour>
  </outline>
</glyph>
<glyph name="G" format="2">
  <advance width="1300"/>
  <unicode hex="0047"/>
  <outline>
    <contour>
      <point x="1092" y="197" type="line"/>
      <point x="1043" y="152"/>
      <point x="927" y="73"/>
      <point x="795" y="16"/>
      <point x="645" y="-17"/>
      <point x="562" y="-17" type="qcurve" name="ab01"/>
      <point x="418" y="-17"/>
      <point x="225" y="108"/>
      <point x="122" y="322"/>
      <point x="102" y="608"/>
      <point x="131" y="770" type="qcurve"/>
      <point x="149" y="871"/>
      <point x="209" y="1060"/>
      <point x="297" y="1226"/>
      <point x="414" y="1363"/>
      <point x="563" y="1462"/>
      <point x="746" y="1517"/>
      <point x="856" y="1517" type="qcurve" name="at01"/>
      <point x="971" y="1517"/>
      <point x="1163" y="1444"/>
      <point x="1223" y="1375" type="qcurve"/>
      <point x="1114" y="1268" type="line"/>
      <point x="1071" y="1300"/>
      <point x="936" y="1348"/>
      <point x="842" y="1348" type="qcurve"/>
      <point x="720" y="1348"/>
      <point x="549" y="1256"/>
      <point x="433" y="1099"/>
      <point x="363" y="890"/>
      <point x="342" y="773" type="qcurve"/>
      <point x="330" y="704"/>
      <point x="318" y="559"/>
      <point x="329" y="421"/>
      <point x="364" y="299"/>
      <point x="434" y="207"/>
      <point x="541" y="153"/>
      <point x="618" y="153" type="qcurve"/>
      <point x="663" y="153"/>
      <point x="755" y="173"/>
      <point x="838" y="205"/>
      <point x="907" y="244"/>
      <point x="928" y="263" type="qcurve"/>
      <point x="989" y="612" type="line"/>
      <point x="679" y="632" type="line"/>
      <point x="702" y="762" type="line" name="av01"/>
      <point x="1192" y="762" type="line" name="sv01"/>
    </contour>
  </outline>
</glyph>
<glyph name="H" format="2">
  <advance width="1300"/>
  <unicode hex="0048"/>
  <outline>
    <contour>
      <point x="787" y="0" type="line"/>
      <point x="914" y="725" type="line" name="sv01"/>
      <point x="372" y="725" type="line" name="av01"/>
      <point x="245" y="0" type="line"/>
      <point x="50" y="0" type="line" name="ab01"/>
      <point x="277" y="1290" type="line"/>
      <point x="285" y="1500" type="line" name="at01"/>
      <point x="513" y="1520" type="line" name="at02"/>
      <point x="401" y="885" type="line"/>
      <point x="943" y="885" type="line"/>
      <point x="1051" y="1500" type="line" name="sv02"/>
      <point x="1250" y="1520" type="line" name="at03"/>
      <point x="982" y="0" type="line" name="sv03"/>
    </contour>
  </outline>
</glyph>
<glyph name="I" format="2">
  <advance width="1300"/>
  <unicode hex="0049"/>
  <outline>
    <contour>
      <point x="332" y="1500" type="line" name="at01"/>
      <point x="1232" y="1500" type="line" name="sv01"/>
      <point x="1204" y="1340" type="line"/>
      <point x="846" y="1340" type="line"/>
      <point x="637" y="160" type="line"/>
      <point x="1015" y="160" type="line"/>
      <point x="967" y="0" type="line" name="sv02"/>
      <point x="67" y="0" type="line" name="ab01"/>
      <point x="95" y="160" type="line"/>
      <point x="451" y="160" type="line"/>
      <point x="660" y="1340" type="line"/>
      <point x="284" y="1340" type="line"/>
    </contour>
  </outline>
</glyph>
<glyph name="J" format="2">
  <advance width="1300"/>
  <unicode hex="004A"/>
  <outline>
    <contour>
      <point x="473" y="1325" type="line"/>
      <point x="500" y="1500" type="line" name="at01"/>
      <point x="1068" y="1500" type="line" name="sv01"/>
      <point x="872" y="415" type="line"/>
      <point x="853" y="309"/>
      <point x="784" y="147"/>
      <point x="671" y="38"/>
      <point x="510" y="-17"/>
      <point x="399" y="-17" type="qcurve" name="ab01"/>
      <point x="358" y="-17"/>
      <point x="277" y="10"/>
      <point x="205" y="50"/>
      <point x="147" y="96"/>
      <point x="130" y="115" type="qcurve"/>
      <point x="243" y="233" type="line"/>
      <point x="252" y="223"/>
      <point x="286" y="196"/>
      <point x="333" y="172"/>
      <point x="391" y="156"/>
      <point x="424" y="156" type="qcurve"/>
      <point x="493" y="156"/>
      <point x="581" y="195"/>
      <point x="636" y="273"/>
      <point x="668" y="391"/>
      <point x="682" y="470" type="qcurve"/>
      <point x="802" y="1148" type="line"/>
      <point x="875" y="1374" type="line"/>
      <point x="633" y="1325" type="line"/>
    </contour>
  </outline>
</glyph>
<glyph name="K" format="2">
  <advance width="1300"/>
  <unicode hex="004B"/>
  <guideline x="516" y="0" angle="90"/>
  <outline>
    <contour>
      <point x="50" y="0" type="line" name="ab01"/>
      <point x="277" y="1290" type="line"/>
      <point x="284" y="1500" type="line" name="at01"/>
      <point x="518" y="1520" type="line" name="at02"/>
      <point x="400" y="856" type="line"/>
      <point x="1055" y="1500" type="line"/>
      <point x="1277" y="1500" type="line" name="sv01"/>
      <point x="634" y="865" type="line"/>
      <point x="454" y="802" type="line"/>
      <point x="618" y="744" type="line"/>
      <point x="1040" y="0" type="line" name="sv02"/>
      <point x="803" y="0" type="line"/>
      <point x="381" y="746" type="line"/>
      <point x="250" y="0" type="line"/>
    </contour>
  </outline>
</glyph>
<glyph name="M" format="2">
  <advance width="1300"/>
  <unicode hex="004D"/>
  <guideline x="0" y="1287" angle="0"/>
  <outline>
    <contour>
      <point x="838" y="0" type="line"/>
      <point x="997" y="901" type="line"/>
      <point x="1154" y="1399" type="line"/>
      <point x="1149" y="1400" type="line"/>
      <point x="901" y="921" type="line"/>
      <point x="654" y="500" type="line"/>
      <point x="554" y="500" type="line"/>
      <point x="456" y="920" type="line"/>
      <point x="371" y="1400" type="line"/>
      <point x="365" y="1399" type="line"/>
      <point x="352" y="901" type="line"/>
      <point x="193" y="0" type="line"/>
      <point x="13" y="0" type="line" name="ab01"/>
      <point x="241" y="1290" type="line"/>
      <point x="250" y="1500" type="line" name="at01"/>
      <point x="468" y="1520" type="line" name="at02"/>
      <point x="600" y="950" type="line"/>
      <point x="632" y="700" type="line"/>
      <point x="750" y="950" type="line"/>
      <point x="1076" y="1500" type="line" name="sv01"/>
      <point x="1287" y="1520" type="line" name="at03"/>
      <point x="1018" y="0" type="line" name="sv02"/>
    </contour>
  </outline>
</glyph>
<glyph name="N" format="2">
  <advance width="1300"/>
  <unicode hex="004E"/>
  <outline>
    <contour>
      <point x="817" y="0" type="line"/>
      <point x="490" y="948" type="line"/>
      <point x="403" y="1361" type="line"/>
      <point x="397" y="1360" type="line"/>
      <point x="385" y="920" type="line"/>
      <point x="222" y="0" type="line"/>
      <point x="42" y="0" type="line" name="ab01"/>
      <point x="270" y="1290" type="line"/>
      <point x="277" y="1500" type="line" name="at01"/>
      <point x="482" y="1520" type="line" name="at02"/>
      <point x="808" y="557" type="line"/>
      <point x="900" y="140" type="line"/>
      <point x="906" y="141" type="line"/>
      <point x="905" y="580" type="line"/>
      <point x="1067" y="1500" type="line" name="sv01"/>
      <point x="1251" y="1520" type="line" name="at03"/>
      <point x="982" y="0" type="line" name="sv02"/>
    </contour>
  </outline>
</glyph>
<glyph name="P" format="2">
  <advance width="1300"/>
  <unicode hex="0050"/>
  <guideline x="0" y="810" angle="0"/>
  <outline>
    <contour>
      <point x="289" y="0" type="line" name="sv01"/>
      <point x="99" y="0" type="line" name="ab01"/>
      <point x="327" y="1290" type="line"/>
      <point x="327" y="1490" type="line"/>
      <point x="357" y="1495"/>
      <point x="440" y="1503"/>
      <point x="532" y="1509"/>
      <point x="624" y="1512"/>
      <point x="663" y="1512" type="qcurve" name="at01"/>
      <point x="823" y="1512"/>
      <point x="1057" y="1451"/>
      <point x="1203" y="1342"/>
      <point x="1260" y="1190"/>
      <point x="1244" y="1099" type="qcurve"/>
      <point x="1157" y="624"/>
      <point x="399" y="624" type="qcurve"/>
    </contour>
    <contour>
      <point x="491" y="1147" type="line"/>
      <point x="424" y="765" type="line"/>
      <point x="576" y="765"/>
      <point x="803" y="809"/>
      <point x="960" y="895"/>
      <point x="1051" y="1019"/>
      <point x="1066" y="1100" type="qcurve"/>
      <point x="1079" y="1167"/>
      <point x="1030" y="1268"/>
      <point x="925" y="1336"/>
      <point x="773" y="1370"/>
      <point x="683" y="1370" type="qcurve"/>
      <point x="666" y="1370"/>
      <point x="619" y="1369"/>
      <point x="570" y="1366"/>
      <point x="524" y="1362"/>
      <point x="509" y="1359" type="qcurve"/>
    </contour>
  </outline>
</glyph>
<glyph name="Q" format="2">
  <advance width="1300"/>
  <unicode hex="0051"/>
  <outline>
    <contour>
      <point x="841" y="314" type="line"/>
      <point x="901" y="393"/>
      <point x="979" y="559"/>
      <point x="1026" y="725"/>
      <point x="1045" y="886"/>
      <point x="1045" y="961" type="qcurve"/>
      <point x="1045" y="1036"/>
      <point x="1014" y="1173"/>
      <point x="944" y="1276"/>
      <point x="831" y="1337"/>
      <point x="749" y="1337" type="qcurve"/>
      <point x="665" y="1337"/>
      <point x="527" y="1258"/>
      <point x="419" y="1128"/>
      <point x="339" y="961"/>
      <point x="287" y="783"/>
      <point x="262" y="610"/>
      <point x="262" y="539" type="qcurve"/>
      <point x="262" y="456"/>
      <point x="295" y="317"/>
      <point x="367" y="217"/>
      <point x="479" y="162"/>
      <point x="558" y="162" type="qcurve"/>
      <point x="570" y="162"/>
      <point x="588" y="162"/>
      <point x="604" y="164"/>
      <point x="623" y="168"/>
      <point x="636" y="172" type="qcurve"/>
      <point x="618" y="217"/>
      <point x="592" y="284"/>
      <point x="565" y="328"/>
      <point x="529" y="350"/>
      <point x="500" y="350" type="qcurve"/>
      <point x="577" y="500" type="line"/>
      <point x="618" y="500"/>
      <point x="681" y="459"/>
      <point x="736" y="378"/>
      <point x="788" y="257"/>
      <point x="817" y="177" type="qcurve"/>
    </contour>
    <contour>
      <point x="626" y="0" type="line"/>
      <point x="591" y="-8"/>
      <point x="515" y="-17"/>
      <point x="467" y="-17" type="qcurve" name="ab01"/>
      <point x="365" y="-17"/>
      <point x="214" y="70"/>
      <point x="113" y="221"/>
      <point x="63" y="424"/>
      <point x="63" y="540" type="qcurve"/>
      <point x="63" y="657"/>
      <point x="109" y="893"/>
      <point x="197" y="1110"/>
      <point x="323" y="1298"/>
      <point x="484" y="1437"/>
      <point x="677" y="1517"/>
      <point x="787" y="1517" type="qcurve" name="at01"/>
      <point x="899" y="1517"/>
      <point x="1069" y="1432"/>
      <point x="1183" y="1281"/>
      <point x="1240" y="1074"/>
      <point x="1240" y="953" type="qcurve"/>
      <point x="1240" y="837"/>
      <point x="1191" y="599"/>
      <point x="1101" y="379"/>
      <point x="972" y="190"/>
      <point x="893" y="124" type="qcurve"/>
      <point x="885" y="116"/>
      <point x="863" y="99"/>
      <point x="854" y="92" type="qcurve"/>
      <point x="867" y="60"/>
      <point x="891" y="24"/>
      <point x="926" y="5"/>
      <point x="979" y="0"/>
      <point x="1021" y="0" type="qcurve"/>
      <point x="944" y="-145" type="line"/>
      <point x="894" y="-145"/>
      <point x="814" y="-129"/>
      <point x="746" y="-77"/>
      <point x="689" y="21"/>
      <point x="662" y="102" type="qcurve"/>
      <point x="650" y="137" type="line"/>
    </contour>
  </outline>
</glyph>
<glyph name="R" format="2">
  <advance width="1300"/>
  <unicode hex="0052"/>
  <outline>
    <contour>
      <point x="408" y="619" type="line" name="av01"/>
      <point x="300" y="0" type="line"/>
      <point x="100" y="0" type="line" name="ab01"/>
      <point x="327" y="1290" type="line"/>
      <point x="327" y="1490" type="line"/>
      <point x="361" y="1494"/>
      <point x="449" y="1504"/>
      <point x="546" y="1512"/>
      <point x="646" y="1517"/>
      <point x="693" y="1517" type="qcurve" name="at01"/>
      <point x="819" y="1517"/>
      <point x="1003" y="1461"/>
      <point x="1122" y="1361"/>
      <point x="1180" y="1222"/>
      <point x="1180" y="1139" type="qcurve"/>
      <point x="1180" y="1010"/>
      <point x="1090" y="822"/>
      <point x="945" y="697"/>
      <point x="762" y="633"/>
      <point x="668" y="629" type="qcurve"/>
      <point x="794" y="593" type="line"/>
      <point x="1133" y="0" type="line" name="sv01"/>
      <point x="910" y="0" type="line"/>
      <point x="571" y="600" type="line"/>
      <point x="563" y="614"/>
      <point x="536" y="619"/>
      <point x="528" y="619" type="qcurve" name="sv02"/>
    </contour>
    <contour>
      <point x="502" y="1147" type="line"/>
      <point x="434" y="763" type="line"/>
      <point x="582" y="763" type="line"/>
      <point x="673" y="763"/>
      <point x="826" y="810"/>
      <point x="937" y="900"/>
      <point x="998" y="1033"/>
      <point x="998" y="1119" type="qcurve"/>
      <point x="998" y="1177"/>
      <point x="945" y="1272"/>
      <point x="860" y="1339"/>
      <point x="751" y="1375"/>
      <point x="694" y="1375" type="qcurve"/>
      <point x="652" y="1375"/>
      <point x="555" y="1371"/>
      <point x="520" y="1364" type="qcurve"/>
    </contour>
  </outline>
</glyph>
<glyph name="T" format="2">
  <advance width="1300"/>
  <unicode hex="0054"/>
  <outline>
    <contour>
      <point x="394" y="0" type="line" name="ab01"/>
      <point x="630" y="1340" type="line"/>
      <point x="145" y="1340" type="line"/>
      <point x="158" y="1500" type="line" name="at01"/>
      <point x="1298" y="1500" type="line" name="sv01"/>
      <point x="1270" y="1340" type="line"/>
      <point x="830" y="1340" type="line"/>
      <point x="594" y="0" type="line" name="sv02"/>
    </contour>
  </outline>
</glyph>
<glyph name="U" format="2">
  <advance width="1300"/>
  <unicode hex="0055"/>
  <outline>
    <contour>
      <point x="1226" y="1500" type="line" name="sv01"/>
      <point x="1054" y="523" type="line"/>
      <point x="1030" y="387"/>
      <point x="930" y="184"/>
      <point x="783" y="50"/>
      <point x="593" y="-17"/>
      <point x="479" y="-17" type="qcurve" name="ab01"/>
      <point x="357" y="-17"/>
      <point x="202" y="68"/>
      <point x="121" y="223"/>
      <point x="110" y="441"/>
      <point x="133" y="573" type="qcurve"/>
      <point x="259" y="1290" type="line"/>
      <point x="266" y="1500" type="line" name="at01"/>
      <point x="490" y="1520" type="line" name="at02"/>
      <point x="320" y="554" type="line"/>
      <point x="303" y="459"/>
      <point x="314" y="310"/>
      <point x="366" y="207"/>
      <point x="456" y="153"/>
      <point x="519" y="153" type="qcurve"/>
      <point x="666" y="153"/>
      <point x="830" y="328"/>
      <point x="861" y="504" type="qcurve"/>
      <point x="1036" y="1500" type="line"/>
    </contour>
  </outline>
</glyph>
<glyph name="V" format="2">
  <advance width="1300"/>
  <unicode hex="0056"/>
  <outline>
    <contour>
      <point x="469" y="500" type="line"/>
      <point x="493" y="140" type="line"/>
      <point x="597" y="454" type="line"/>
      <point x="1111" y="1500" type="line"/>
      <point x="1300" y="1500" type="line" name="sv01"/>
      <point x="648" y="180" type="line"/>
      <point x="587" y="-20" type="line" name="ab01"/>
      <point x="355" y="0" type="line"/>
      <point x="137" y="1500" type="line" name="at01"/>
      <point x="326" y="1520" type="line" name="at02"/>
    </contour>
  </outline>
</glyph>
<glyph name="W" format="2">
  <advance width="1300"/>
  <unicode hex="0057"/>
  <outline>
    <contour>
      <point x="344" y="700" type="line"/>
      <point x="510" y="1100" type="line" name="av01"/>
      <point x="650" y="1100" type="line" name="sv01"/>
      <point x="666" y="700" type="line" name="mh01"/>
      <point x="666" y="200" type="line"/>
      <point x="670" y="200" type="line"/>
      <point x="783" y="660" type="line"/>
      <point x="1084" y="1500" type="line"/>
      <point x="1261" y="1500" type="line" name="sv02"/>
      <point x="724" y="0" type="line" name="sv03"/>
      <point x="543" y="0" type="line"/>
      <point x="527" y="450" type="line"/>
      <point x="556" y="950" type="line"/>
      <point x="552" y="950" type="line"/>
      <point x="406" y="450" type="line"/>
      <point x="228" y="0" type="line"/>
      <point x="68" y="0" type="line" name="ab01"/>
      <point x="70" y="1500" type="line" name="at01"/>
      <point x="234" y="1520" type="line" name="at02"/>
      <point x="233" y="660" type="line" name="mh02"/>
      <point x="183" y="200" type="line"/>
      <point x="187" y="200" type="line"/>
    </contour>
  </outline>
</glyph>
<glyph name="X" format="2">
  <advance width="1300"/>
  <unicode hex="0058"/>
  <outline>
    <contour>
      <point x="847" y="0" type="line"/>
      <point x="689" y="519" type="line"/>
      <point x="648" y="700" type="line"/>
      <point x="568" y="540" type="line"/>
      <point x="198" y="0" type="line"/>
      <point x="0" y="0" type="line" name="ab01"/>
      <point x="570" y="799" type="line"/>
      <point x="321" y="1500" type="line" name="at01"/>
      <point x="537" y="1520" type="line" name="at02"/>
      <point x="683" y="1056" type="line"/>
      <point x="718" y="860" type="line"/>
      <point x="777" y="1020" type="line"/>
      <point x="1107" y="1500" type="line"/>
      <point x="1300" y="1500" type="line" name="sv01"/>
      <point x="787" y="776" type="line"/>
      <point x="1067" y="0" type="line" name="sv02"/>
    </contour>
  </outline>
</glyph>
<glyph name="Y" format="2">
  <advance width="1300"/>
  <unicode hex="0059"/>
  <outline>
    <contour>
      <point x="619" y="935" type="line"/>
      <point x="1007" y="1500" type="line"/>
      <point x="1199" y="1500" type="line" name="sv01"/>
      <point x="613" y="646" type="line"/>
      <point x="500" y="0" type="line" name="sv02"/>
      <point x="300" y="0" type="line" name="ab01"/>
      <point x="413" y="645" type="line"/>
      <point x="128" y="1500" type="line" name="at01"/>
      <point x="336" y="1520" type="line" name="at02"/>
      <point x="514" y="954" type="line"/>
      <point x="549" y="705" type="line"/>
    </contour>
  </outline>
</glyph>
<glyph name="Z" format="2">
  <advance width="1300"/>
  <unicode hex="005A"/>
  <outline>
    <contour>
      <point x="1058" y="160" type="line"/>
      <point x="1050" y="0" type="line" name="sv01"/>
      <point x="21" y="0" type="line" name="ab01"/>
      <point x="9" y="50" type="line"/>
      <point x="867" y="1200" type="line"/>
      <point x="1083" y="1380" type="line"/>
      <point x="811" y="1340" type="line"/>
      <point x="326" y="1340" type="line"/>
      <point x="334" y="1500" type="line" name="at01"/>
      <point x="1280" y="1500" type="line" name="sv02"/>
      <point x="1291" y="1478" type="line"/>
      <point x="422" y="300" type="line"/>
      <point x="213" y="120" type="line"/>
      <point x="485" y="160" type="line"/>
    </contour>
  </outline>
</glyph>
<glyph name="bracketleft" format="2">
  <advance width="1300"/>
  <unicode hex="005B"/>
  <outline>
    <contour>
      <point x="454" y="1320" type="line"/>
      <point x="468" y="1520" type="line" name="at01"/>
      <point x="1034" y="1520" type="line" name="sv01"/>
      <point x="1007" y="1370" type="line"/>
      <point x="635" y="1370" type="line"/>
      <point x="620" y="1170" type="line"/>
      <point x="401" y="-70" type="line"/>
      <point x="346" y="-270" type="line"/>
      <point x="718" y="-270" type="line"/>
      <point x="691" y="-420" type="line" name="sv02"/>
      <point x="125" y="-420" type="line" name="av01"/>
      <point x="183" y="-220" type="line"/>
    </contour>
  </outline>
</glyph>
<glyph name="bracketright" format="2">
  <advance width="1300"/>
  <unicode hex="005D"/>
  <outline>
    <contour>
      <point x="633" y="-220" type="line"/>
      <point x="619" y="-420" type="line" name="sv01"/>
      <point x="53" y="-420" type="line" name="av01"/>
      <point x="80" y="-270" type="line"/>
      <point x="452" y="-270" type="line"/>
      <point x="467" y="-70" type="line"/>
      <point x="686" y="1170" type="line"/>
      <point x="741" y="1370" type="line"/>
      <point x="369" y="1370" type="line"/>
      <point x="396" y="1520" type="line" name="at01"/>
      <point x="962" y="1520" type="line" name="sv02"/>
      <point x="904" y="1320" type="line"/>
    </contour>
  </outline>
</glyph>
<glyph name="asciicircum" format="2">
  <advance width="1300"/>
  <unicode hex="005E"/>
  <outline>
    <contour>
      <point x="1273" y="912" type="line" name="sv01"/>
      <point x="1072" y="912" type="line"/>
      <point x="752" y="1239" type="line"/>
      <point x="727" y="1350" type="line"/>
      <point x="663" y="1241" type="line"/>
      <point x="239" y="914" type="line"/>
      <point x="23" y="914" type="line" name="av01"/>
      <point x="681" y="1500" type="line"/>
      <point x="813" y="1517" type="line"/>
    </contour>
  </outline>
</glyph>
<glyph name="underscore" format="2">
  <advance width="1300"/>
  <unicode hex="005F"/>
  <outline>
    <contour>
      <point x="101" y="-300" type="line"/>
      <point x="1200" y="-300" type="line"/>
      <point x="1172" y="-455" type="line" name="sv01"/>
      <point x="73" y="-455" type="line" name="ab01"/>
    </contour>
  </outline>
</glyph>
<glyph name="grave" format="2">
  <advance width="1300"/>
  <unicode hex="0060"/>
  <outline>
    <contour>
      <point x="871" y="1200" type="line" name="ah01"/>
      <point x="721" y="1200" type="line" name="sh01"/>
      <point x="549" y="1500" type="line"/>
      <point x="757" y="1520" type="line" name="at01"/>
    </contour>
  </outline>
</glyph>
<glyph name="a" format="2">
  <advance width="1300"/>
  <unicode hex="0061"/>
  <outline>
    <contour>
      <point x="927" y="930" type="line"/>
      <point x="909" y="938"/>
      <point x="858" y="950"/>
      <point x="835" y="953" type="qcurve"/>
      <point x="808" y="957"/>
      <point x="779" y="958" type="qcurve"/>
      <point x="677" y="958"/>
      <point x="525" y="888"/>
      <point x="419" y="766"/>
      <point x="357" y="604"/>
      <point x="346" y="512" type="qcurve"/>
      <point x="340" y="462"/>
      <point x="340" y="421" type="qcurve"/>
      <point x="340" y="352"/>
      <point x="368" y="248"/>
      <point x="418" y="179"/>
      <point x="484" y="144"/>
      <point x="523" y="144" type="qcurve"/>
      <point x="575" y="144"/>
      <point x="663" y="172"/>
      <point x="736" y="218"/>
      <point x="797" y="276"/>
      <point x="821" y="306" type="qcurve"/>
    </contour>
    <contour>
      <point x="768" y="0" type="line" name="ab02"/>
      <point x="796" y="162" type="line"/>
      <point x="681" y="49" type="line"/>
      <point x="660" y="32"/>
      <point x="619" y="7"/>
      <point x="570" y="-9"/>
      <point x="506" y="-17"/>
      <point x="462" y="-17" type="qcurve" name="ab01"/>
      <point x="391" y="-17"/>
      <point x="279" y="47"/>
      <point x="201" y="162"/>
      <point x="160" y="322"/>
      <point x="160" y="419" type="qcurve"/>
      <point x="160" y="447"/>
      <point x="163" y="506"/>
      <point x="167" y="536" type="qcurve"/>
      <point x="180" y="647"/>
      <point x="270" y="856"/>
      <point x="427" y="1018"/>
      <point x="652" y="1117"/>
      <point x="800" y="1117" type="qcurve" name="av01"/>
      <point x="884" y="1117"/>
      <point x="1056" y="1089"/>
      <point x="1133" y="1063" type="qcurve"/>
      <point x="981" y="180" type="line"/>
      <point x="970" y="0" type="line" name="sv01"/>
    </contour>
  </outline>
</glyph>
<glyph name="b" format="2">
  <advance width="1300"/>
  <unicode hex="0062"/>
  <outline>
    <contour>
      <point x="353" y="171" type="line"/>
      <point x="388" y="158"/>
      <point x="490" y="143"/>
      <point x="565" y="143" type="qcurve"/>
      <point x="668" y="143"/>
      <point x="805" y="226"/>
      <point x="892" y="358"/>
      <point x="937" y="521"/>
      <point x="948" y="601" type="qcurve"/>
      <point x="954" y="646"/>
      <point x="954" y="686" type="qcurve"/>
      <point x="954" y="749"/>
      <point x="927" y="849"/>
      <point x="880" y="920"/>
      <point x="815" y="957"/>
      <point x="776" y="957" type="qcurve"/>
      <point x="733" y="957"/>
      <point x="658" y="948"/>
      <point x="586" y="923"/>
      <point x="512" y="879"/>
      <point x="471" y="845" type="qcurve"/>
    </contour>
    <contour>
      <point x="391" y="1420" type="line"/>
      <point x="403" y="1600" type="line"/>
      <point x="608" y="1620" type="line" name="av02"/>
      <point x="494" y="974" type="line"/>
      <point x="595" y="1065" type="line"/>
      <point x="651" y="1089"/>
      <point x="759" y="1117"/>
      <point x="815" y="1117" type="qcurve" name="av01"/>
      <point x="890" y="1117"/>
      <point x="1008" y="1053"/>
      <point x="1091" y="937"/>
      <point x="1135" y="778"/>
      <point x="1135" y="684" type="qcurve"/>
      <point x="1135" y="663"/>
      <point x="1132" y="619"/>
      <point x="1130" y="596" type="qcurve"/>
      <point x="1115" y="457"/>
      <point x="1022" y="231"/>
      <point x="867" y="70"/>
      <point x="653" y="-17"/>
      <point x="517" y="-17" type="qcurve" name="ab01"/>
      <point x="492" y="-17"/>
      <point x="426" y="-13"/>
      <point x="353" y="-5"/>
      <point x="278" y="5"/>
      <point x="213" y="16"/>
      <point x="161" y="29"/>
      <point x="147" y="35" type="qcurve"/>
    </contour>
  </outline>
</glyph>
<glyph name="c" format="2">
  <advance width="1300"/>
  <unicode hex="0063"/>
  <outline>
    <contour>
      <point x="1044" y="885" type="line"/>
      <point x="1007" y="917"/>
      <point x="880" y="957"/>
      <point x="775" y="957" type="qcurve"/>
      <point x="691" y="957"/>
      <point x="547" y="894"/>
      <point x="435" y="786"/>
      <point x="361" y="643"/>
      <point x="347" y="564" type="qcurve"/>
      <point x="338" y="516"/>
      <point x="338" y="469" type="qcurve"/>
      <point x="338" y="403"/>
      <point x="375" y="287"/>
      <point x="450" y="201"/>
      <point x="566" y="152"/>
      <point x="644" y="152" type="qcurve"/>
      <point x="686" y="152"/>
      <point x="778" y="178"/>
      <point x="863" y="212"/>
      <point x="930" y="248"/>
      <point x="947" y="258" type="qcurve"/>
      <point x="1000" y="115" type="line"/>
      <point x="970" y="93"/>
      <point x="883" y="47"/>
      <point x="778" y="8"/>
      <point x="661" y="-17"/>
      <point x="601" y="-17" type="qcurve" name="ab01"/>
      <point x="491" y="-17"/>
      <point x="321" y="60"/>
      <point x="205" y="191"/>
      <point x="144" y="366"/>
      <point x="144" y="464" type="qcurve"/>
      <point x="144" y="492"/>
      <point x="149" y="548"/>
      <point x="154" y="577" type="qcurve"/>
      <point x="172" y="681"/>
      <point x="283" y="876"/>
      <point x="454" y="1026"/>
      <point x="676" y="1117"/>
      <point x="805" y="1117" type="qcurve" name="av01"/>
      <point x="927" y="1117"/>
      <point x="1100" y="1060"/>
      <point x="1163" y="1000" type="qcurve"/>
    </contour>
  </outline>
</glyph>
<glyph name="d" format="2">
  <advance width="1300"/>
  <unicode hex="0064"/>
  <outline>
    <contour>
      <point x="715" y="940" type="line"/>
      <point x="602" y="940"/>
      <point x="438" y="855"/>
      <point x="332" y="712"/>
      <point x="280" y="527"/>
      <point x="280" y="427" type="qcurve"/>
      <point x="280" y="355"/>
      <point x="308" y="249"/>
      <point x="358" y="178"/>
      <point x="426" y="144"/>
      <point x="466" y="144" type="qcurve"/>
      <point x="518" y="144"/>
      <point x="606" y="172"/>
      <point x="679" y="218"/>
      <point x="740" y="276"/>
      <point x="764" y="306" type="qcurve"/>
      <point x="876" y="940" type="line"/>
    </contour>
    <contour>
      <point x="711" y="0" type="line" name="ab02"/>
      <point x="739" y="162" type="line"/>
      <point x="624" y="49" type="line"/>
      <point x="603" y="32"/>
      <point x="562" y="7"/>
      <point x="513" y="-9"/>
      <point x="449" y="-17"/>
      <point x="405" y="-17" type="qcurve" name="ab01"/>
      <point x="332" y="-17"/>
      <point x="218" y="48"/>
      <point x="140" y="167"/>
      <point x="100" y="332"/>
      <point x="100" y="431" type="qcurve"/>
      <point x="100" y="516"/>
      <point x="135" y="682"/>
      <point x="205" y="830"/>
      <point x="313" y="955"/>
      <point x="458" y="1047"/>
      <point x="643" y="1099"/>
      <point x="755" y="1100" type="qcurve" name="av02"/>
      <point x="904" y="1100" type="line" name="sv01"/>
      <point x="996" y="1620" type="line" name="av01"/>
      <point x="1175" y="1600" type="line"/>
      <point x="924" y="180" type="line"/>
      <point x="913" y="0" type="line" name="sv02"/>
    </contour>
  </outline>
</glyph>
<glyph name="e" format="2">
  <advance width="1300"/>
  <unicode hex="0065"/>
  <outline>
    <contour>
      <point x="1017" y="139" type="line"/>
      <point x="986" y="112"/>
      <point x="895" y="56"/>
      <point x="777" y="11"/>
      <point x="634" y="-17"/>
      <point x="552" y="-17" type="qcurve" name="ab01"/>
      <point x="439" y="-17"/>
      <point x="279" y="60"/>
      <point x="176" y="190"/>
      <point x="128" y="361"/>
      <point x="128" y="455" type="qcurve"/>
      <point x="128" y="502"/>
      <point x="134" y="550" type="qcurve"/>
      <point x="143" y="623"/>
      <point x="190" y="765"/>
      <point x="265" y="891"/>
      <point x="366" y="997"/>
      <point x="492" y="1074"/>
      <point x="641" y="1117"/>
      <point x="726" y="1117" type="qcurve" name="av01"/>
      <point x="826" y="1117"/>
      <point x="981" y="1061"/>
      <point x="1087" y="959"/>
      <point x="1142" y="816"/>
      <point x="1142" y="729" type="qcurve"/>
      <point x="1142" y="687"/>
      <point x="1135" y="646" type="qcurve"/>
      <point x="1130" y="615"/>
      <point x="1115" y="563"/>
      <point x="1107" y="543" type="qcurve"/>
      <point x="1098" y="520"/>
      <point x="1089" y="500" type="qcurve" name="sv01"/>
      <point x="308" y="500" type="line" name="av02"/>
      <point x="302" y="477"/>
      <point x="297" y="435"/>
      <point x="297" y="415" type="qcurve"/>
      <point x="297" y="353"/>
      <point x="343" y="249"/>
      <point x="419" y="174"/>
      <point x="517" y="133"/>
      <point x="570" y="133" type="qcurve"/>
      <point x="634" y="133"/>
      <point x="747" y="158"/>
      <point x="838" y="194"/>
      <point x="906" y="232"/>
      <point x="925" y="245" type="qcurve"/>
    </contour>
    <contour>
      <point x="959" y="650" type="line"/>
      <point x="961" y="653"/>
      <point x="967" y="679"/>
      <point x="972" y="712"/>
      <point x="975" y="743"/>
      <point x="975" y="752" type="qcurve"/>
      <point x="975" y="788"/>
      <point x="953" y="861"/>
      <point x="895" y="921"/>
      <point x="793" y="958"/>
      <point x="713" y="958" type="qcurve"/>
      <point x="648" y="958"/>
      <point x="539" y="921"/>
      <point x="452" y="858"/>
      <point x="388" y="776"/>
      <point x="368" y="732" type="qcurve"/>
      <point x="286" y="623" type="line"/>
      <point x="479" y="650" type="line"/>
    </contour>
  </outline>
</glyph>
<glyph name="f" format="2">
  <advance width="1300"/>
  <unicode hex="0066"/>
  <guideline x="0" y="3258" angle="0"/>
  <outline>
    <contour>
      <point x="553" y="940" type="line"/>
      <point x="403" y="940" type="line" name="av01"/>
      <point x="431" y="1100" type="line"/>
      <point x="581" y="1100" type="line"/>
      <point x="609" y="1255" type="line"/>
      <point x="626" y="1348"/>
      <point x="684" y="1485"/>
      <point x="773" y="1574"/>
      <point x="893" y="1618"/>
      <point x="973" y="1618" type="qcurve"/>
      <point x="981" y="1618"/>
      <point x="995" y="1617" name="av02"/>
      <point x="1003" y="1617" type="qcurve"/>
      <point x="1048" y="1615"/>
      <point x="1118" y="1600"/>
      <point x="1174" y="1576"/>
      <point x="1218" y="1546"/>
      <point x="1236" y="1529" type="qcurve"/>
      <point x="1141" y="1406" type="line"/>
      <point x="1112" y="1431"/>
      <point x="1036" y="1465"/>
      <point x="997" y="1465" type="qcurve"/>
      <point x="986" y="1465" type="line"/>
      <point x="948" y="1462"/>
      <point x="885" y="1444"/>
      <point x="835" y="1397"/>
      <point x="797" y="1313"/>
      <point x="785" y="1245" type="qcurve"/>
      <point x="758" y="1100" type="line"/>
      <point x="1048" y="1100" type="line"/>
      <point x="1000" y="940" type="line" name="sv01"/>
      <point x="735" y="940" type="line"/>
      <point x="560" y="-99" type="line"/>
      <point x="550" y="-156"/>
      <point x="505" y="-271"/>
      <point x="427" y="-363"/>
      <point x="313" y="-421"/>
      <point x="234" y="-421" type="qcurve" name="av03"/>
      <point x="225" y="-421"/>
      <point x="206" y="-421"/>
      <point x="195" y="-420" type="qcurve"/>
      <point x="135" y="-415"/>
      <point x="70" y="-388"/>
      <point x="59" y="-382" type="qcurve"/>
      <point x="124" y="-238" type="line"/>
      <point x="135" y="-242"/>
      <point x="183" y="-259"/>
      <point x="213" y="-260" type="qcurve"/>
      <point x="220" y="-260" type="line"/>
      <point x="256" y="-260"/>
      <point x="310" y="-224"/>
      <point x="350" y="-157"/>
      <point x="377" y="-60"/>
      <point x="388" y="0" type="qcurve"/>
    </contour>
  </outline>
</glyph>
<glyph name="g" format="2">
  <advance width="1300"/>
  <unicode hex="0067"/>
  <outline>
    <contour>
      <point x="813" y="135" type="line"/>
      <point x="707" y="25" type="line"/>
      <point x="698" y="20"/>
      <point x="669" y="5"/>
      <point x="627" y="-8"/>
      <point x="573" y="-17"/>
      <point x="540" y="-17" type="qcurve" name="ab01"/>
      <point x="455" y="-17"/>
      <point x="321" y="52"/>
      <point x="229" y="177"/>
      <point x="180" y="352"/>
      <point x="180" y="458" type="qcurve"/>
      <point x="180" y="543"/>
      <point x="212" y="707"/>
      <point x="274" y="853"/>
      <point x="366" y="977"/>
      <point x="487" y="1067"/>
      <point x="636" y="1117"/>
      <point x="724" y="1117" type="qcurve" name="av01"/>
      <point x="745" y="1117"/>
      <point x="794" y="1111"/>
      <point x="842" y="1100"/>
      <point x="886" y="1082"/>
      <point x="903" y="1070" type="qcurve"/>
      <point x="958" y="958" type="line"/>
      <point x="988" y="1121" type="line" name="av03"/>
      <point x="1165" y="1100" type="line"/>
      <point x="963" y="-46" type="line"/>
      <point x="944" y="-151"/>
      <point x="857" y="-324"/>
      <point x="726" y="-449"/>
      <point x="555" y="-517"/>
      <point x="453" y="-517" type="qcurve" name="av02"/>
      <point x="376" y="-517"/>
      <point x="255" y="-485"/>
      <point x="168" y="-442"/>
      <point x="112" y="-398"/>
      <point x="100" y="-386" type="qcurve"/>
      <point x="217" y="-276" type="line"/>
      <point x="224" y="-282"/>
      <point x="268" y="-309"/>
      <point x="335" y="-336"/>
      <point x="420" y="-357"/>
      <point x="468" y="-357" type="qcurve"/>
      <point x="530" y="-357"/>
      <point x="635" y="-310"/>
      <point x="716" y="-224"/>
      <point x="771" y="-104"/>
      <point x="784" y="-31" type="qcurve"/>
    </contour>
    <contour>
      <point x="937" y="834" type="line"/>
      <point x="922" y="855"/>
      <point x="878" y="899"/>
      <point x="819" y="935"/>
      <point x="743" y="958"/>
      <point x="697" y="958" type="qcurve"/>
      <point x="634" y="958"/>
      <point x="535" y="912"/>
      <point x="460" y="835"/>
      <point x="407" y="732"/>
      <point x="374" y="619"/>
      <point x="359" y="501"/>
      <point x="359" y="448" type="qcurve"/>
      <point x="359" y="312"/>
      <point x="451" y="158"/>
      <point x="551" y="145" type="qcurve"/>
      <point x="572" y="142"/>
      <point x="592" y="142" type="qcurve"/>
      <point x="634" y="142"/>
      <point x="705" y="164"/>
      <point x="765" y="201"/>
      <point x="816" y="249"/>
      <point x="838" y="275" type="qcurve"/>
    </contour>
  </outline>
</glyph>
<glyph name="h" format="2">
  <advance width="1300"/>
  <unicode hex="0068"/>
  <outline>
    <contour>
      <point x="298" y="0" type="line"/>
      <point x="108" y="0" type="line" name="ab01"/>
      <point x="355" y="1400" type="line"/>
      <point x="370" y="1600" type="line"/>
      <point x="583" y="1620" type="line" name="av01"/>
      <point x="465" y="950" type="line"/>
      <point x="574" y="1065" type="line"/>
      <point x="618" y="1087"/>
      <point x="769" y="1117"/>
      <point x="884" y="1117" type="qcurve" name="av02"/>
      <point x="1009" y="1117"/>
      <point x="1136" y="980"/>
      <point x="1136" y="849" type="qcurve"/>
      <point x="1136" y="822"/>
      <point x="1131" y="762"/>
      <point x="1125" y="730" type="qcurve"/>
      <point x="997" y="0" type="line" name="sv01"/>
      <point x="807" y="0" type="line"/>
      <point x="932" y="709" type="line"/>
      <point x="941" y="761"/>
      <point x="941" y="803" type="qcurve"/>
      <point x="941" y="886"/>
      <point x="872" y="957"/>
      <point x="809" y="957" type="qcurve"/>
      <point x="749" y="957"/>
      <point x="636" y="933"/>
      <point x="539" y="896"/>
      <point x="465" y="852"/>
      <point x="445" y="833" type="qcurve"/>
    </contour>
  </outline>
</glyph>
<glyph name="j" format="2">
  <advance width="1300"/>
  <unicode hex="006A"/>
  <outline>
    <contour>
      <point x="923" y="1500" type="line" name="at01"/>
      <point x="1125" y="1500" type="line" name="sv01"/>
      <point x="1090" y="1300" type="line"/>
      <point x="888" y="1300" type="line"/>
    </contour>
    <contour>
      <point x="873" y="995" type="line"/>
      <point x="753" y="955" type="line"/>
      <point x="524" y="955" type="line"/>
      <point x="550" y="1100" type="line" name="av02"/>
      <point x="1049" y="1100" type="line" name="sv02"/>
      <point x="838" y="-97" type="line"/>
      <point x="822" y="-186"/>
      <point x="772" y="-340"/>
      <point x="685" y="-453"/>
      <point x="552" y="-517"/>
      <point x="454" y="-517" type="qcurve" name="av01"/>
      <point x="388" y="-517"/>
      <point x="275" y="-496"/>
      <point x="191" y="-471"/>
      <point x="139" y="-447"/>
      <point x="134" y="-444" type="qcurve"/>
      <point x="200" y="-290" type="line"/>
      <point x="205" y="-294"/>
      <point x="243" y="-315"/>
      <point x="303" y="-338"/>
      <point x="383" y="-355"/>
      <point x="431" y="-355" type="qcurve"/>
      <point x="478" y="-355"/>
      <point x="549" y="-323"/>
      <point x="601" y="-261"/>
      <point x="635" y="-168"/>
      <point x="646" y="-107" type="qcurve"/>
      <point x="830" y="934" type="line"/>
    </contour>
  </outline>
</glyph>
<glyph name="k" format="2">
  <advance width="1300"/>
  <unicode hex="006B"/>
  <outline>
    <contour>
      <point x="160" y="0" type="line" name="ab01"/>
      <point x="410" y="1420" type="line"/>
      <point x="422" y="1600" type="line"/>
      <point x="627" y="1620" type="line" name="av02"/>
      <point x="463" y="690" type="line"/>
      <point x="905" y="1100" type="line" name="av01"/>
      <point x="1134" y="1100" type="line" name="sv01"/>
      <point x="692" y="690" type="line"/>
      <point x="513" y="627" type="line"/>
      <point x="670" y="567" type="line"/>
      <point x="1052" y="0" type="line" name="sv02"/>
      <point x="816" y="0" type="line"/>
      <point x="440" y="557" type="line"/>
      <point x="342" y="0" type="line"/>
    </contour>
  </outline>
</glyph>
<glyph name="m" format="2">
  <advance width="1300"/>
  <unicode hex="006D"/>
  <outline>
    <contour>
      <point x="200" y="0" type="line" name="sv01"/>
      <point x="23" y="0" type="line" name="ab01"/>
      <point x="216" y="1100" type="line"/>
      <point x="397" y="1121" type="line" name="av03"/>
      <point x="365" y="937" type="line"/>
      <point x="393" y="977"/>
      <point x="423" y="1022"/>
      <point x="438" y="1043"/>
      <point x="442" y="1048"/>
      <point x="443" y="1048" type="qcurve"/>
      <point x="454" y="1057"/>
      <point x="485" y="1081"/>
      <point x="528" y="1102"/>
      <point x="587" y="1117"/>
      <point x="626" y="1117" type="qcurve" name="av01"/>
      <point x="682" y="1117"/>
      <point x="749" y="1088"/>
      <point x="785" y="1037"/>
      <point x="800" y="965"/>
      <point x="803" y="923" type="qcurve"/>
      <point x="887" y="1043" type="line"/>
      <point x="898" y="1052"/>
      <point x="941" y="1078"/>
      <point x="997" y="1101"/>
      <point x="1060" y="1117"/>
      <point x="1092" y="1117" type="qcurve" name="av02"/>
      <point x="1168" y="1117"/>
      <point x="1248" y="1066"/>
      <point x="1276" y="970"/>
      <point x="1265" y="834"/>
      <point x="1250" y="750" type="qcurve"/>
      <point x="1118" y="0" type="line" name="sv05"/>
      <point x="940" y="0" type="line" name="sv04"/>
      <point x="1070" y="740" type="line"/>
      <point x="1080" y="794"/>
      <point x="1091" y="875"/>
      <point x="1080" y="930"/>
      <point x="1040" y="957"/>
      <point x="999" y="957" type="qcurve"/>
      <point x="979" y="957"/>
      <point x="923" y="932"/>
      <point x="866" y="893"/>
      <point x="815" y="844"/>
      <point x="800" y="819" type="qcurve"/>
      <point x="799" y="813"/>
      <point x="795" y="786"/>
      <point x="791" y="757"/>
      <point x="787" y="732"/>
      <point x="786" y="727" type="qcurve"/>
      <point x="658" y="0" type="line" name="sv03"/>
      <point x="479" y="0" type="line" name="sv02"/>
      <point x="606" y="720" type="line"/>
      <point x="615" y="774"/>
      <point x="627" y="862"/>
      <point x="617" y="923"/>
      <point x="576" y="957"/>
      <point x="533" y="957" type="qcurve"/>
      <point x="517" y="957"/>
      <point x="470" y="939"/>
      <point x="418" y="904"/>
      <point x="366" y="855"/>
      <point x="345" y="824" type="qcurve"/>
    </contour>
  </outline>
</glyph>
<glyph name="n" format="2">
  <advance width="1300"/>
  <unicode hex="006E"/>
  <outline>
    <contour>
      <point x="292" y="0" type="line"/>
      <point x="102" y="0" type="line" name="ab01"/>
      <point x="296" y="1100" type="line"/>
      <point x="489" y="1121" type="line" name="av01"/>
      <point x="455" y="927" type="line"/>
      <point x="537" y="1044" type="line"/>
      <point x="557" y="1056"/>
      <point x="615" y="1082"/>
      <point x="695" y="1103"/>
      <point x="798" y="1117"/>
      <point x="863" y="1117" type="qcurve" name="av02"/>
      <point x="1000" y="1117"/>
      <point x="1142" y="972"/>
      <point x="1142" y="844" type="qcurve"/>
      <point x="1142" y="799"/>
      <point x="1133" y="750" type="qcurve"/>
      <point x="1001" y="0" type="line" name="sv01"/>
      <point x="811" y="0" type="line"/>
      <point x="943" y="750" type="line"/>
      <point x="945" y="764"/>
      <point x="948" y="790"/>
      <point x="948" y="802" type="qcurve"/>
      <point x="948" y="851"/>
      <point x="923" y="912"/>
      <point x="876" y="946"/>
      <point x="810" y="957"/>
      <point x="770" y="957" type="qcurve"/>
      <point x="717" y="957"/>
      <point x="623" y="933"/>
      <point x="540" y="896"/>
      <point x="469" y="853"/>
      <point x="439" y="834" type="qcurve"/>
    </contour>
  </outline>
</glyph>
<glyph name="o" format="2">
  <advance width="1300"/>
  <unicode hex="006F"/>
  <outline>
    <contour>
      <point x="567" y="-17" type="qcurve" name="ab01"/>
      <point x="468" y="-17"/>
      <point x="305" y="53"/>
      <point x="188" y="181"/>
      <point x="124" y="362"/>
      <point x="124" y="473" type="qcurve"/>
      <point x="124" y="616"/>
      <point x="213" y="853"/>
      <point x="372" y="1023"/>
      <point x="593" y="1117"/>
      <point x="726" y="1117" type="qcurve" name="av01"/>
      <point x="828" y="1117"/>
      <point x="994" y="1051"/>
      <point x="1112" y="926"/>
      <point x="1176" y="745"/>
      <point x="1176" y="631" type="qcurve"/>
      <point x="1176" y="482"/>
      <point x="1091" y="242"/>
      <point x="933" y="74"/>
      <point x="708" y="-17"/>
    </contour>
    <contour>
      <point x="993" y="622" type="qcurve"/>
      <point x="993" y="697"/>
      <point x="957" y="822"/>
      <point x="885" y="913"/>
      <point x="778" y="963"/>
      <point x="706" y="963" type="qcurve"/>
      <point x="641" y="963"/>
      <point x="531" y="924"/>
      <point x="443" y="856"/>
      <point x="375" y="763"/>
      <point x="330" y="656"/>
      <point x="307" y="538"/>
      <point x="307" y="480" type="qcurve"/>
      <point x="307" y="405"/>
      <point x="341" y="279"/>
      <point x="410" y="188"/>
      <point x="515" y="138"/>
      <point x="586" y="138" type="qcurve"/>
      <point x="650" y="138"/>
      <point x="760" y="177"/>
      <point x="850" y="246"/>
      <point x="920" y="339"/>
      <point x="968" y="447"/>
      <point x="993" y="564"/>
    </contour>
  </outline>
</glyph>
<glyph name="p" format="2">
  <advance width="1300"/>
  <unicode hex="0070"/>
  <outline>
    <contour>
      <point x="572" y="160" type="line"/>
      <point x="686" y="160"/>
      <point x="845" y="244"/>
      <point x="945" y="387"/>
      <point x="991" y="574"/>
      <point x="991" y="677" type="qcurve"/>
      <point x="991" y="815"/>
      <point x="872" y="960"/>
      <point x="768" y="960" type="qcurve"/>
      <point x="693" y="960"/>
      <point x="567" y="885"/>
      <point x="507" y="827" type="qcurve"/>
      <point x="390" y="160" type="line"/>
    </contour>
    <contour>
      <point x="273" y="-500" type="line" name="sv01"/>
      <point x="91" y="-500" type="line" name="av03"/>
      <point x="373" y="1100" type="line"/>
      <point x="559" y="1121" type="line" name="av01"/>
      <point x="528" y="944" type="line"/>
      <point x="623" y="1047" type="line"/>
      <point x="643" y="1060"/>
      <point x="685" y="1085"/>
      <point x="734" y="1105"/>
      <point x="795" y="1117"/>
      <point x="834" y="1117" type="qcurve" name="av02"/>
      <point x="907" y="1117"/>
      <point x="1032" y="1061"/>
      <point x="1122" y="953"/>
      <point x="1173" y="796"/>
      <point x="1173" y="695" type="qcurve"/>
      <point x="1173" y="553"/>
      <point x="1095" y="301"/>
      <point x="932" y="111"/>
      <point x="681" y="0"/>
      <point x="508" y="0" type="qcurve" name="sv02"/>
      <point x="362" y="0" type="line" name="ab01"/>
    </contour>
  </outline>
</glyph>
<glyph name="q" format="2">
  <advance width="1300"/>
  <unicode hex="0071"/>
  <outline>
    <contour>
      <point x="933" y="935" type="line"/>
      <point x="913" y="939"/>
      <point x="861" y="947"/>
      <point x="802" y="953"/>
      <point x="741" y="957"/>
      <point x="713" y="957" type="qcurve"/>
      <point x="638" y="957"/>
      <point x="525" y="907"/>
      <point x="442" y="824"/>
      <point x="387" y="716"/>
      <point x="354" y="598"/>
      <point x="340" y="478"/>
      <point x="340" y="425" type="qcurve"/>
      <point x="340" y="277"/>
      <point x="448" y="140"/>
      <point x="545" y="140" type="qcurve"/>
      <point x="615" y="140"/>
      <point x="755" y="214"/>
      <point x="816" y="270" type="qcurve"/>
    </contour>
    <contour>
      <point x="792" y="136" type="line"/>
      <point x="669" y="29" type="line"/>
      <point x="641" y="17"/>
      <point x="595" y="0"/>
      <point x="550" y="-12"/>
      <point x="501" y="-17"/>
      <point x="470" y="-17" type="qcurve" name="ab01"/>
      <point x="397" y="-17"/>
      <point x="280" y="44"/>
      <point x="199" y="159"/>
      <point x="155" y="326"/>
      <point x="155" y="432" type="qcurve"/>
      <point x="155" y="577"/>
      <point x="239" y="827"/>
      <point x="390" y="1011"/>
      <point x="601" y="1117"/>
      <point x="727" y="1117" type="qcurve" name="av02"/>
      <point x="793" y="1117"/>
      <point x="897" y="1109"/>
      <point x="990" y="1094"/>
      <point x="1083" y="1075"/>
      <point x="1138" y="1065" type="qcurve"/>
      <point x="862" y="-500" type="line" name="sv01"/>
      <point x="680" y="-500" type="line" name="av01"/>
    </contour>
  </outline>
</glyph>
<glyph name="r" format="2">
  <advance width="1300"/>
  <unicode hex="0072"/>
  <outline>
    <contour>
      <point x="448" y="895" type="line"/>
      <point x="566" y="1053" type="line"/>
      <point x="598" y="1074"/>
      <point x="674" y="1100"/>
      <point x="753" y="1113"/>
      <point x="831" y="1117"/>
      <point x="866" y="1117" type="qcurve" name="av01"/>
      <point x="918" y="1117"/>
      <point x="1004" y="1103"/>
      <point x="1070" y="1083"/>
      <point x="1114" y="1061"/>
      <point x="1125" y="1053" type="qcurve"/>
      <point x="1125" y="800" type="line"/>
      <point x="980" y="779" type="line"/>
      <point x="961" y="948" type="line"/>
      <point x="947" y="953"/>
      <point x="891" y="968"/>
      <point x="846" y="968" type="qcurve"/>
      <point x="778" y="968"/>
      <point x="654" y="930"/>
      <point x="546" y="868"/>
      <point x="456" y="790"/>
      <point x="422" y="750" type="qcurve"/>
      <point x="290" y="0" type="line" name="sv01"/>
      <point x="100" y="0" type="line" name="ab01"/>
      <point x="294" y="1100" type="line"/>
      <point x="487" y="1121" type="line" name="av02"/>
    </contour>
  </outline>
</glyph>
<glyph name="s" format="2">
  <advance width="1300"/>
  <unicode hex="0073"/>
  <outline>
    <contour>
      <point x="1065" y="909" type="line"/>
      <point x="1048" y="918"/>
      <point x="983" y="939"/>
      <point x="910" y="957"/>
      <point x="838" y="968"/>
      <point x="813" y="968" type="qcurve"/>
      <point x="760" y="968"/>
      <point x="641" y="957"/>
      <point x="540" y="924"/>
      <point x="474" y="865"/>
      <point x="474" y="817" type="qcurve"/>
      <point x="474" y="784"/>
      <point x="523" y="736"/>
      <point x="602" y="700"/>
      <point x="703" y="672"/>
      <point x="805" y="648"/>
      <point x="899" y="624"/>
      <point x="933" y="610" type="qcurve"/>
      <point x="970" y="595"/>
      <point x="1036" y="551"/>
      <point x="1084" y="494"/>
      <point x="1112" y="424"/>
      <point x="1112" y="383" type="qcurve"/>
      <point x="1112" y="305"/>
      <point x="1051" y="185"/>
      <point x="948" y="96"/>
      <point x="816" y="36"/>
      <point x="675" y="-1"/>
      <point x="534" y="-17"/>
      <point x="475" y="-17" type="qcurve" name="ab01"/>
      <point x="441" y="-17"/>
      <point x="342" y="-4"/>
      <point x="241" y="19"/>
      <point x="153" y="51"/>
      <point x="130" y="69" type="qcurve"/>
      <point x="221" y="211" type="line"/>
      <point x="243" y="199"/>
      <point x="317" y="175"/>
      <point x="399" y="155"/>
      <point x="478" y="143"/>
      <point x="505" y="143" type="qcurve"/>
      <point x="535" y="143"/>
      <point x="615" y="151"/>
      <point x="699" y="170"/>
      <point x="782" y="201"/>
      <point x="846" y="249"/>
      <point x="886" y="315"/>
      <point x="886" y="359" type="qcurve"/>
      <point x="886" y="394"/>
      <point x="841" y="443"/>
      <point x="768" y="478"/>
      <point x="674" y="504"/>
      <point x="575" y="527"/>
      <point x="480" y="550"/>
      <point x="442" y="566" type="qcurve"/>
      <point x="397" y="585"/>
      <point x="335" y="632"/>
      <point x="297" y="686"/>
      <point x="280" y="747"/>
      <point x="280" y="779" type="qcurve"/>
      <point x="280" y="875"/>
      <point x="372" y="1004"/>
      <point x="525" y="1083"/>
      <point x="725" y="1117"/>
      <point x="833" y="1117" type="qcurve" name="av01"/>
      <point x="871" y="1117"/>
      <point x="965" y="1105"/>
      <point x="1055" y="1085"/>
      <point x="1129" y="1060"/>
      <point x="1147" y="1047" type="qcurve"/>
    </contour>
  </outline>
</glyph>
<glyph name="t" format="2">
  <advance width="1300"/>
  <unicode hex="0074"/>
  <outline>
    <contour>
      <point x="533" y="376" type="line"/>
      <point x="521" y="307"/>
      <point x="521" y="261" type="qcurve"/>
      <point x="521" y="195"/>
      <point x="565" y="143"/>
      <point x="607" y="143" type="qcurve"/>
      <point x="654" y="143"/>
      <point x="750" y="165"/>
      <point x="835" y="194"/>
      <point x="902" y="223"/>
      <point x="920" y="230" type="qcurve"/>
      <point x="968" y="109" type="line"/>
      <point x="957" y="101"/>
      <point x="881" y="60"/>
      <point x="768" y="16"/>
      <point x="631" y="-17"/>
      <point x="559" y="-17" type="qcurve" name="ab01"/>
      <point x="493" y="-17"/>
      <point x="404" y="19"/>
      <point x="351" y="85"/>
      <point x="329" y="175"/>
      <point x="329" y="229" type="qcurve"/>
      <point x="329" y="268"/>
      <point x="339" y="354"/>
      <point x="347" y="400" type="qcurve"/>
      <point x="443" y="940" type="line"/>
      <point x="142" y="940" type="line"/>
      <point x="170" y="1100" type="line" name="av01"/>
      <point x="471" y="1100" type="line"/>
      <point x="508" y="1309" type="line"/>
      <point x="712" y="1420" type="line" name="av02"/>
      <point x="656" y="1100" type="line"/>
      <point x="1096" y="1100" type="line" name="sv01"/>
      <point x="1048" y="940" type="line"/>
      <point x="633" y="940" type="line"/>
    </contour>
  </outline>
</glyph>
<glyph name="u" format="2">
  <advance width="1300"/>
  <unicode hex="0075"/>
  <outline>
    <contour>
      <point x="967" y="1100" type="line"/>
      <point x="1161" y="1121" type="line" name="av02"/>
      <point x="963" y="0" type="line" name="sv01"/>
      <point x="773" y="0" type="line" name="ab02"/>
      <point x="802" y="163" type="line"/>
      <point x="722" y="56" type="line"/>
      <point x="698" y="42"/>
      <point x="652" y="16"/>
      <point x="589" y="-4"/>
      <point x="496" y="-17"/>
      <point x="425" y="-17" type="qcurve" name="ab01"/>
      <point x="356" y="-17"/>
      <point x="244" y="35"/>
      <point x="165" y="126"/>
      <point x="122" y="248"/>
      <point x="122" y="318" type="qcurve"/>
      <point x="122" y="338"/>
      <point x="125" y="380"/>
      <point x="129" y="401" type="qcurve"/>
      <point x="257" y="1100" type="line"/>
      <point x="451" y="1121" type="line" name="av01"/>
      <point x="319" y="401" type="line"/>
      <point x="315" y="381"/>
      <point x="312" y="344"/>
      <point x="312" y="326" type="qcurve"/>
      <point x="312" y="286"/>
      <point x="332" y="219"/>
      <point x="377" y="170"/>
      <point x="448" y="143"/>
      <point x="498" y="143" type="qcurve"/>
      <point x="564" y="143"/>
      <point x="661" y="163"/>
      <point x="735" y="196"/>
      <point x="792" y="237"/>
      <point x="819" y="258" type="qcurve"/>
    </contour>
  </outline>
</glyph>
<glyph name="v" format="2">
  <advance width="1300"/>
  <unicode hex="0076"/>
  <guideline x="0" y="381" angle="0"/>
  <outline>
    <contour>
      <point x="1202" y="1121" type="line" name="av03"/>
      <point x="530" y="-20" type="line" name="ab01"/>
      <point x="328" y="0" type="line"/>
      <point x="164" y="1100" type="line" name="av01"/>
      <point x="351" y="1121" type="line" name="av02"/>
      <point x="460" y="381" type="line"/>
      <point x="472" y="149" type="line"/>
      <point x="563" y="381" type="line"/>
      <point x="983" y="1100" type="line" name="sv01"/>
    </contour>
  </outline>
</glyph>
<glyph name="w" format="2">
  <advance width="1300"/>
  <unicode hex="0077"/>
  <guideline x="0" y="500" angle="0"/>
  <guideline x="0" y="600" angle="0"/>
  <guideline x="466" y="0" angle="90"/>
  <guideline x="1039" y="0" angle="90"/>
  <guideline x="742" y="0" angle="90"/>
  <outline>
    <contour>
      <point x="737" y="400" type="line"/>
      <point x="754" y="150" type="line"/>
      <point x="823" y="480" type="line"/>
      <point x="1063" y="1100" type="line" name="sv01"/>
      <point x="1229" y="1121" type="line" name="av02"/>
      <point x="813" y="0" type="line" name="sv02"/>
      <point x="666" y="0" type="line"/>
      <point x="595" y="348" type="line"/>
      <point x="610" y="750" type="line"/>
      <point x="485" y="350" type="line"/>
      <point x="293" y="0" type="line"/>
      <point x="146" y="0" type="line" name="ab01"/>
      <point x="146" y="1100" type="line" name="av03"/>
      <point x="299" y="1121" type="line" name="av01"/>
      <point x="300" y="480" type="line"/>
      <point x="263" y="150" type="line"/>
      <point x="558" y="885" type="line" name="av04"/>
      <point x="711" y="885" type="line" name="sv03"/>
    </contour>
  </outline>
</glyph>
<glyph name="x" format="2">
  <advance width="1300"/>
  <unicode hex="0078"/>
  <guideline x="0" y="382" angle="0"/>
  <guideline x="0" y="583" angle="0"/>
  <guideline x="0" y="781" angle="0"/>
  <guideline x="565" y="0" angle="90"/>
  <guideline x="538" y="0" angle="90"/>
  <outline>
    <contour>
      <point x="851" y="0" type="line"/>
      <point x="650" y="382" type="line"/>
      <point x="626" y="500" type="line"/>
      <point x="560" y="382" type="line"/>
      <point x="225" y="0" type="line"/>
      <point x="26" y="0" type="line" name="ab01"/>
      <point x="541" y="588" type="line"/>
      <point x="273" y="1100" type="line" name="av01"/>
      <point x="487" y="1121" type="line" name="av02"/>
      <point x="663" y="781" type="line"/>
      <point x="683" y="670" type="line"/>
      <point x="740" y="781" type="line"/>
      <point x="1021" y="1100" type="line" name="sv01"/>
      <point x="1236" y="1121" type="line" name="av03"/>
      <point x="767" y="583" type="line"/>
      <point x="1076" y="0" type="line" name="sv02"/>
    </contour>
  </outline>
</glyph>
<glyph name="y" format="2">
  <advance width="1300"/>
  <unicode hex="0079"/>
  <guideline x="550" y="0" angle="90"/>
  <outline>
    <contour>
      <point x="666" y="364" type="line"/>
      <point x="1064" y="1100" type="line" name="sv01"/>
      <point x="1257" y="1121" type="line" name="av02"/>
      <point x="644" y="-17" type="line"/>
      <point x="580" y="-136"/>
      <point x="479" y="-310"/>
      <point x="381" y="-424"/>
      <point x="274" y="-480"/>
      <point x="204" y="-480" type="qcurve" name="av03"/>
      <point x="200" y="-480" type="line"/>
      <point x="135" y="-480"/>
      <point x="43" y="-439"/>
      <point x="8" y="-403" type="qcurve"/>
      <point x="100" y="-296" type="line"/>
      <point x="114" y="-308"/>
      <point x="168" y="-327"/>
      <point x="192" y="-328" type="qcurve"/>
      <point x="196" y="-328" type="line"/>
      <point x="232" y="-328"/>
      <point x="288" y="-300"/>
      <point x="346" y="-235"/>
      <point x="414" y="-127"/>
      <point x="462" y="-47" type="qcurve"/>
      <point x="247" y="1100" type="line" name="av04"/>
      <point x="420" y="1121" type="line" name="av01"/>
      <point x="431" y="1064"/>
      <point x="442" y="1002" type="qcurve"/>
      <point x="452" y="948"/>
      <point x="477" y="813"/>
      <point x="491" y="742" type="qcurve"/>
      <point x="522" y="576"/>
      <point x="562" y="364" type="qcurve"/>
      <point x="573" y="132" type="line"/>
    </contour>
  </outline>
</glyph>
<glyph name="bar" format="2">
  <advance width="1300"/>
  <unicode hex="007C"/>
  <outline>
    <contour>
      <point x="762" y="1520" type="line" name="at01"/>
      <point x="423" y="-400" type="line" name="sv01"/>
      <point x="229" y="-400" type="line" name="av01"/>
      <point x="564" y="1500" type="line"/>
    </contour>
  </outline>
</glyph>
<glyph name="cent" format="2">
  <advance width="1300"/>
  <unicode hex="00A2"/>
  <outline>
    <contour>
      <point x="905" y="1320" type="line" name="av01"/>
      <point x="869" y="1113" type="line"/>
      <point x="920" y="1105"/>
      <point x="961" y="1088" type="qcurve"/>
      <point x="1029" y="1060"/>
      <point x="1080" y="991" type="qcurve"/>
      <point x="961" y="878" type="line"/>
      <point x="927" y="913"/>
      <point x="878" y="935" type="qcurve"/>
      <point x="866" y="940"/>
      <point x="841" y="949"/>
      <point x="827" y="951" type="qcurve"/>
      <point x="686" y="153" type="line"/>
      <point x="711" y="155"/>
      <point x="754" y="163"/>
      <point x="774" y="170" type="qcurve"/>
      <point x="831" y="188"/>
      <point x="864" y="208" type="qcurve" name="mv01"/>
      <point x="911" y="67" type="line"/>
      <point x="848" y="28"/>
      <point x="770" y="6" type="qcurve"/>
      <point x="747" y="-1"/>
      <point x="697" y="-11"/>
      <point x="670" y="-13" type="qcurve"/>
      <point x="637" y="-200" type="line" name="sv01"/>
      <point x="491" y="-200" type="line" name="av02"/>
      <point x="524" y="-12" type="line" name="mh01"/>
      <point x="486" y="-7"/>
      <point x="416" y="15"/>
      <point x="387" y="32" type="qcurve"/>
      <point x="322" y="78"/>
      <point x="242" y="202"/>
      <point x="202" y="349"/>
      <point x="197" y="514"/>
      <point x="206" y="601" type="qcurve"/>
      <point x="218" y="716"/>
      <point x="312" y="896"/>
      <point x="453" y="1024"/>
      <point x="629" y="1100"/>
      <point x="723" y="1112" type="qcurve"/>
      <point x="756" y="1300" type="line"/>
    </contour>
    <contour>
      <point x="377" y="574" type="qcurve"/>
      <point x="367" y="496"/>
      <point x="380" y="358"/>
      <point x="426" y="249"/>
      <point x="507" y="174"/>
      <point x="566" y="158" type="qcurve"/>
      <point x="706" y="952" type="line"/>
      <point x="634" y="938"/>
      <point x="520" y="870"/>
      <point x="437" y="771"/>
      <point x="386" y="645"/>
    </contour>
  </outline>
</glyph>
<glyph name="yen" format="2">
  <advance width="1300"/>
  <unicode hex="00A5"/>
  <outline>
    <contour>
      <point x="56" y="550" type="line" name="av02"/>
      <point x="451" y="550" type="line"/>
      <point x="468" y="645" type="line"/>
      <point x="450" y="700" type="line"/>
      <point x="83" y="700" type="line" name="mh01"/>
      <point x="109" y="850" type="line" name="av01"/>
      <point x="399" y="850" type="line"/>
      <point x="183" y="1500" type="line" name="at01"/>
      <point x="391" y="1520" type="line" name="at02"/>
      <point x="579" y="954" type="line"/>
      <point x="614" y="705" type="line"/>
      <point x="684" y="935" type="line"/>
      <point x="1072" y="1500" type="line"/>
      <point x="1264" y="1500" type="line" name="sv01"/>
      <point x="818" y="850" type="line"/>
      <point x="1109" y="850" type="line" name="sv02"/>
      <point x="1083" y="700" type="line"/>
      <point x="715" y="700" type="line"/>
      <point x="678" y="646" type="line"/>
      <point x="661" y="550" type="line"/>
      <point x="1056" y="550" type="line" name="sv03"/>
      <point x="1030" y="400" type="line"/>
      <point x="635" y="400" type="line"/>
      <point x="565" y="0" type="line" name="sv04"/>
      <point x="355" y="0" type="line" name="ab01"/>
      <point x="425" y="400" type="line"/>
      <point x="30" y="400" type="line"/>
    </contour>
  </outline>
</glyph>
<glyph name="brokenbar" format="2">
  <advance width="1300"/>
  <unicode hex="00A6"/>
  <outline>
    <contour>
      <point x="770" y="1520" type="line" name="at01"/>
      <point x="625" y="700" type="line" name="sv01"/>
      <point x="425" y="700" type="line" name="av03"/>
      <point x="566" y="1500" type="line"/>
    </contour>
    <contour>
      <point x="565" y="362" type="line" name="sv02"/>
      <point x="431" y="-400" type="line" name="sv03"/>
      <point x="231" y="-400" type="line" name="av01"/>
      <point x="365" y="362" type="line" name="av02"/>
    </contour>
  </outline>
</glyph>
<glyph name="guillemotleft" format="2">
  <advance width="1300"/>
  <unicode hex="00AB"/>
  <outline>
    <contour>
      <point x="650" y="1026" type="line" name="at01"/>
      <point x="678" y="901" type="line"/>
      <point x="302" y="610" type="line"/>
      <point x="153" y="550" type="line" name="iv01"/>
      <point x="280" y="490" type="line"/>
      <point x="557" y="201" type="line"/>
      <point x="479" y="66" type="line" name="av01"/>
      <point x="84" y="478" type="line"/>
      <point x="108" y="617" type="line"/>
    </contour>
    <contour>
      <point x="1150" y="1026" type="line" name="at02"/>
      <point x="1178" y="901" type="line"/>
      <point x="802" y="610" type="line"/>
      <point x="653" y="550" type="line" name="iv02"/>
      <point x="780" y="490" type="line"/>
      <point x="1057" y="201" type="line"/>
      <point x="979" y="66" type="line" name="av02"/>
      <point x="584" y="478" type="line"/>
      <point x="608" y="617" type="line"/>
    </contour>
  </outline>
</glyph>
<glyph name="logicalnot" format="2">
  <advance width="1300"/>
  <unicode hex="00AC"/>
  <outline>
    <contour>
      <point x="1258" y="800" type="line" name="sv01"/>
      <point x="1203" y="589" type="line"/>
      <point x="1149" y="280" type="line" name="sv02"/>
      <point x="949" y="280" type="line" name="av02"/>
      <point x="979" y="449" type="line"/>
      <point x="1028" y="640" type="line"/>
      <point x="24" y="640" type="line" name="sv03"/>
      <point x="53" y="800" type="line" name="av01"/>
    </contour>
  </outline>
</glyph>
<glyph name="macron" format="2">
  <advance width="1300"/>
  <unicode hex="00AF"/>
  <outline>
    <contour>
      <point x="464" y="1500" type="line" name="at01"/>
      <point x="1164" y="1500" type="line" name="sv01"/>
      <point x="1138" y="1350" type="line" name="sv02"/>
      <point x="438" y="1350" type="line"/>
    </contour>
  </outline>
</glyph>
<glyph name="plusminus" format="2">
  <advance width="1300"/>
  <unicode hex="00B1"/>
  <outline>
    <contour>
      <point x="223" y="862" type="line" name="hr00"/>
      <point x="596" y="862" type="line"/>
      <point x="671" y="1200" type="line"/>
      <point x="826" y="1200" type="line"/>
      <point x="751" y="862" type="line"/>
      <point x="1123" y="862" type="line"/>
      <point x="1096" y="738" type="line"/>
      <point x="724" y="738" type="line"/>
      <point x="649" y="400" type="line"/>
      <point x="494" y="400" type="line"/>
      <point x="569" y="738" type="line"/>
      <point x="196" y="738" type="line"/>
    </contour>
    <contour>
      <point x="98" y="290" type="line"/>
      <point x="998" y="290" type="line"/>
      <point x="998" y="150" type="line"/>
      <point x="98" y="150" type="line"/>
    </contour>
  </outline>
</glyph>
<glyph name="acute" format="2">
  <advance width="1300"/>
  <unicode hex="00B4"/>
  <outline>
    <contour>
      <point x="864" y="1500" type="line" name="at01"/>
      <point x="1098" y="1520" type="line"/>
      <point x="801" y="1200" type="line"/>
      <point x="651" y="1200" type="line" name="av01"/>
    </contour>
  </outline>
</glyph>
<glyph name="periodcentered" format="2">
  <advance width="1300"/>
  <unicode hex="00B7"/>
  <outline>
    <contour>
      <point x="307" y="650" type="qcurve"/>
      <point x="313" y="684"/>
      <point x="349" y="744"/>
      <point x="402" y="789"/>
      <point x="466" y="815"/>
      <point x="500" y="815" type="qcurve" name="av01"/>
      <point x="534" y="815"/>
      <point x="589" y="789"/>
      <point x="626" y="744"/>
      <point x="642" y="684"/>
      <point x="636" y="650" type="qcurve"/>
      <point x="630" y="616"/>
      <point x="593" y="555"/>
      <point x="541" y="510"/>
      <point x="477" y="483"/>
      <point x="443" y="483" type="qcurve" name="av02"/>
      <point x="409" y="483"/>
      <point x="353" y="510"/>
      <point x="316" y="555"/>
      <point x="301" y="616"/>
    </contour>
  </outline>
</glyph>
<glyph name="guillemotright" format="2">
  <advance width="1300"/>
  <unicode hex="00BB"/>
  <outline>
    <contour>
      <point x="708" y="617" type="line"/>
      <point x="684" y="478" type="line"/>
      <point x="143" y="66" type="line" name="av01"/>
      <point x="113" y="201" type="line"/>
      <point x="492" y="490" type="line"/>
      <point x="639" y="550" type="line" name="iv01"/>
      <point x="512" y="610" type="line"/>
      <point x="238" y="901" type="line"/>
      <point x="310" y="1026" type="line" name="at01"/>
    </contour>
    <contour>
      <point x="1208" y="617" type="line"/>
      <point x="1184" y="478" type="line"/>
      <point x="643" y="66" type="line" name="av02"/>
      <point x="613" y="201" type="line"/>
      <point x="992" y="490" type="line"/>
      <point x="1139" y="550" type="line" name="iv02"/>
      <point x="1012" y="610" type="line"/>
      <point x="738" y="901" type="line"/>
      <point x="810" y="1026" type="line" name="at02"/>
    </contour>
  </outline>
</glyph>
<glyph name="Aacute" format="2">
  <advance width="1300"/>
  <unicode hex="00C1"/>
  <outline>
    <contour>
      <point x="18" y="0" type="line" name="ab01"/>
      <point x="719" y="1300" type="line"/>
      <point x="789" y="1500" type="line"/>
      <point x="971" y="1520" type="line" name="at01"/>
      <point x="1250" y="0" type="line" name="sv01"/>
      <point x="1050" y="0" type="line"/>
      <point x="982" y="450" type="line" name="sv02"/>
      <point x="447" y="450" type="line" name="av01"/>
      <point x="201" y="0" type="line"/>
    </contour>
    <contour>
      <point x="877" y="1400" type="line"/>
      <point x="776" y="1080" type="line"/>
      <point x="522" y="600" type="line"/>
      <point x="959" y="600" type="line"/>
      <point x="866" y="1080" type="line"/>
    </contour>
    <contour>
      <point x="1048" y="1900" type="line" name="at02"/>
      <point x="1282" y="1920" type="line"/>
      <point x="985" y="1600" type="line"/>
      <point x="835" y="1600" type="line" name="av02"/>
    </contour>
  </outline>
</glyph>
<glyph name="Atilde" format="2">
  <advance width="1300"/>
  <unicode hex="00C3"/>
  <outline>
    <contour>
      <point x="18" y="0" type="line" name="ab01"/>
      <point x="719" y="1300" type="line"/>
      <point x="789" y="1500" type="line"/>
      <point x="971" y="1520" type="line" name="at01"/>
      <point x="1250" y="0" type="line" name="sv01"/>
      <point x="1050" y="0" type="line"/>
      <point x="982" y="450" type="line" name="sv02"/>
      <point x="447" y="450" type="line" name="av01"/>
      <point x="201" y="0" type="line"/>
    </contour>
    <contour>
      <point x="877" y="1400" type="line"/>
      <point x="776" y="1080" type="line"/>
      <point x="522" y="600" type="line"/>
      <point x="959" y="600" type="line"/>
      <point x="866" y="1080" type="line"/>
    </contour>
    <contour>
      <point x="566" y="1616" type="line"/>
      <point x="578" y="1671"/>
      <point x="626" y="1753"/>
      <point x="686" y="1806"/>
      <point x="753" y="1829"/>
      <point x="785" y="1825" type="qcurve"/>
      <point x="824" y="1819"/>
      <point x="886" y="1790"/>
      <point x="943" y="1759"/>
      <point x="998" y="1735"/>
      <point x="1029" y="1735" type="qcurve"/>
      <point x="1057" y="1735"/>
      <point x="1096" y="1756"/>
      <point x="1122" y="1788"/>
      <point x="1136" y="1825"/>
      <point x="1140" y="1842" type="qcurve"/>
      <point x="1235" y="1839" type="line"/>
      <point x="1229" y="1791"/>
      <point x="1183" y="1702"/>
      <point x="1118" y="1638"/>
      <point x="1039" y="1605"/>
      <point x="1000" y="1612" type="qcurve"/>
      <point x="972" y="1617"/>
      <point x="916" y="1650"/>
      <point x="857" y="1684"/>
      <point x="793" y="1706"/>
      <point x="757" y="1701" type="qcurve"/>
      <point x="719" y="1696"/>
      <point x="666" y="1658"/>
      <point x="651" y="1613" type="qcurve"/>
    </contour>
  </outline>
</glyph>
<glyph name="AE" format="2">
  <advance width="1300"/>
  <unicode hex="00C6"/>
  <guideline x="707" y="0" angle="80"/>
  <outline>
    <contour>
      <point x="1300" y="160" type="line"/>
      <point x="1252" y="0" type="line" name="sv01"/>
      <point x="546" y="0" type="line"/>
      <point x="598" y="200" type="line"/>
      <point x="642" y="450" type="line"/>
      <point x="347" y="450" type="line"/>
      <point x="113" y="0" type="line"/>
      <point x="-103" y="0" type="line" name="ab01"/>
      <point x="575" y="1300" type="line"/>
      <point x="655" y="1500" type="line" name="at01"/>
      <point x="1400" y="1500" type="line" name="sv02"/>
      <point x="1372" y="1340" type="line"/>
      <point x="986" y="1340" type="line"/>
      <point x="974" y="1149" type="line"/>
      <point x="927" y="885" type="line" name="av02"/>
      <point x="1252" y="885" type="line" name="sv03"/>
      <point x="1227" y="740" type="line"/>
      <point x="902" y="740" type="line"/>
      <point x="831" y="340" type="line"/>
      <point x="789" y="160" type="line"/>
    </contour>
    <contour>
      <point x="669" y="600" type="line" name="sv04"/>
      <point x="757" y="1106" type="line"/>
      <point x="758" y="1340" type="line"/>
      <point x="662" y="1099" type="line"/>
      <point x="415" y="600" type="line" name="av01"/>
    </contour>
  </outline>
</glyph>
<glyph name="Egrave" format="2">
  <advance width="1300"/>
  <unicode hex="00C8"/>
  <outline>
    <contour>
      <point x="1040" y="160" type="line"/>
      <point x="992" y="0" type="line" name="sv01"/>
      <point x="72" y="0" type="line" name="ab01"/>
      <point x="123" y="200" type="line"/>
      <point x="315" y="1290" type="line"/>
      <point x="322" y="1500" type="line" name="at01"/>
      <point x="1242" y="1500" type="line" name="sv02"/>
      <point x="1214" y="1340" type="line"/>
      <point x="489" y="1340" type="line"/>
      <point x="475" y="1150" type="line"/>
      <point x="428" y="885" type="line"/>
      <point x="1063" y="885" type="line"/>
      <point x="1038" y="740" type="line" name="sv03"/>
      <point x="403" y="740" type="line" name="av01"/>
      <point x="332" y="340" type="line"/>
      <point x="290" y="160" type="line"/>
    </contour>
    <contour>
      <point x="971" y="1600" type="line" name="ah01"/>
      <point x="821" y="1600" type="line" name="sh01"/>
      <point x="649" y="1900" type="line"/>
      <point x="857" y="1920" type="line" name="at02"/>
    </contour>
  </outline>
</glyph>
<glyph name="Ecircumflex" format="2">
  <advance width="1300"/>
  <unicode hex="00CA"/>
  <outline>
    <contour>
      <point x="1040" y="160" type="line"/>
      <point x="992" y="0" type="line" name="sv01"/>
      <point x="72" y="0" type="line" name="ab01"/>
      <point x="123" y="200" type="line"/>
      <point x="315" y="1290" type="line"/>
      <point x="322" y="1500" type="line" name="at01"/>
      <point x="1242" y="1500" type="line" name="sv02"/>
      <point x="1214" y="1340" type="line"/>
      <point x="489" y="1340" type="line"/>
      <point x="475" y="1150" type="line"/>
      <point x="428" y="885" type="line"/>
      <point x="1063" y="885" type="line"/>
      <point x="1038" y="740" type="line" name="sv03"/>
      <point x="403" y="740" type="line" name="av01"/>
      <point x="332" y="340" type="line"/>
      <point x="290" y="160" type="line"/>
    </contour>
    <contour>
      <point x="1045" y="1620" type="line" name="sv04"/>
      <point x="895" y="1620" type="line"/>
      <point x="821" y="1772" type="line"/>
      <point x="807" y="1860" type="line"/>
      <point x="762" y="1773" type="line"/>
      <point x="634" y="1620" type="line"/>
      <point x="484" y="1620" type="line" name="av02"/>
      <point x="709" y="1900" type="line"/>
      <point x="913" y="1920" type="line"/>
    </contour>
  </outline>
</glyph>
<glyph name="Igrave" format="2">
  <advance width="1300"/>
  <unicode hex="00CC"/>
  <outline>
    <contour>
      <point x="338" y="1500" type="line" name="at01"/>
      <point x="1238" y="1500" type="line" name="sv01"/>
      <point x="1210" y="1340" type="line"/>
      <point x="852" y="1340" type="line"/>
      <point x="643" y="160" type="line"/>
      <point x="1021" y="160" type="line"/>
      <point x="973" y="0" type="line" name="sv02"/>
      <point x="73" y="0" type="line" name="ab01"/>
      <point x="101" y="160" type="line"/>
      <point x="457" y="160" type="line"/>
      <point x="666" y="1340" type="line"/>
      <point x="290" y="1340" type="line"/>
    </contour>
    <contour>
      <point x="929" y="1600" type="line" name="ah01"/>
      <point x="779" y="1600" type="line" name="sh01"/>
      <point x="607" y="1900" type="line"/>
      <point x="815" y="1920" type="line" name="at02"/>
    </contour>
  </outline>
</glyph>
<glyph name="Iacute" format="2">
  <advance width="1300"/>
  <unicode hex="00CD"/>
  <outline>
    <contour>
      <point x="338" y="1500" type="line" name="at01"/>
      <point x="1238" y="1500" type="line" name="sv01"/>
      <point x="1210" y="1340" type="line"/>
      <point x="852" y="1340" type="line"/>
      <point x="643" y="160" type="line"/>
      <point x="1021" y="160" type="line"/>
      <point x="973" y="0" type="line" name="sv02"/>
      <point x="73" y="0" type="line" name="ab01"/>
      <point x="101" y="160" type="line"/>
      <point x="457" y="160" type="line"/>
      <point x="666" y="1340" type="line"/>
      <point x="290" y="1340" type="line"/>
    </contour>
    <contour>
      <point x="894" y="1900" type="line" name="at02"/>
      <point x="1128" y="1920" type="line"/>
      <point x="831" y="1600" type="line"/>
      <point x="681" y="1600" type="line" name="av01"/>
    </contour>
  </outline>
</glyph>
<glyph name="Icircumflex" format="2">
  <advance width="1300"/>
  <unicode hex="00CE"/>
  <outline>
    <contour>
      <point x="338" y="1500" type="line" name="at01"/>
      <point x="1238" y="1500" type="line" name="sv01"/>
      <point x="1210" y="1340" type="line"/>
      <point x="852" y="1340" type="line"/>
      <point x="643" y="160" type="line"/>
      <point x="1021" y="160" type="line"/>
      <point x="973" y="0" type="line" name="sv02"/>
      <point x="73" y="0" type="line" name="ab01"/>
      <point x="101" y="160" type="line"/>
      <point x="457" y="160" type="line"/>
      <point x="666" y="1340" type="line"/>
      <point x="290" y="1340" type="line"/>
    </contour>
    <contour>
      <point x="1142" y="1620" type="line" name="sv03"/>
      <point x="992" y="1620" type="line"/>
      <point x="918" y="1772" type="line"/>
      <point x="904" y="1860" type="line"/>
      <point x="859" y="1773" type="line"/>
      <point x="731" y="1620" type="line"/>
      <point x="581" y="1620" type="line" name="av01"/>
      <point x="806" y="1900" type="line"/>
      <point x="1010" y="1920" type="line"/>
    </contour>
  </outline>
</glyph>
<glyph name="Idieresis" format="2">
  <advance width="1300"/>
  <unicode hex="00CF"/>
  <outline>
    <contour>
      <point x="338" y="1500" type="line" name="at01"/>
      <point x="1238" y="1500" type="line" name="sv01"/>
      <point x="1210" y="1340" type="line"/>
      <point x="852" y="1340" type="line"/>
      <point x="643" y="160" type="line"/>
      <point x="1021" y="160" type="line"/>
      <point x="973" y="0" type="line" name="sv02"/>
      <point x="73" y="0" type="line" name="ab01"/>
      <point x="101" y="160" type="line"/>
      <point x="457" y="160" type="line"/>
      <point x="666" y="1340" type="line"/>
      <point x="290" y="1340" type="line"/>
    </contour>
    <contour>
      <point x="580" y="1900" type="line"/>
      <point x="780" y="1900" type="line"/>
      <point x="745" y="1700" type="line"/>
      <point x="545" y="1700" type="line"/>
    </contour>
    <contour>
      <point x="980" y="1900" type="line"/>
      <point x="1180" y="1900" type="line"/>
      <point x="1145" y="1700" type="line"/>
      <point x="945" y="1700" type="line"/>
    </contour>
  </outline>
</glyph>
<glyph name="Ograve" format="2">
  <advance width="1300"/>
  <unicode hex="00D2"/>
  <outline>
    <contour>
      <point x="488" y="-17" type="qcurve" name="ab01"/>
      <point x="398" y="-17"/>
      <point x="256" y="38"/>
      <point x="152" y="139"/>
      <point x="84" y="279"/>
      <point x="52" y="450"/>
      <point x="55" y="645"/>
      <point x="74" y="750" type="qcurve"/>
      <point x="92" y="855"/>
      <point x="157" y="1050"/>
      <point x="248" y="1221"/>
      <point x="363" y="1361"/>
      <point x="503" y="1462"/>
      <point x="667" y="1517"/>
      <point x="759" y="1517" type="qcurve" name="at01"/>
      <point x="849" y="1517"/>
      <point x="991" y="1462"/>
      <point x="1095" y="1361"/>
      <point x="1163" y="1221"/>
      <point x="1195" y="1050"/>
      <point x="1192" y="855"/>
      <point x="1174" y="750" type="qcurve"/>
      <point x="1155" y="645"/>
      <point x="1090" y="450"/>
      <point x="1000" y="279"/>
      <point x="884" y="139"/>
      <point x="744" y="38"/>
      <point x="580" y="-17"/>
    </contour>
    <contour>
      <point x="960" y="719" type="qcurve"/>
      <point x="972" y="789"/>
      <point x="989" y="935"/>
      <point x="987" y="1074"/>
      <point x="960" y="1197"/>
      <point x="899" y="1288"/>
      <point x="798" y="1342"/>
      <point x="722" y="1342" type="qcurve"/>
      <point x="650" y="1342"/>
      <point x="536" y="1294"/>
      <point x="446" y="1211"/>
      <point x="380" y="1100"/>
      <point x="331" y="976"/>
      <point x="299" y="846"/>
      <point x="288" y="785" type="qcurve"/>
      <point x="275" y="714"/>
      <point x="259" y="566"/>
      <point x="261" y="427"/>
      <point x="287" y="304"/>
      <point x="348" y="212"/>
      <point x="449" y="158"/>
      <point x="525" y="158" type="qcurve"/>
      <point x="596" y="158"/>
      <point x="710" y="207"/>
      <point x="800" y="292"/>
      <point x="867" y="403"/>
      <point x="916" y="528"/>
      <point x="949" y="658"/>
    </contour>
    <contour>
      <point x="1022" y="1600" type="line" name="ah01"/>
      <point x="872" y="1600" type="line" name="sh01"/>
      <point x="700" y="1900" type="line"/>
      <point x="908" y="1920" type="line" name="at02"/>
    </contour>
  </outline>
</glyph>
<glyph name="multiply" format="2">
  <advance width="1300"/>
  <unicode hex="00D7"/>
  <outline>
    <contour>
      <point x="760" y="627" type="line"/>
      <point x="1110" y="203" type="line"/>
      <point x="968" y="102" type="line" name="ih03"/>
      <point x="659" y="477" type="line"/>
      <point x="660" y="477" type="line"/>
      <point x="619" y="576" type="line" name="ih01"/>
      <point x="584" y="477" type="line"/>
      <point x="142" y="102" type="line" name="ih02"/>
      <point x="35" y="203" type="line"/>
      <point x="536" y="627" type="line"/>
      <point x="185" y="1052" type="line"/>
      <point x="328" y="1153" type="line" name="ih05"/>
      <point x="637" y="777" type="line"/>
      <point x="677" y="679" type="line" name="ih04"/>
      <point x="713" y="777" type="line"/>
      <point x="1154" y="1153" type="line" name="ih06"/>
      <point x="1260" y="1052" type="line"/>
    </contour>
  </outline>
</glyph>
<glyph name="Ugrave" format="2">
  <advance width="1300"/>
  <unicode hex="00D9"/>
  <outline>
    <contour>
      <point x="1226" y="1500" type="line" name="sv01"/>
      <point x="1054" y="523" type="line"/>
      <point x="1030" y="387"/>
      <point x="930" y="184"/>
      <point x="783" y="50"/>
      <point x="593" y="-17"/>
      <point x="479" y="-17" type="qcurve" name="ab01"/>
      <point x="357" y="-17"/>
      <point x="202" y="68"/>
      <point x="121" y="223"/>
      <point x="110" y="441"/>
      <point x="133" y="573" type="qcurve"/>
      <point x="259" y="1290" type="line"/>
      <point x="266" y="1500" type="line" name="at01"/>
      <point x="490" y="1520" type="line" name="at02"/>
      <point x="320" y="554" type="line"/>
      <point x="303" y="459"/>
      <point x="314" y="310"/>
      <point x="366" y="207"/>
      <point x="456" y="153"/>
      <point x="519" y="153" type="qcurve"/>
      <point x="666" y="153"/>
      <point x="830" y="328"/>
      <point x="861" y="504" type="qcurve"/>
      <point x="1036" y="1500" type="line"/>
    </contour>
    <contour>
      <point x="955" y="1600" type="line" name="ah01"/>
      <point x="805" y="1600" type="line" name="sh01"/>
      <point x="633" y="1900" type="line"/>
      <point x="841" y="1920" type="line" name="at03"/>
    </contour>
  </outline>
</glyph>
<glyph name="Ucircumflex" format="2">
  <advance width="1300"/>
  <unicode hex="00DB"/>
  <outline>
    <contour>
      <point x="1226" y="1500" type="line" name="sv01"/>
      <point x="1054" y="523" type="line"/>
      <point x="1030" y="387"/>
      <point x="930" y="184"/>
      <point x="783" y="50"/>
      <point x="593" y="-17"/>
      <point x="479" y="-17" type="qcurve" name="ab01"/>
      <point x="357" y="-17"/>
      <point x="202" y="68"/>
      <point x="121" y="223"/>
      <point x="110" y="441"/>
      <point x="133" y="573" type="qcurve"/>
      <point x="259" y="1290" type="line"/>
      <point x="266" y="1500" type="line" name="at01"/>
      <point x="490" y="1520" type="line" name="at02"/>
      <point x="320" y="554" type="line"/>
      <point x="303" y="459"/>
      <point x="314" y="310"/>
      <point x="366" y="207"/>
      <point x="456" y="153"/>
      <point x="519" y="153" type="qcurve"/>
      <point x="666" y="153"/>
      <point x="830" y="328"/>
      <point x="861" y="504" type="qcurve"/>
      <point x="1036" y="1500" type="line"/>
    </contour>
    <contour>
      <point x="1046" y="1620" type="line" name="sv02"/>
      <point x="896" y="1620" type="line"/>
      <point x="822" y="1772" type="line"/>
      <point x="808" y="1860" type="line"/>
      <point x="763" y="1773" type="line"/>
      <point x="635" y="1620" type="line"/>
      <point x="485" y="1620" type="line" name="av01"/>
      <point x="710" y="1900" type="line"/>
      <point x="914" y="1920" type="line"/>
    </contour>
  </outline>
</glyph>
<glyph name="Yacute" format="2">
  <advance width="1300"/>
  <unicode hex="00DD"/>
  <outline>
    <contour>
      <point x="588" y="935" type="line"/>
      <point x="976" y="1500" type="line"/>
      <point x="1168" y="1500" type="line" name="sv01"/>
      <point x="582" y="646" type="line"/>
      <point x="469" y="0" type="line" name="sv02"/>
      <point x="269" y="0" type="line" name="ab01"/>
      <point x="382" y="645" type="line"/>
      <point x="97" y="1500" type="line" name="at01"/>
      <point x="305" y="1520" type="line" name="at02"/>
      <point x="483" y="954" type="line"/>
      <point x="518" y="705" type="line"/>
    </contour>
    <contour>
      <point x="731" y="1900" type="line" name="at03"/>
      <point x="965" y="1920" type="line"/>
      <point x="668" y="1600" type="line"/>
      <point x="518" y="1600" type="line" name="av01"/>
    </contour>
  </outline>
</glyph>
<glyph name="Thorn" format="2">
  <advance width="1300"/>
  <unicode hex="00DE"/>
  <outline>
    <contour>
      <point x="344" y="1500" type="line" name="at01"/>
      <point x="564" y="1500" type="line" name="sv01"/>
      <point x="529" y="1301" type="line" name="av01"/>
      <point x="729" y="1301" type="line" name="sv02"/>
      <point x="754" y="1301"/>
      <point x="831" y="1286"/>
      <point x="917" y="1250"/>
      <point x="1002" y="1189"/>
      <point x="1068" y="1097"/>
      <point x="1108" y="972"/>
      <point x="1106" y="889" type="qcurve" name="sv03"/>
      <point x="1105" y="855"/>
      <point x="1094" y="772"/>
      <point x="1068" y="685"/>
      <point x="1025" y="598"/>
      <point x="960" y="520"/>
      <point x="869" y="456"/>
      <point x="808" y="435" type="qcurve"/>
      <point x="752" y="415"/>
      <point x="623" y="401"/>
      <point x="530" y="401" type="qcurve"/>
      <point x="370" y="401" type="line"/>
      <point x="300" y="0" type="line" name="sv04"/>
      <point x="100" y="0" type="line" name="ab01"/>
      <point x="329" y="1299" type="line"/>
    </contour>
    <contour>
      <point x="502" y="1151" type="line"/>
      <point x="398" y="557" type="line" name="av02"/>
      <point x="587" y="557" type="line" name="sv05"/>
      <point x="668" y="557"/>
      <point x="794" y="605"/>
      <point x="881" y="692"/>
      <point x="926" y="815"/>
      <point x="926" y="889" type="qcurve" name="av03"/>
      <point x="926" y="934"/>
      <point x="896" y="1028"/>
      <point x="834" y="1103"/>
      <point x="737" y="1151"/>
      <point x="671" y="1151" type="qcurve"/>
    </contour>
  </outline>
</glyph>
<glyph name="agrave" format="2">
  <advance width="1300"/>
  <unicode hex="00E0"/>
  <outline>
    <contour>
      <point x="927" y="930" type="line"/>
      <point x="909" y="938"/>
      <point x="858" y="950"/>
      <point x="835" y="953" type="qcurve"/>
      <point x="808" y="957"/>
      <point x="779" y="958" type="qcurve"/>
      <point x="677" y="958"/>
      <point x="525" y="888"/>
      <point x="419" y="766"/>
      <point x="357" y="604"/>
      <point x="346" y="512" type="qcurve"/>
      <point x="340" y="462"/>
      <point x="340" y="421" type="qcurve"/>
      <point x="340" y="352"/>
      <point x="368" y="248"/>
      <point x="418" y="179"/>
      <point x="484" y="144"/>
      <point x="523" y="144" type="qcurve"/>
      <point x="575" y="144"/>
      <point x="663" y="172"/>
      <point x="736" y="218"/>
      <point x="797" y="276"/>
      <point x="821" y="306" type="qcurve"/>
    </contour>
    <contour>
      <point x="768" y="0" type="line" name="ab02"/>
      <point x="796" y="162" type="line"/>
      <point x="681" y="49" type="line"/>
      <point x="660" y="32"/>
      <point x="619" y="7"/>
      <point x="570" y="-9"/>
      <point x="506" y="-17"/>
      <point x="462" y="-17" type="qcurve" name="ab01"/>
      <point x="391" y="-17"/>
      <point x="279" y="47"/>
      <point x="201" y="162"/>
      <point x="160" y="322"/>
      <point x="160" y="419" type="qcurve"/>
      <point x="160" y="447"/>
      <point x="163" y="506"/>
      <point x="167" y="536" type="qcurve"/>
      <point x="180" y="647"/>
      <point x="270" y="856"/>
      <point x="427" y="1018"/>
      <point x="652" y="1117"/>
      <point x="800" y="1117" type="qcurve" name="av01"/>
      <point x="884" y="1117"/>
      <point x="1056" y="1089"/>
      <point x="1133" y="1063" type="qcurve"/>
      <point x="981" y="180" type="line"/>
      <point x="970" y="0" type="line" name="sv01"/>
    </contour>
    <contour>
      <point x="1010" y="1200" type="line" name="ah01"/>
      <point x="860" y="1200" type="line" name="sh01"/>
      <point x="688" y="1500" type="line"/>
      <point x="896" y="1520" type="line" name="at01"/>
    </contour>
  </outline>
</glyph>
<glyph name="ccedilla" format="2">
  <advance width="1300"/>
  <unicode hex="00E7"/>
  <outline>
    <contour>
      <point x="1043" y="885" type="line" name="mv01"/>
      <point x="1006" y="917"/>
      <point x="879" y="957"/>
      <point x="774" y="957" type="qcurve"/>
      <point x="690" y="957"/>
      <point x="546" y="894"/>
      <point x="434" y="786"/>
      <point x="360" y="643"/>
      <point x="346" y="564" type="qcurve"/>
      <point x="337" y="516"/>
      <point x="337" y="469" type="qcurve"/>
      <point x="337" y="403"/>
      <point x="374" y="287"/>
      <point x="449" y="201"/>
      <point x="565" y="152"/>
      <point x="643" y="152" type="qcurve"/>
      <point x="685" y="152"/>
      <point x="777" y="178" name="mh01"/>
      <point x="862" y="212"/>
      <point x="929" y="248"/>
      <point x="946" y="258" type="qcurve" name="mh02"/>
      <point x="999" y="115" type="line"/>
      <point x="969" y="93"/>
      <point x="882" y="47"/>
      <point x="777" y="8"/>
      <point x="660" y="-17"/>
      <point x="600" y="-17" type="qcurve" name="ab01"/>
      <point x="490" y="-17"/>
      <point x="320" y="60"/>
      <point x="204" y="191"/>
      <point x="143" y="366"/>
      <point x="143" y="464" type="qcurve"/>
      <point x="143" y="492"/>
      <point x="148" y="548"/>
      <point x="153" y="577" type="qcurve"/>
      <point x="171" y="681"/>
      <point x="282" y="876"/>
      <point x="453" y="1026"/>
      <point x="675" y="1117"/>
      <point x="804" y="1117" type="qcurve" name="av01"/>
      <point x="926" y="1117"/>
      <point x="1099" y="1060"/>
      <point x="1162" y="1000" type="qcurve"/>
    </contour>
    <contour>
      <point x="664" y="0" type="line" name="sv01"/>
      <point x="682" y="-27"/>
      <point x="694" y="-59" type="qcurve" name="mh03"/>
      <point x="705" y="-86"/>
      <point x="717" y="-158"/>
      <point x="712" y="-198" type="qcurve" name="mh04"/>
      <point x="705" y="-248"/>
      <point x="659" y="-326"/>
      <point x="590" y="-379"/>
      <point x="501" y="-407"/>
      <point x="451" y="-407" type="qcurve" name="sv02"/>
      <point x="409" y="-407"/>
      <point x="322" y="-380"/>
      <point x="286" y="-363" type="qcurve"/>
      <point x="244" y="-344"/>
      <point x="205" y="-318" type="qcurve" name="mh05"/>
      <point x="294" y="-218" type="line" name="mh06"/>
      <point x="317" y="-235"/>
      <point x="343" y="-248" type="qcurve"/>
      <point x="365" y="-259"/>
      <point x="420" y="-279"/>
      <point x="449" y="-279" type="qcurve" name="av02"/>
      <point x="492" y="-280"/>
      <point x="552" y="-238"/>
      <point x="560" y="-189" type="qcurve"/>
      <point x="565" y="-156"/>
      <point x="545" y="-88"/>
      <point x="530" y="-61" type="qcurve"/>
      <point x="512" y="-29"/>
      <point x="488" y="0" type="qcurve" name="ab02"/>
    </contour>
  </outline>
</glyph>
<glyph name="oacute" format="2">
  <advance width="1300"/>
  <unicode hex="00F3"/>
  <outline>
    <contour>
      <point x="567" y="-17" type="qcurve" name="ab01"/>
      <point x="468" y="-17"/>
      <point x="305" y="53"/>
      <point x="188" y="181"/>
      <point x="124" y="362"/>
      <point x="124" y="473" type="qcurve"/>
      <point x="124" y="616"/>
      <point x="213" y="853"/>
      <point x="372" y="1023"/>
      <point x="593" y="1117"/>
      <point x="726" y="1117" type="qcurve" name="av01"/>
      <point x="828" y="1117"/>
      <point x="994" y="1051"/>
      <point x="1112" y="926"/>
      <point x="1176" y="745"/>
      <point x="1176" y="631" type="qcurve"/>
      <point x="1176" y="482"/>
      <point x="1091" y="242"/>
      <point x="933" y="74"/>
      <point x="708" y="-17"/>
    </contour>
    <contour>
      <point x="993" y="622" type="qcurve"/>
      <point x="993" y="697"/>
      <point x="957" y="822"/>
      <point x="885" y="913"/>
      <point x="778" y="963"/>
      <point x="706" y="963" type="qcurve"/>
      <point x="641" y="963"/>
      <point x="531" y="924"/>
      <point x="443" y="856"/>
      <point x="375" y="763"/>
      <point x="330" y="656"/>
      <point x="307" y="538"/>
      <point x="307" y="480" type="qcurve"/>
      <point x="307" y="405"/>
      <point x="341" y="279"/>
      <point x="410" y="188"/>
      <point x="515" y="138"/>
      <point x="586" y="138" type="qcurve"/>
      <point x="650" y="138"/>
      <point x="760" y="177"/>
      <point x="850" y="246"/>
      <point x="920" y="339"/>
      <point x="968" y="447"/>
      <point x="993" y="564"/>
    </contour>
    <contour>
      <point x="848" y="1500" type="line" name="at01"/>
      <point x="1082" y="1520" type="line"/>
      <point x="785" y="1200" type="line"/>
      <point x="635" y="1200" type="line" name="av02"/>
    </contour>
  </outline>
</glyph>
<glyph name="divide" format="2">
  <advance width="1300"/>
  <unicode hex="00F7"/>
  <guideline x="555" y="0" angle="80"/>
  <outline>
    <contour>
      <point x="200" y="700" type="line" name="hr00"/>
      <point x="1100" y="700" type="line"/>
      <point x="1100" y="545" type="line"/>
      <point x="200" y="545" type="line"/>
    </contour>
    <contour>
      <point x="471" y="346" type="qcurve"/>
      <point x="477" y="377"/>
      <point x="509" y="431"/>
      <point x="557" y="471"/>
      <point x="614" y="494"/>
      <point x="645" y="494" type="qcurve"/>
      <point x="676" y="494"/>
      <point x="725" y="471"/>
      <point x="758" y="431"/>
      <point x="773" y="377"/>
      <point x="767" y="346" type="qcurve"/>
      <point x="762" y="315"/>
      <point x="729" y="260"/>
      <point x="682" y="220"/>
      <point x="624" y="196"/>
      <point x="594" y="196" type="qcurve"/>
      <point x="563" y="196"/>
      <point x="513" y="220"/>
      <point x="479" y="260"/>
      <point x="466" y="315"/>
    </contour>
    <contour>
      <point x="585" y="961" type="qcurve"/>
      <point x="591" y="992"/>
      <point x="623" y="1046"/>
      <point x="671" y="1086"/>
      <point x="728" y="1109"/>
      <point x="759" y="1109" type="qcurve"/>
      <point x="790" y="1109"/>
      <point x="839" y="1086"/>
      <point x="872" y="1046"/>
      <point x="887" y="992"/>
      <point x="881" y="961" type="qcurve"/>
      <point x="876" y="930"/>
      <point x="843" y="875"/>
      <point x="796" y="835"/>
      <point x="738" y="811"/>
      <point x="708" y="811" type="qcurve"/>
      <point x="677" y="811"/>
      <point x="627" y="835"/>
      <point x="593" y="875"/>
      <point x="580" y="930"/>
    </contour>
  </outline>
</glyph>
<glyph name="ucircumflex" format="2">
  <advance width="1300"/>
  <unicode hex="00FB"/>
  <outline>
    <contour>
      <point x="967" y="1100" type="line"/>
      <point x="1161" y="1121" type="line" name="av02"/>
      <point x="963" y="0" type="line" name="sv01"/>
      <point x="773" y="0" type="line" name="ab02"/>
      <point x="802" y="163" type="line"/>
      <point x="722" y="56" type="line"/>
      <point x="698" y="42"/>
      <point x="652" y="16"/>
      <point x="589" y="-4"/>
      <point x="496" y="-17"/>
      <point x="425" y="-17" type="qcurve" name="ab01"/>
      <point x="356" y="-17"/>
      <point x="244" y="35"/>
      <point x="165" y="126"/>
      <point x="122" y="248"/>
      <point x="122" y="318" type="qcurve"/>
      <point x="122" y="338"/>
      <point x="125" y="380"/>
      <point x="129" y="401" type="qcurve"/>
      <point x="257" y="1100" type="line"/>
      <point x="451" y="1121" type="line" name="av01"/>
      <point x="319" y="401" type="line"/>
      <point x="315" y="381"/>
      <point x="312" y="344"/>
      <point x="312" y="326" type="qcurve"/>
      <point x="312" y="286"/>
      <point x="332" y="219"/>
      <point x="377" y="170"/>
      <point x="448" y="143"/>
      <point x="498" y="143" type="qcurve"/>
      <point x="564" y="143"/>
      <point x="661" y="163"/>
      <point x="735" y="196"/>
      <point x="792" y="237"/>
      <point x="819" y="258" type="qcurve"/>
    </contour>
    <contour>
      <point x="1008" y="1220" type="line" name="sv02"/>
      <point x="858" y="1220" type="line"/>
      <point x="784" y="1372" type="line"/>
      <point x="770" y="1460" type="line"/>
      <point x="725" y="1373" type="line"/>
      <point x="597" y="1220" type="line"/>
      <point x="447" y="1220" type="line" name="av03"/>
      <point x="672" y="1500" type="line"/>
      <point x="876" y="1520" type="line"/>
    </contour>
  </outline>
</glyph>
<glyph name="udieresis" format="2">
  <advance width="1300"/>
  <unicode hex="00FC"/>
  <outline>
    <contour>
      <point x="967" y="1100" type="line"/>
      <point x="1161" y="1121" type="line" name="av02"/>
      <point x="963" y="0" type="line" name="sv01"/>
      <point x="773" y="0" type="line" name="ab02"/>
      <point x="802" y="163" type="line"/>
      <point x="722" y="56" type="line"/>
      <point x="698" y="42"/>
      <point x="652" y="16"/>
      <point x="589" y="-4"/>
      <point x="496" y="-17"/>
      <point x="425" y="-17" type="qcurve" name="ab01"/>
      <point x="356" y="-17"/>
      <point x="244" y="35"/>
      <point x="165" y="126"/>
      <point x="122" y="248"/>
      <point x="122" y="318" type="qcurve"/>
      <point x="122" y="338"/>
      <point x="125" y="380"/>
      <point x="129" y="401" type="qcurve"/>
      <point x="257" y="1100" type="line"/>
      <point x="451" y="1121" type="line" name="av01"/>
      <point x="319" y="401" type="line"/>
      <point x="315" y="381"/>
      <point x="312" y="344"/>
      <point x="312" y="326" type="qcurve"/>
      <point x="312" y="286"/>
      <point x="332" y="219"/>
      <point x="377" y="170"/>
      <point x="448" y="143"/>
      <point x="498" y="143" type="qcurve"/>
      <point x="564" y="143"/>
      <point x="661" y="163"/>
      <point x="735" y="196"/>
      <point x="792" y="237"/>
      <point x="819" y="258" type="qcurve"/>
    </contour>
    <contour>
      <point x="518" y="1500" type="line"/>
      <point x="718" y="1500" type="line"/>
      <point x="683" y="1300" type="line"/>
      <point x="483" y="1300" type="line"/>
    </contour>
    <contour>
      <point x="918" y="1500" type="line"/>
      <point x="1118" y="1500" type="line"/>
      <point x="1083" y="1300" type="line"/>
      <point x="883" y="1300" type="line"/>
    </contour>
  </outline>
</glyph>
<glyph name="yacute" format="2">
  <advance width="1300"/>
  <unicode hex="00FD"/>
  <outline>
    <contour>
      <point x="666" y="364" type="line"/>
      <point x="1064" y="1100" type="line" name="sv01"/>
      <point x="1257" y="1121" type="line" name="av02"/>
      <point x="644" y="-17" type="line"/>
      <point x="580" y="-136"/>
      <point x="479" y="-310"/>
      <point x="381" y="-424"/>
      <point x="274" y="-480"/>
      <point x="204" y="-480" type="qcurve" name="av03"/>
      <point x="200" y="-480" type="line"/>
      <point x="135" y="-480"/>
      <point x="43" y="-439"/>
      <point x="8" y="-403" type="qcurve"/>
      <point x="100" y="-296" type="line"/>
      <point x="114" y="-308"/>
      <point x="168" y="-327"/>
      <point x="192" y="-328" type="qcurve"/>
      <point x="196" y="-328" type="line"/>
      <point x="232" y="-328"/>
      <point x="288" y="-300"/>
      <point x="346" y="-235"/>
      <point x="414" y="-127"/>
      <point x="462" y="-47" type="qcurve"/>
      <point x="247" y="1100" type="line" name="av04"/>
      <point x="420" y="1121" type="line" name="av01"/>
      <point x="431" y="1064"/>
      <point x="442" y="1002" type="qcurve"/>
      <point x="452" y="948"/>
      <point x="477" y="813"/>
      <point x="491" y="742" type="qcurve"/>
      <point x="522" y="576"/>
      <point x="562" y="364" type="qcurve"/>
      <point x="573" y="132" type="line"/>
    </contour>
    <contour>
      <point x="890" y="1500" type="line" name="at01"/>
      <point x="1124" y="1520" type="line"/>
      <point x="827" y="1200" type="line"/>
      <point x="677" y="1200" type="line" name="av05"/>
    </contour>
  </outline>
</glyph>
<glyph name="thorn" format="2">
  <advance width="1300"/>
  <unicode hex="00FE"/>
  <outline>
    <contour>
      <point x="657" y="-17" type="qcurve" name="ab01"/>
      <point x="558" y="-17"/>
      <point x="395" y="53"/>
      <point x="278" y="181"/>
      <point x="214" y="362"/>
      <point x="214" y="473" type="qcurve"/>
      <point x="214" y="616"/>
      <point x="303" y="853"/>
      <point x="462" y="1023"/>
      <point x="683" y="1117"/>
      <point x="816" y="1117" type="qcurve" name="av01"/>
      <point x="918" y="1117"/>
      <point x="1084" y="1051"/>
      <point x="1202" y="926"/>
      <point x="1266" y="745"/>
      <point x="1266" y="631" type="qcurve"/>
      <point x="1266" y="482"/>
      <point x="1181" y="242"/>
      <point x="1023" y="74"/>
      <point x="798" y="-17"/>
    </contour>
    <contour>
      <point x="1083" y="622" type="qcurve"/>
      <point x="1083" y="697"/>
      <point x="1047" y="822"/>
      <point x="975" y="913"/>
      <point x="868" y="963"/>
      <point x="796" y="963" type="qcurve"/>
      <point x="731" y="963"/>
      <point x="621" y="924"/>
      <point x="533" y="856"/>
      <point x="465" y="763"/>
      <point x="420" y="656"/>
      <point x="397" y="538"/>
      <point x="397" y="480" type="qcurve"/>
      <point x="397" y="405"/>
      <point x="431" y="279"/>
      <point x="500" y="188"/>
      <point x="605" y="138"/>
      <point x="676" y="138" type="qcurve"/>
      <point x="740" y="138"/>
      <point x="850" y="177"/>
      <point x="940" y="246"/>
      <point x="1010" y="339"/>
      <point x="1058" y="447"/>
      <point x="1083" y="564"/>
    </contour>
    <contour>
      <point x="568" y="1520" type="line" name="at01"/>
      <point x="229" y="-400" type="line" name="sv01"/>
      <point x="35" y="-400" type="line" name="av02"/>
      <point x="370" y="1500" type="line"/>
    </contour>
  </outline>
</glyph>
<glyph name="OE" format="2">
  <advance width="1300"/>
  <unicode hex="0152"/>
  <outline>
    <contour>
      <point x="419" y="-17" type="line" name="ab02"/>
      <point x="305" y="-17"/>
      <point x="127" y="68"/>
      <point x="20" y="252"/>
      <point x="-7" y="544"/>
      <point x="29" y="750" type="qcurve"/>
      <point x="65" y="956"/>
      <point x="195" y="1247"/>
      <point x="367" y="1432"/>
      <point x="576" y="1517"/>
      <point x="690" y="1517" type="qcurve" name="at02"/>
      <point x="804" y="1430" type="line"/>
      <point x="807" y="1500" type="line" name="at01"/>
      <point x="1432" y="1500" type="line" name="sv01"/>
      <point x="1404" y="1340" type="line"/>
      <point x="989" y="1340" type="line"/>
      <point x="975" y="1150" type="line"/>
      <point x="928" y="885" type="line" name="av01"/>
      <point x="1253" y="885" type="line" name="sv02"/>
      <point x="1228" y="740" type="line"/>
      <point x="903" y="740" type="line"/>
      <point x="832" y="340" type="line"/>
      <point x="790" y="160" type="line"/>
      <point x="1230" y="160" type="line"/>
      <point x="1182" y="0" type="line" name="sv03"/>
      <point x="542" y="0" type="line" name="ab01"/>
      <point x="565" y="70" type="line"/>
    </contour>
    <contour>
      <point x="792" y="1305" type="line"/>
      <point x="769" y="1325"/>
      <point x="696" y="1347"/>
      <point x="654" y="1347" type="qcurve"/>
      <point x="504" y="1347"/>
      <point x="291" y="1060"/>
      <point x="243" y="785" type="qcurve"/>
      <point x="214" y="622"/>
      <point x="214" y="384"/>
      <point x="268" y="228"/>
      <point x="376" y="153"/>
      <point x="455" y="153" type="qcurve"/>
      <point x="475" y="153"/>
      <point x="509" y="156"/>
      <point x="542" y="163"/>
      <point x="576" y="178"/>
      <point x="596" y="190" type="qcurve"/>
    </contour>
  </outline>
</glyph>
<glyph name="Scaron" format="2">
  <advance width="1300"/>
  <unicode hex="0160"/>
  <outline>
    <contour>
      <point x="1086" y="1252" type="line"/>
      <point x="1055" y="1277"/>
      <point x="996" y="1314"/>
      <point x="934" y="1338"/>
      <point x="865" y="1350"/>
      <point x="824" y="1350" type="qcurve"/>
      <point x="762" y="1350"/>
      <point x="646" y="1314"/>
      <point x="556" y="1248"/>
      <point x="502" y="1156"/>
      <point x="502" y="1101" type="qcurve"/>
      <point x="502" y="1049"/>
      <point x="551" y="974"/>
      <point x="630" y="913"/>
      <point x="732" y="861"/>
      <point x="839" y="804"/>
      <point x="941" y="735"/>
      <point x="1020" y="642"/>
      <point x="1069" y="517"/>
      <point x="1069" y="432" type="qcurve"/>
      <point x="1069" y="327"/>
      <point x="980" y="160"/>
      <point x="829" y="45"/>
      <point x="631" y="-17"/>
      <point x="523" y="-17" type="qcurve" name="ab01"/>
      <point x="407" y="-17"/>
      <point x="192" y="56"/>
      <point x="96" y="134" type="qcurve"/>
      <point x="214" y="284" type="line"/>
      <point x="240" y="258"/>
      <point x="309" y="211"/>
      <point x="391" y="176"/>
      <point x="483" y="155"/>
      <point x="531" y="155" type="qcurve"/>
      <point x="587" y="155"/>
      <point x="705" y="184"/>
      <point x="803" y="250"/>
      <point x="865" y="356"/>
      <point x="865" y="433" type="qcurve"/>
      <point x="865" y="488"/>
      <point x="816" y="571"/>
      <point x="736" y="638"/>
      <point x="635" y="695"/>
      <point x="529" y="755"/>
      <point x="427" y="824"/>
      <point x="348" y="916"/>
      <point x="299" y="1036"/>
      <point x="299" y="1116" type="qcurve"/>
      <point x="299" y="1216"/>
      <point x="388" y="1367"/>
      <point x="535" y="1467"/>
      <point x="727" y="1517"/>
      <point x="829" y="1517" type="qcurve" name="at01"/>
      <point x="891" y="1517"/>
      <point x="1001" y="1491"/>
      <point x="1095" y="1449"/>
      <point x="1172" y="1397"/>
      <point x="1202" y="1371" type="qcurve"/>
    </contour>
    <contour>
      <point x="978" y="1600" type="line" name="av01"/>
      <point x="781" y="1620" type="line"/>
      <point x="655" y="1900" type="line" name="ih02"/>
      <point x="805" y="1900" type="line"/>
      <point x="892" y="1767" type="line"/>
      <point x="898" y="1690" type="line" name="ih01"/>
      <point x="932" y="1768" type="line"/>
      <point x="1066" y="1900" type="line"/>
      <point x="1216" y="1900" type="line" name="ih03"/>
    </contour>
  </outline>
</glyph>
<glyph name="scaron" format="2">
  <advance width="1300"/>
  <unicode hex="0161"/>
  <outline>
    <contour>
      <point x="1065" y="909" type="line"/>
      <point x="1048" y="918"/>
      <point x="983" y="939"/>
      <point x="910" y="957"/>
      <point x="838" y="968"/>
      <point x="813" y="968" type="qcurve"/>
      <point x="760" y="968"/>
      <point x="641" y="957"/>
      <point x="540" y="924"/>
      <point x="474" y="865"/>
      <point x="474" y="817" type="qcurve"/>
      <point x="474" y="784"/>
      <point x="523" y="736"/>
      <point x="602" y="700"/>
      <point x="703" y="672"/>
      <point x="805" y="648"/>
      <point x="899" y="624"/>
      <point x="933" y="610" type="qcurve"/>
      <point x="970" y="595"/>
      <point x="1036" y="551"/>
      <point x="1084" y="494"/>
      <point x="1112" y="424"/>
      <point x="1112" y="383" type="qcurve"/>
      <point x="1112" y="305"/>
      <point x="1051" y="185"/>
      <point x="948" y="96"/>
      <point x="816" y="36"/>
      <point x="675" y="-1"/>
      <point x="534" y="-17"/>
      <point x="475" y="-17" type="qcurve" name="ab01"/>
      <point x="441" y="-17"/>
      <point x="342" y="-4"/>
      <point x="241" y="19"/>
      <point x="153" y="51"/>
      <point x="130" y="69" type="qcurve"/>
      <point x="221" y="211" type="line"/>
      <point x="243" y="199"/>
      <point x="317" y="175"/>
      <point x="399" y="155"/>
      <point x="478" y="143"/>
      <point x="505" y="143" type="qcurve"/>
      <point x="535" y="143"/>
      <point x="615" y="151"/>
      <point x="699" y="170"/>
      <point x="782" y="201"/>
      <point x="846" y="249"/>
      <point x="886" y="315"/>
      <point x="886" y="359" type="qcurve"/>
      <point x="886" y="394"/>
      <point x="841" y="443"/>
      <point x="768" y="478"/>
      <point x="674" y="504"/>
      <point x="575" y="527"/>
      <point x="480" y="550"/>
      <point x="442" y="566" type="qcurve"/>
      <point x="397" y="585"/>
      <point x="335" y="632"/>
      <point x="297" y="686"/>
      <point x="280" y="747"/>
      <point x="280" y="779" type="qcurve"/>
      <point x="280" y="875"/>
      <point x="372" y="1004"/>
      <point x="525" y="1083"/>
      <point x="725" y="1117"/>
      <point x="833" y="1117" type="qcurve" name="av01"/>
      <point x="871" y="1117"/>
      <point x="965" y="1105"/>
      <point x="1055" y="1085"/>
      <point x="1129" y="1060"/>
      <point x="1147" y="1047" type="qcurve"/>
    </contour>
    <contour>
      <point x="864" y="1220" type="line" name="av02"/>
      <point x="667" y="1240" type="line"/>
      <point x="541" y="1520" type="line" name="ih02"/>
      <point x="691" y="1520" type="line"/>
      <point x="778" y="1387" type="line"/>
      <point x="784" y="1310" type="line" name="ih01"/>
      <point x="818" y="1388" type="line"/>
      <point x="952" y="1520" type="line"/>
      <point x="1102" y="1520" type="line" name="ih03"/>
    </contour>
  </outline>
</glyph>
<glyph name="Ydieresis" format="2">
  <advance width="1300"/>
  <unicode hex="0178"/>
  <outline>
    <contour>
      <point x="608" y="935" type="line"/>
      <point x="996" y="1500" type="line"/>
      <point x="1188" y="1500" type="line" name="sv01"/>
      <point x="602" y="646" type="line"/>
      <point x="489" y="0" type="line" name="sv02"/>
      <point x="289" y="0" type="line" name="ab01"/>
      <point x="402" y="645" type="line"/>
      <point x="117" y="1500" type="line" name="at01"/>
      <point x="325" y="1520" type="line" name="at02"/>
      <point x="503" y="954" type="line"/>
      <point x="538" y="705" type="line"/>
    </contour>
    <contour>
      <point x="462" y="1898" type="line"/>
      <point x="662" y="1898" type="line"/>
      <point x="627" y="1698" type="line"/>
      <point x="427" y="1698" type="line"/>
    </contour>
    <contour>
      <point x="862" y="1898" type="line"/>
      <point x="1062" y="1898" type="line"/>
      <point x="1027" y="1698" type="line"/>
      <point x="827" y="1698" type="line"/>
    </contour>
  </outline>
</glyph>
<glyph name="florin" format="2">
  <advance width="1300"/>
  <unicode hex="0192"/>
  <outline>
    <contour>
      <point x="1332" y="1347" type="line"/>
      <point x="1323" y="1352"/>
      <point x="1298" y="1361"/>
      <point x="1269" y="1368"/>
      <point x="1240" y="1373"/>
      <point x="1228" y="1374" type="qcurve"/>
      <point x="1180" y="1378"/>
      <point x="1117" y="1347"/>
      <point x="1070" y="1281"/>
      <point x="1028" y="1181"/>
      <point x="1000" y="1117" type="qcurve"/>
      <point x="873" y="828" type="line"/>
      <point x="1169" y="828" type="line" name="sv01"/>
      <point x="1102" y="674" type="line"/>
      <point x="862" y="674" type="line"/>
      <point x="830" y="730" type="line"/>
      <point x="500" y="-21" type="line"/>
      <point x="456" y="-121"/>
      <point x="388" y="-278"/>
      <point x="305" y="-384"/>
      <point x="189" y="-436"/>
      <point x="98" y="-431" type="qcurve" name="ab01"/>
      <point x="52" y="-429"/>
      <point x="-18" y="-421"/>
      <point x="-74" y="-409"/>
      <point x="-118" y="-394"/>
      <point x="-137" y="-384" type="qcurve"/>
      <point x="-32" y="-251" type="line"/>
      <point x="-23" y="-256"/>
      <point x="2" y="-265"/>
      <point x="30" y="-272"/>
      <point x="60" y="-277"/>
      <point x="72" y="-278" type="qcurve"/>
      <point x="120" y="-283"/>
      <point x="180" y="-251"/>
      <point x="226" y="-184"/>
      <point x="270" y="-84"/>
      <point x="300" y="-21" type="qcurve"/>
      <point x="605" y="674" type="line"/>
      <point x="324" y="674" type="line" name="mh01"/>
      <point x="391" y="828" type="line" name="av01"/>
      <point x="608" y="828" type="line"/>
      <point x="648" y="771" type="line"/>
      <point x="718" y="927"/>
      <point x="816" y="1159"/>
      <point x="894" y="1325"/>
      <point x="961" y="1432"/>
      <point x="1037" y="1493"/>
      <point x="1133" y="1517"/>
      <point x="1201" y="1517" type="qcurve" name="at01"/>
      <point x="1247" y="1517"/>
      <point x="1311" y="1510"/>
      <point x="1359" y="1497"/>
      <point x="1397" y="1480"/>
      <point x="1417" y="1470" type="qcurve"/>
    </contour>
  </outline>
</glyph>
<glyph name="circumflex" format="2">
  <advance width="1300"/>
  <unicode hex="02C6"/>
  <outline>
    <contour>
      <point x="995" y="1220" type="line" name="sv01"/>
      <point x="845" y="1220" type="line"/>
      <point x="771" y="1372" type="line"/>
      <point x="757" y="1460" type="line"/>
      <point x="712" y="1373" type="line"/>
      <point x="584" y="1220" type="line"/>
      <point x="434" y="1220" type="line" name="av01"/>
      <point x="659" y="1500" type="line"/>
      <point x="863" y="1520" type="line"/>
    </contour>
  </outline>
</glyph>
<glyph name="caron" format="2">
  <advance width="1300"/>
  <unicode hex="02C7"/>
  <outline>
    <contour>
      <point x="880" y="1220" type="line" name="av01"/>
      <point x="683" y="1240" type="line"/>
      <point x="557" y="1520" type="line" name="ih02"/>
      <point x="707" y="1520" type="line"/>
      <point x="794" y="1387" type="line"/>
      <point x="800" y="1310" type="line" name="ih01"/>
      <point x="834" y="1388" type="line"/>
      <point x="968" y="1520" type="line"/>
      <point x="1118" y="1520" type="line" name="ih03"/>
    </contour>
  </outline>
</glyph>
<glyph name="dotaccent" format="2">
  <advance width="1300"/>
  <unicode hex="02D9"/>
  <outline>
    <contour>
      <point x="458" y="1500" type="line" name="at01"/>
      <point x="660" y="1500" type="line" name="sv01"/>
      <point x="625" y="1300" type="line" name="sv02"/>
      <point x="423" y="1300" type="line"/>
    </contour>
  </outline>
</glyph>
<glyph name="ogonek" format="2">
  <advance width="1300"/>
  <unicode hex="02DB"/>
  <outline>
    <contour>
      <point x="552" y="0" type="line" name="sv02"/>
      <point x="528" y="-29"/>
      <point x="510" y="-61" type="qcurve"/>
      <point x="495" y="-88"/>
      <point x="475" y="-156"/>
      <point x="480" y="-189" type="qcurve"/>
      <point x="488" y="-238"/>
      <point x="548" y="-280"/>
      <point x="591" y="-279" type="qcurve" name="sv01"/>
      <point x="620" y="-279"/>
      <point x="675" y="-259"/>
      <point x="697" y="-248" type="qcurve"/>
      <point x="723" y="-235"/>
      <point x="746" y="-218" type="qcurve" name="mh01"/>
      <point x="835" y="-318" type="line" name="mv01"/>
      <point x="796" y="-344"/>
      <point x="754" y="-363" type="qcurve"/>
      <point x="718" y="-380"/>
      <point x="631" y="-407"/>
      <point x="589" y="-407" type="qcurve" name="av01"/>
      <point x="539" y="-407"/>
      <point x="450" y="-379"/>
      <point x="381" y="-326"/>
      <point x="335" y="-248"/>
      <point x="328" y="-198" type="qcurve"/>
      <point x="323" y="-158"/>
      <point x="335" y="-86"/>
      <point x="346" y="-59" type="qcurve"/>
      <point x="358" y="-27"/>
      <point x="376" y="0" type="qcurve" name="ab01"/>
    </contour>
  </outline>
</glyph>
<glyph name="hungarumlaut" format="2">
  <advance width="1300"/>
  <unicode hex="02DD"/>
  <outline>
    <contour>
      <point x="542" y="1500" type="line"/>
      <point x="776" y="1520" type="line" name="at01"/>
      <point x="402" y="1117" type="line" name="sv01"/>
      <point x="252" y="1117" type="line" name="av01"/>
    </contour>
    <contour>
      <point x="905" y="1500" type="line"/>
      <point x="1139" y="1520" type="line" name="at02"/>
      <point x="765" y="1117" type="line" name="sv02"/>
      <point x="615" y="1117" type="line" name="av02"/>
    </contour>
  </outline>
</glyph>
<glyph name="Alpha" format="2">
  <advance width="1300"/>
  <unicode hex="0391"/>
  <outline>
    <contour>
      <point x="18" y="0" type="line" name="ab01"/>
      <point x="719" y="1300" type="line"/>
      <point x="789" y="1500" type="line"/>
      <point x="971" y="1520" type="line" name="at01"/>
      <point x="1250" y="0" type="line" name="sv01"/>
      <point x="1050" y="0" type="line"/>
      <point x="982" y="450" type="line" name="sv02"/>
      <point x="447" y="450" type="line" name="av01"/>
      <point x="201" y="0" type="line"/>
    </contour>
    <contour>
      <point x="877" y="1400" type="line"/>
      <point x="776" y="1080" type="line"/>
      <point x="522" y="600" type="line"/>
      <point x="959" y="600" type="line"/>
      <point x="866" y="1080" type="line"/>
    </contour>
  </outline>
</glyph>
<glyph name="Gamma" format="2">
  <advance width="1300"/>
  <unicode hex="0393"/>
  <outline>
    <contour>
      <point x="502" y="1150" type="line"/>
      <point x="300" y="0" type="line" name="sv01"/>
      <point x="100" y="0" type="line" name="ab01"/>
      <point x="329" y="1300" type="line"/>
      <point x="347" y="1500" type="line" name="at01"/>
      <point x="1184" y="1500" type="line" name="sv02"/>
      <point x="1158" y="1350" type="line" name="sv03"/>
      <point x="523" y="1350" type="line"/>
    </contour>
  </outline>
</glyph>
<glyph name="Deltagreek" format="2">
  <advance width="1500"/>
  <unicode hex="0394"/>
  <outline>
    <contour>
      <point x="851" y="1500" type="line"/>
      <point x="1072" y="1520" type="line" name="at01"/>
      <point x="1286" y="0" type="line" name="ih03"/>
      <point x="115" y="0" type="line" name="ih02"/>
    </contour>
    <contour>
      <point x="1030" y="160" type="line"/>
      <point x="1147" y="108" type="line"/>
      <point x="1078" y="200" type="line"/>
      <point x="953" y="1258" type="line"/>
      <point x="953" y="1425" type="line" name="ih01"/>
      <point x="893" y="1258" type="line"/>
      <point x="396" y="200" type="line"/>
      <point x="298" y="108" type="line"/>
      <point x="430" y="160" type="line"/>
    </contour>
  </outline>
</glyph>
<glyph name="Epsilon" format="2">
  <advance width="1300"/>
  <unicode hex="0395"/>
  <outline>
    <contour>
      <point x="1040" y="160" type="line"/>
      <point x="992" y="0" type="line" name="sv01"/>
      <point x="72" y="0" type="line" name="ab01"/>
      <point x="123" y="200" type="line"/>
      <point x="315" y="1290" type="line"/>
      <point x="322" y="1500" type="line" name="at01"/>
      <point x="1242" y="1500" type="line" name="sv02"/>
      <point x="1214" y="1340" type="line"/>
      <point x="489" y="1340" type="line"/>
      <point x="475" y="1150" type="line"/>
      <point x="428" y="885" type="line"/>
      <point x="1063" y="885" type="line"/>
      <point x="1038" y="740" type="line" name="sv03"/>
      <point x="403" y="740" type="line" name="av01"/>
      <point x="332" y="340" type="line"/>
      <point x="290" y="160" type="line"/>
    </contour>
  </outline>
</glyph>
<glyph name="Zeta" format="2">
  <advance width="1300"/>
  <unicode hex="0396"/>
  <outline>
    <contour>
      <point x="1058" y="160" type="line"/>
      <point x="1050" y="0" type="line" name="sv01"/>
      <point x="21" y="0" type="line" name="ab01"/>
      <point x="9" y="50" type="line"/>
      <point x="867" y="1200" type="line"/>
      <point x="1083" y="1380" type="line"/>
      <point x="811" y="1340" type="line"/>
      <point x="326" y="1340" type="line"/>
      <point x="334" y="1500" type="line" name="at01"/>
      <point x="1280" y="1500" type="line" name="sv02"/>
      <point x="1291" y="1478" type="line"/>
      <point x="422" y="300" type="line"/>
      <point x="213" y="120" type="line"/>
      <point x="485" y="160" type="line"/>
    </contour>
  </outline>
</glyph>
<glyph name="Eta" format="2">
  <advance width="1300"/>
  <unicode hex="0397"/>
  <outline>
    <contour>
      <point x="786" y="0" type="line"/>
      <point x="913" y="725" type="line" name="sv01"/>
      <point x="371" y="725" type="line" name="av01"/>
      <point x="244" y="0" type="line"/>
      <point x="49" y="0" type="line" name="ab01"/>
      <point x="276" y="1290" type="line"/>
      <point x="284" y="1500" type="line" name="at01"/>
      <point x="512" y="1520" type="line" name="at02"/>
      <point x="400" y="885" type="line"/>
      <point x="942" y="885" type="line"/>
      <point x="1050" y="1500" type="line" name="sv02"/>
      <point x="1249" y="1520" type="line" name="at03"/>
      <point x="981" y="0" type="line" name="sv03"/>
    </contour>
  </outline>
</glyph>
<glyph name="Iota" format="2">
  <advance width="1300"/>
  <unicode hex="0399"/>
  <outline>
    <contour>
      <point x="338" y="1500" type="line" name="at01"/>
      <point x="1238" y="1500" type="line" name="sv01"/>
      <point x="1210" y="1340" type="line"/>
      <point x="852" y="1340" type="line"/>
      <point x="643" y="160" type="line"/>
      <point x="1021" y="160" type="line"/>
      <point x="973" y="0" type="line" name="sv02"/>
      <point x="73" y="0" type="line" name="ab01"/>
      <point x="101" y="160" type="line"/>
      <point x="457" y="160" type="line"/>
      <point x="666" y="1340" type="line"/>
      <point x="290" y="1340" type="line"/>
    </contour>
  </outline>
</glyph>
<glyph name="Kappa" format="2">
  <advance width="1300"/>
  <unicode hex="039A"/>
  <outline>
    <contour>
      <point x="50" y="0" type="line" name="ab01"/>
      <point x="277" y="1290" type="line"/>
      <point x="284" y="1500" type="line" name="at01"/>
      <point x="518" y="1520" type="line" name="at02"/>
      <point x="400" y="856" type="line"/>
      <point x="1055" y="1500" type="line"/>
      <point x="1277" y="1500" type="line" name="sv01"/>
      <point x="634" y="865" type="line"/>
      <point x="454" y="802" type="line"/>
      <point x="618" y="744" type="line"/>
      <point x="1040" y="0" type="line" name="sv02"/>
      <point x="803" y="0" type="line"/>
      <point x="381" y="746" type="line"/>
      <point x="250" y="0" type="line"/>
    </contour>
  </outline>
</glyph>
<glyph name="Lambda" format="2">
  <advance width="1300"/>
  <unicode hex="039B"/>
  <outline>
    <contour>
      <point x="868" y="1100" type="line"/>
      <point x="878" y="1360" type="line" name="ih01"/>
      <point x="796" y="1100" type="line"/>
      <point x="246" y="0" type="line"/>
      <point x="62" y="0" type="line" name="ih02"/>
      <point x="714" y="1300" type="line"/>
      <point x="784" y="1500" type="line"/>
      <point x="1005" y="1520" type="line" name="at01"/>
      <point x="1235" y="0" type="line" name="ih03"/>
      <point x="1035" y="0" type="line"/>
    </contour>
  </outline>
</glyph>
<glyph name="Nu" format="2">
  <advance width="1300"/>
  <unicode hex="039D"/>
  <outline>
    <contour>
      <point x="817" y="0" type="line"/>
      <point x="490" y="948" type="line"/>
      <point x="403" y="1361" type="line"/>
      <point x="397" y="1360" type="line"/>
      <point x="385" y="920" type="line"/>
      <point x="222" y="0" type="line"/>
      <point x="42" y="0" type="line" name="ab01"/>
      <point x="270" y="1290" type="line"/>
      <point x="277" y="1500" type="line" name="at01"/>
      <point x="482" y="1520" type="line" name="at02"/>
      <point x="808" y="557" type="line"/>
      <point x="900" y="140" type="line"/>
      <point x="906" y="141" type="line"/>
      <point x="905" y="580" type="line"/>
      <point x="1067" y="1500" type="line" name="sv01"/>
      <point x="1251" y="1520" type="line" name="at03"/>
      <point x="982" y="0" type="line" name="sv02"/>
    </contour>
  </outline>
</glyph>
<glyph name="Xi" format="2">
  <advance width="1300"/>
  <unicode hex="039E"/>
  <outline>
    <contour>
      <point x="356" y="885" type="line" name="av01"/>
      <point x="1006" y="885" type="line" name="sv01"/>
      <point x="975" y="711" type="line" name="sv02"/>
      <point x="325" y="711" type="line" name="mh01"/>
    </contour>
    <contour>
      <point x="130" y="174" type="line" name="av02"/>
      <point x="980" y="174" type="line" name="sv03"/>
      <point x="950" y="0" type="line" name="sv04"/>
      <point x="100" y="0" type="line"/>
    </contour>
    <contour>
      <point x="364" y="1500" type="line" name="at01"/>
      <point x="1214" y="1500" type="line" name="sv05"/>
      <point x="1183" y="1326" type="line" name="sv06"/>
      <point x="333" y="1326" type="line" name="mh02"/>
    </contour>
  </outline>
</glyph>
<glyph name="Sigma" format="2">
  <advance width="1300"/>
  <unicode hex="03A3"/>
  <outline>
    <contour>
      <point x="953" y="700" type="line"/>
      <point x="528" y="317" type="line"/>
      <point x="268" y="125" type="line"/>
      <point x="524" y="170" type="line"/>
      <point x="1130" y="170" type="line"/>
      <point x="1101" y="0" type="line" name="sv01"/>
      <point x="80" y="0" type="line" name="ab01"/>
      <point x="132" y="183" type="line"/>
      <point x="723" y="700" type="line"/>
      <point x="885" y="750" type="line" name="iv01"/>
      <point x="741" y="800" type="line"/>
      <point x="332" y="1317" type="line"/>
      <point x="344" y="1500" type="line" name="at01"/>
      <point x="1330" y="1500" type="line" name="sv02"/>
      <point x="1300" y="1330" type="line"/>
      <point x="729" y="1330" type="line"/>
      <point x="488" y="1375" type="line"/>
      <point x="681" y="1183" type="line"/>
      <point x="971" y="800" type="line"/>
    </contour>
  </outline>
</glyph>
<glyph name="Tau" format="2">
  <advance width="1300"/>
  <unicode hex="03A4"/>
  <outline>
    <contour>
      <point x="394" y="0" type="line" name="ab01"/>
      <point x="630" y="1340" type="line"/>
      <point x="145" y="1340" type="line"/>
      <point x="158" y="1500" type="line" name="at01"/>
      <point x="1298" y="1500" type="line" name="sv01"/>
      <point x="1270" y="1340" type="line"/>
      <point x="830" y="1340" type="line"/>
      <point x="594" y="0" type="line" name="sv02"/>
    </contour>
  </outline>
</glyph>
<glyph name="Upsilon" format="2">
  <advance width="1300"/>
  <unicode hex="03A5"/>
  <outline>
    <contour>
      <point x="588" y="935" type="line"/>
      <point x="976" y="1500" type="line"/>
      <point x="1168" y="1500" type="line" name="sv01"/>
      <point x="582" y="646" type="line"/>
      <point x="469" y="0" type="line" name="sv02"/>
      <point x="269" y="0" type="line" name="ab01"/>
      <point x="382" y="645" type="line"/>
      <point x="97" y="1500" type="line" name="at01"/>
      <point x="305" y="1520" type="line" name="at02"/>
      <point x="483" y="954" type="line"/>
      <point x="518" y="705" type="line"/>
    </contour>
  </outline>
</glyph>
<glyph name="Phi" format="2">
  <advance width="1300"/>
  <unicode hex="03A6"/>
  <guideline x="1437" y="0" angle="90"/>
  <outline>
    <contour>
      <point x="451" y="204" type="line"/>
      <point x="384" y="213"/>
      <point x="319" y="233" type="qcurve"/>
      <point x="254" y="256"/>
      <point x="135" y="340"/>
      <point x="49" y="466"/>
      <point x="7" y="638"/>
      <point x="19" y="750" type="qcurve" name="av01"/>
      <point x="32" y="867"/>
      <point x="119" y="1039"/>
      <point x="249" y="1161"/>
      <point x="412" y="1241"/>
      <point x="501" y="1266" type="qcurve"/>
      <point x="574" y="1288"/>
      <point x="644" y="1295" type="qcurve"/>
      <point x="680" y="1500" type="line"/>
      <point x="883" y="1520" type="line" name="at01"/>
      <point x="843" y="1295" type="line"/>
      <point x="878" y="1291"/>
      <point x="945" y="1277"/>
      <point x="977" y="1266" type="qcurve"/>
      <point x="1039" y="1244"/>
      <point x="1159" y="1161"/>
      <point x="1248" y="1034"/>
      <point x="1293" y="861"/>
      <point x="1279" y="750" type="qcurve" name="sv03"/>
      <point x="1253" y="543"/>
      <point x="1004" y="283"/>
      <point x="796" y="233" type="qcurve"/>
      <point x="650" y="204" type="line"/>
      <point x="612" y="-14" type="line" name="sv04"/>
      <point x="413" y="-14" type="line" name="ab01"/>
    </contour>
    <contour>
      <point x="678" y="361" type="line"/>
      <point x="755" y="365"/>
      <point x="902" y="423"/>
      <point x="1020" y="524"/>
      <point x="1095" y="664"/>
      <point x="1100" y="750" type="qcurve" name="sv02"/>
      <point x="1104" y="824"/>
      <point x="1082" y="946"/>
      <point x="1016" y="1042"/>
      <point x="902" y="1115"/>
      <point x="815" y="1139" type="qcurve"/>
    </contour>
    <contour>
      <point x="417" y="376" type="qcurve"/>
      <point x="432" y="373"/>
      <point x="463" y="364"/>
      <point x="479" y="361" type="qcurve"/>
      <point x="616" y="1139" type="line"/>
      <point x="542" y="1137"/>
      <point x="398" y="1084"/>
      <point x="281" y="985"/>
      <point x="203" y="842"/>
      <point x="197" y="750" type="qcurve" name="sv01"/>
      <point x="192" y="672"/>
      <point x="227" y="543"/>
      <point x="290" y="446"/>
      <point x="373" y="385"/>
    </contour>
  </outline>
</glyph>
<glyph name="Chi" format="2">
  <advance width="1300"/>
  <unicode hex="03A7"/>
  <outline>
    <contour>
      <point x="846" y="0" type="line"/>
      <point x="688" y="519" type="line"/>
      <point x="647" y="700" type="line"/>
      <point x="567" y="540" type="line"/>
      <point x="197" y="0" type="line"/>
      <point x="-1" y="0" type="line" name="ab01"/>
      <point x="569" y="799" type="line"/>
      <point x="320" y="1500" type="line" name="at01"/>
      <point x="536" y="1520" type="line" name="at02"/>
      <point x="682" y="1056" type="line"/>
      <point x="717" y="860" type="line"/>
      <point x="776" y="1020" type="line"/>
      <point x="1106" y="1500" type="line"/>
      <point x="1299" y="1500" type="line" name="sv01"/>
      <point x="786" y="776" type="line"/>
      <point x="1066" y="0" type="line" name="sv02"/>
    </contour>
  </outline>
</glyph>
<glyph name="Psi" format="2">
  <advance width="1300"/>
  <unicode hex="03A8"/>
  <outline>
    <contour>
      <point x="1374" y="1500" type="line" name="sv02"/>
      <point x="1263" y="873" type="line"/>
      <point x="1246" y="775"/>
      <point x="1171" y="633"/>
      <point x="1065" y="533"/>
      <point x="935" y="472"/>
      <point x="791" y="439"/>
      <point x="637" y="430"/>
      <point x="561" y="433" type="qcurve" name="ih01"/>
      <point x="488" y="436"/>
      <point x="346" y="460"/>
      <point x="222" y="507"/>
      <point x="122" y="582"/>
      <point x="58" y="689"/>
      <point x="36" y="831"/>
      <point x="52" y="923" type="qcurve"/>
      <point x="117" y="1290" type="line"/>
      <point x="124" y="1500" type="line" name="at01"/>
      <point x="353" y="1520" type="line" name="ih05"/>
      <point x="244" y="904" type="line"/>
      <point x="229" y="819"/>
      <point x="287" y="704"/>
      <point x="396" y="635"/>
      <point x="535" y="604"/>
      <point x="601" y="603" type="qcurve" name="ih04"/>
      <point x="648" y="602"/>
      <point x="748" y="603"/>
      <point x="843" y="615"/>
      <point x="931" y="645"/>
      <point x="1002" y="701"/>
      <point x="1053" y="789"/>
      <point x="1065" y="854" type="qcurve"/>
      <point x="1179" y="1500" type="line" name="ih06"/>
    </contour>
    <contour>
      <point x="863" y="1520" type="line" name="at02"/>
      <point x="595" y="1" type="line" name="ih03"/>
      <point x="405" y="1" type="line" name="ih02"/>
      <point x="669" y="1500" type="line" name="sv01"/>
    </contour>
  </outline>
</glyph>
<glyph name="gamma" format="2">
  <advance width="1300"/>
  <unicode hex="03B3"/>
  <outline>
    <contour>
      <point x="146" y="1117" type="line" name="ih02"/>
      <point x="181" y="1120"/>
      <point x="260" y="1116"/>
      <point x="332" y="1081"/>
      <point x="389" y="1006"/>
      <point x="402" y="940" type="qcurve"/>
      <point x="512" y="364" type="line"/>
      <point x="523" y="132" type="line" name="ih01"/>
      <point x="616" y="364" type="line"/>
      <point x="1014" y="1100" type="line"/>
      <point x="1200" y="1121" type="line" name="ih03"/>
      <point x="590" y="-17" type="line"/>
      <point x="504" y="-500" type="line" name="sv01"/>
      <point x="312" y="-500" type="line" name="av01"/>
      <point x="392" y="-47" type="line"/>
      <point x="221" y="869" type="line"/>
      <point x="211" y="919"/>
      <point x="179" y="968"/>
      <point x="163" y="978" type="qcurve"/>
      <point x="145" y="989"/>
      <point x="124" y="987" type="qcurve"/>
    </contour>
  </outline>
</glyph>
<glyph name="zeta" format="2">
  <advance width="1300"/>
  <unicode hex="03B6"/>
  <outline>
    <contour>
      <point x="1184" y="1500" type="line" name="sv01"/>
      <point x="1136" y="1342" type="line"/>
      <point x="1067" y="1292"/>
      <point x="910" y="1176"/>
      <point x="752" y="1048"/>
      <point x="605" y="907"/>
      <point x="488" y="757"/>
      <point x="411" y="599"/>
      <point x="403" y="517" type="qcurve"/>
      <point x="396" y="446"/>
      <point x="392" y="343"/>
      <point x="417" y="262"/>
      <point x="483" y="197"/>
      <point x="545" y="164" type="qcurve"/>
      <point x="612" y="129"/>
      <point x="723" y="64"/>
      <point x="805" y="-16"/>
      <point x="855" y="-124"/>
      <point x="860" y="-203" type="qcurve"/>
      <point x="863" y="-255"/>
      <point x="812" y="-354"/>
      <point x="722" y="-438"/>
      <point x="604" y="-501"/>
      <point x="542" y="-517" type="qcurve"/>
      <point x="475" y="-386" type="line"/>
      <point x="529" y="-371"/>
      <point x="599" y="-332"/>
      <point x="640" y="-288"/>
      <point x="658" y="-243"/>
      <point x="660" y="-222" type="qcurve"/>
      <point x="663" y="-185"/>
      <point x="643" y="-121"/>
      <point x="585" y="-61"/>
      <point x="483" y="-2"/>
      <point x="405" y="30" type="qcurve"/>
      <point x="324" y="63"/>
      <point x="233" y="158"/>
      <point x="191" y="275"/>
      <point x="190" y="414"/>
      <point x="201" y="492" type="qcurve"/>
      <point x="212" y="577"/>
      <point x="267" y="733"/>
      <point x="343" y="872"/>
      <point x="433" y="995"/>
      <point x="527" y="1100"/>
      <point x="620" y="1189"/>
      <point x="660" y="1224" type="qcurve"/>
      <point x="949" y="1369" type="line"/>
      <point x="776" y="1342" type="line"/>
      <point x="416" y="1342" type="line" name="sv02"/>
      <point x="464" y="1500" type="line" name="at01"/>
    </contour>
  </outline>
</glyph>
<glyph name="eta" format="2">
  <advance width="1300"/>
  <unicode hex="03B7"/>
  <outline>
    <contour>
      <point x="355" y="0" type="line" name="sv01"/>
      <point x="171" y="0" type="line" name="ab01"/>
      <point x="364" y="1100" type="line"/>
      <point x="552" y="1121" type="line" name="av01"/>
      <point x="520" y="937" type="line"/>
      <point x="600" y="1044" type="line"/>
      <point x="632" y="1065"/>
      <point x="693" y="1093"/>
      <point x="757" y="1110"/>
      <point x="831" y="1117"/>
      <point x="876" y="1117" type="qcurve" name="av02"/>
      <point x="954" y="1117"/>
      <point x="1049" y="1048"/>
      <point x="1096" y="941"/>
      <point x="1102" y="811"/>
      <point x="1091" y="750" type="qcurve"/>
      <point x="870" y="-500" type="line" name="sv02"/>
      <point x="686" y="-500" type="line" name="av03"/>
      <point x="907" y="750" type="line"/>
      <point x="916" y="800"/>
      <point x="904" y="878"/>
      <point x="870" y="931"/>
      <point x="816" y="958"/>
      <point x="783" y="957" type="qcurve"/>
      <point x="698" y="954"/>
      <point x="563" y="895"/>
      <point x="503" y="844" type="qcurve"/>
    </contour>
  </outline>
</glyph>
<glyph name="theta" format="2">
  <advance width="1300"/>
  <unicode hex="03B8"/>
  <outline>
    <contour>
      <point x="496" y="-17" type="qcurve" name="ab01"/>
      <point x="411" y="-17"/>
      <point x="287" y="47"/>
      <point x="201" y="159"/>
      <point x="150" y="308"/>
      <point x="126" y="479"/>
      <point x="124" y="661"/>
      <point x="132" y="750" type="qcurve"/>
      <point x="140" y="842"/>
      <point x="188" y="1027"/>
      <point x="267" y="1197"/>
      <point x="376" y="1345"/>
      <point x="512" y="1454"/>
      <point x="675" y="1517"/>
      <point x="768" y="1517" type="qcurve" name="at01"/>
      <point x="855" y="1517"/>
      <point x="983" y="1452"/>
      <point x="1071" y="1340"/>
      <point x="1123" y="1190"/>
      <point x="1146" y="1019"/>
      <point x="1143" y="837"/>
      <point x="1132" y="750" type="qcurve"/>
      <point x="1121" y="661"/>
      <point x="1068" y="479"/>
      <point x="986" y="309"/>
      <point x="876" y="159"/>
      <point x="742" y="47"/>
      <point x="585" y="-17"/>
    </contour>
    <contour>
      <point x="739" y="1357" type="qcurve" name="sv01"/>
      <point x="684" y="1364"/>
      <point x="584" y="1324"/>
      <point x="496" y="1244"/>
      <point x="423" y="1133"/>
      <point x="368" y="1009"/>
      <point x="332" y="879"/>
      <point x="326" y="820" type="qcurve" name="av01"/>
      <point x="962" y="820" type="line" name="sv02"/>
      <point x="963" y="878"/>
      <point x="964" y="999"/>
      <point x="953" y="1113"/>
      <point x="928" y="1215"/>
      <point x="877" y="1296"/>
      <point x="798" y="1349"/>
    </contour>
    <contour>
      <point x="525" y="143" type="qcurve" name="sv03"/>
      <point x="570" y="134"/>
      <point x="660" y="166"/>
      <point x="743" y="236"/>
      <point x="817" y="337"/>
      <point x="878" y="460"/>
      <point x="923" y="598"/>
      <point x="935" y="670" type="qcurve" name="sv04"/>
      <point x="300" y="670" type="line" name="sv05"/>
      <point x="298" y="622"/>
      <point x="298" y="512"/>
      <point x="308" y="402"/>
      <point x="334" y="299"/>
      <point x="385" y="214"/>
      <point x="465" y="154"/>
    </contour>
  </outline>
</glyph>
<glyph name="kappa" format="2">
  <advance width="1300"/>
  <unicode hex="03BA"/>
  <outline>
    <contour>
      <point x="200" y="0" type="line" name="ab01"/>
      <point x="362" y="919" type="line"/>
      <point x="373" y="1099" type="line" name="av01"/>
      <point x="578" y="1121" type="line" name="av02"/>
      <point x="493" y="644" type="line"/>
      <point x="943" y="1100" type="line" name="sv01"/>
      <point x="1147" y="1121" type="line" name="av03"/>
      <point x="718" y="670" type="line"/>
      <point x="551" y="600" type="line" name="iv01"/>
      <point x="693" y="530" type="line"/>
      <point x="1000" y="2" type="line" name="sv02"/>
      <point x="800" y="2" type="line"/>
      <point x="477" y="554" type="line"/>
      <point x="380" y="0" type="line"/>
    </contour>
  </outline>
</glyph>
<glyph name="lambda" format="2">
  <advance width="1300"/>
  <unicode hex="03BB"/>
  <outline>
    <contour>
      <point x="820" y="968" type="line" name="ih01"/>
      <point x="727" y="736" type="line"/>
      <point x="330" y="0" type="line" name="sv01"/>
      <point x="134" y="0" type="line" name="ih02"/>
      <point x="753" y="1147" type="line"/>
      <point x="741" y="1205"/>
      <point x="712" y="1311"/>
      <point x="673" y="1389"/>
      <point x="618" y="1432"/>
      <point x="581" y="1428" type="qcurve"/>
      <point x="557" y="1426"/>
      <point x="510" y="1408"/>
      <point x="491" y="1396" type="qcurve"/>
      <point x="437" y="1503" type="line"/>
      <point x="485" y="1539"/>
      <point x="589" y="1577"/>
      <point x="640" y="1580" type="qcurve" name="av01"/>
      <point x="697" y="1583"/>
      <point x="784" y="1517"/>
      <point x="853" y="1394"/>
      <point x="908" y="1221"/>
      <point x="933" y="1117" type="qcurve"/>
      <point x="1145" y="0" type="line" name="ih03"/>
      <point x="971" y="0" type="line" name="sv02"/>
      <point x="831" y="736" type="line"/>
    </contour>
  </outline>
</glyph>
<glyph name="uni03BC" format="2">
  <advance width="1300"/>
  <unicode hex="03BC"/>
  <outline>
    <contour>
      <point x="393" y="1100" type="line" name="av01"/>
      <point x="587" y="1121" type="line" name="av03"/>
      <point x="461" y="406" type="line"/>
      <point x="455" y="358"/>
      <point x="449" y="262"/>
      <point x="475" y="183"/>
      <point x="547" y="131"/>
      <point x="618" y="127" type="qcurve"/>
      <point x="653" y="125"/>
      <point x="705" y="130"/>
      <point x="754" y="150"/>
      <point x="810" y="189"/>
      <point x="849" y="222" type="qcurve"/>
      <point x="1003" y="1100" type="line" name="sv01"/>
      <point x="1197" y="1121" type="line" name="av04"/>
      <point x="1000" y="0" type="line" name="sv02"/>
      <point x="810" y="0" type="line" name="mh01"/>
      <point x="832" y="129" type="line"/>
      <point x="790" y="80"/>
      <point x="704" y="23"/>
      <point x="620" y="-6"/>
      <point x="542" y="-14"/>
      <point x="507" y="-15" type="qcurve" name="ab01"/>
      <point x="470" y="-15"/>
      <point x="398" y="-2"/>
      <point x="371" y="11" type="qcurve"/>
      <point x="363" y="-150" type="line"/>
      <point x="301" y="-500" type="line" name="sv03"/>
      <point x="111" y="-500" type="line" name="av02"/>
    </contour>
  </outline>
</glyph>
<glyph name="nu" format="2">
  <advance width="1300"/>
  <unicode hex="03BD"/>
  <outline>
    <contour>
      <point x="327" y="0" type="line" name="ab01"/>
      <point x="137" y="1100" type="line" name="ih02"/>
      <point x="330" y="1100" type="line" name="sv01"/>
      <point x="466" y="295" type="line"/>
      <point x="473" y="75" type="line" name="ih01"/>
      <point x="560" y="295" type="line"/>
      <point x="978" y="1100" type="line" name="av01"/>
      <point x="1169" y="1100" type="line" name="ih03"/>
      <point x="594" y="0" type="line" name="sv02"/>
    </contour>
  </outline>
</glyph>
<glyph name="sigma1" format="2">
  <advance width="1300"/>
  <unicode hex="03C2"/>
  <outline>
    <contour>
      <point x="986" y="885" type="line" name="sv01"/>
      <point x="935" y="739" type="line"/>
      <point x="889" y="745"/>
      <point x="781" y="749"/>
      <point x="669" y="734"/>
      <point x="562" y="698"/>
      <point x="473" y="629"/>
      <point x="410" y="523"/>
      <point x="399" y="447" type="qcurve" name="iv01"/>
      <point x="393" y="409"/>
      <point x="400" y="329"/>
      <point x="433" y="254"/>
      <point x="495" y="188"/>
      <point x="545" y="164" type="qcurve"/>
      <point x="618" y="129"/>
      <point x="736" y="64"/>
      <point x="818" y="-16"/>
      <point x="861" y="-124"/>
      <point x="860" y="-203" type="qcurve" name="iv02"/>
      <point x="859" y="-250"/>
      <point x="817" y="-342"/>
      <point x="737" y="-423"/>
      <point x="619" y="-492"/>
      <point x="542" y="-517" type="qcurve" name="iv04"/>
      <point x="475" y="-386" type="line"/>
      <point x="510" y="-370"/>
      <point x="577" y="-332"/>
      <point x="629" y="-291"/>
      <point x="660" y="-246"/>
      <point x="660" y="-222" type="qcurve" name="iv03"/>
      <point x="659" y="-174"/>
      <point x="620" y="-103"/>
      <point x="552" y="-45"/>
      <point x="459" y="4"/>
      <point x="405" y="30" type="qcurve" name="iv05"/>
      <point x="349" y="56"/>
      <point x="263" y="133"/>
      <point x="207" y="235"/>
      <point x="185" y="362"/>
      <point x="193" y="437" type="qcurve"/>
      <point x="204" y="545"/>
      <point x="292" y="718"/>
      <point x="453" y="836"/>
      <point x="693" y="894"/>
      <point x="856" y="885" type="qcurve" name="av01"/>
    </contour>
  </outline>
</glyph>
<glyph name="tau" format="2">
  <advance width="1300"/>
  <unicode hex="03C4"/>
  <outline>
    <contour>
      <point x="725" y="942" type="line"/>
      <point x="605" y="265" type="line"/>
      <point x="597" y="219"/>
      <point x="592" y="148"/>
      <point x="602" y="85"/>
      <point x="630" y="22"/>
      <point x="655" y="-17" type="qcurve" name="sv01"/>
      <point x="444" y="-17" type="line" name="ab01"/>
      <point x="425" y="2"/>
      <point x="408" y="77"/>
      <point x="405" y="168"/>
      <point x="413" y="264"/>
      <point x="420" y="303" type="qcurve"/>
      <point x="533" y="942" type="line"/>
      <point x="166" y="942" type="line" name="sv04"/>
      <point x="213" y="1100" type="line" name="av01"/>
      <point x="1093" y="1100" type="line" name="sv02"/>
      <point x="1046" y="942" type="line" name="sv03"/>
    </contour>
  </outline>
</glyph>
<glyph name="upsilon" format="2">
  <advance width="1300"/>
  <unicode hex="03C5"/>
  <outline>
    <contour>
      <point x="487" y="497" type="line" name="sv01"/>
      <point x="474" y="423"/>
      <point x="473" y="294"/>
      <point x="512" y="196"/>
      <point x="598" y="135"/>
      <point x="672" y="129" type="qcurve" name="sv02"/>
      <point x="757" y="122"/>
      <point x="867" y="181"/>
      <point x="936" y="287"/>
      <point x="974" y="425"/>
      <point x="987" y="497" type="qcurve" name="av04"/>
      <point x="1029" y="732" type="line"/>
      <point x="1045" y="822"/>
      <point x="1019" y="930"/>
      <point x="966" y="988"/>
      <point x="900" y="1007"/>
      <point x="877" y="1007" type="qcurve" name="sv04"/>
      <point x="896" y="1117" type="line" name="sv03"/>
      <point x="970" y="1125"/>
      <point x="1100" y="1070"/>
      <point x="1192" y="969"/>
      <point x="1236" y="832"/>
      <point x="1223" y="759" type="qcurve"/>
      <point x="1177" y="495" type="line" name="sv05"/>
      <point x="1170" y="455"/>
      <point x="1145" y="345"/>
      <point x="1099" y="227"/>
      <point x="1025" y="112"/>
      <point x="912" y="24"/>
      <point x="754" y="-24"/>
      <point x="647" y="-17" type="qcurve" name="ab01"/>
      <point x="549" y="-11"/>
      <point x="417" y="47"/>
      <point x="334" y="133"/>
      <point x="294" y="238"/>
      <point x="283" y="348"/>
      <point x="291" y="453"/>
      <point x="299" y="495" type="qcurve" name="av03"/>
      <point x="360" y="845" type="line"/>
      <point x="371" y="905"/>
      <point x="342" y="974"/>
      <point x="295" y="974" type="qcurve" name="sv06"/>
      <point x="246" y="974"/>
      <point x="174" y="905"/>
      <point x="163" y="845" type="qcurve" name="sv07"/>
      <point x="49" y="845" type="line" name="av02"/>
      <point x="60" y="906"/>
      <point x="104" y="1006"/>
      <point x="173" y="1078"/>
      <point x="268" y="1117"/>
      <point x="328" y="1117" type="qcurve" name="av01"/>
      <point x="382" y="1117"/>
      <point x="471" y="1071"/>
      <point x="530" y="996"/>
      <point x="556" y="897"/>
      <point x="548" y="845" type="qcurve"/>
    </contour>
  </outline>
</glyph>
<glyph name="phi" format="2">
  <advance width="1300"/>
  <unicode hex="03C6"/>
  <outline>
    <contour>
      <point x="452" y="1" type="line" name="ab01"/>
      <point x="420" y="5"/>
      <point x="356" y="19"/>
      <point x="326" y="28" type="qcurve"/>
      <point x="264" y="49"/>
      <point x="150" y="125"/>
      <point x="69" y="241"/>
      <point x="29" y="398"/>
      <point x="41" y="500" type="qcurve" name="av02"/>
      <point x="53" y="607"/>
      <point x="136" y="764"/>
      <point x="260" y="876"/>
      <point x="415" y="948"/>
      <point x="499" y="971" type="qcurve"/>
      <point x="566" y="990"/>
      <point x="635" y="998" type="qcurve" name="av04"/>
      <point x="649" y="1100" type="line"/>
      <point x="844" y="1121" type="line" name="av03"/>
      <point x="825" y="998" type="line" name="sv01"/>
      <point x="858" y="994"/>
      <point x="922" y="982"/>
      <point x="952" y="971" type="qcurve"/>
      <point x="1011" y="951"/>
      <point x="1126" y="875"/>
      <point x="1211" y="759"/>
      <point x="1253" y="601"/>
      <point x="1240" y="500" type="qcurve" name="sv04"/>
      <point x="1216" y="312"/>
      <point x="977" y="73"/>
      <point x="781" y="28" type="qcurve"/>
      <point x="641" y="1" type="line" name="sv05"/>
      <point x="554" y="-500" type="line" name="sv06"/>
      <point x="364" y="-500" type="line" name="av01"/>
    </contour>
    <contour>
      <point x="668" y="145" type="line"/>
      <point x="741" y="148"/>
      <point x="882" y="201"/>
      <point x="993" y="293"/>
      <point x="1065" y="421"/>
      <point x="1070" y="500" type="qcurve" name="sv03"/>
      <point x="1074" y="567"/>
      <point x="1052" y="679"/>
      <point x="990" y="767"/>
      <point x="882" y="833"/>
      <point x="798" y="855" type="qcurve"/>
    </contour>
    <contour>
      <point x="419" y="158" type="qcurve"/>
      <point x="434" y="155"/>
      <point x="463" y="147"/>
      <point x="478" y="145" type="qcurve"/>
      <point x="609" y="855" type="line"/>
      <point x="539" y="853"/>
      <point x="401" y="805"/>
      <point x="290" y="715"/>
      <point x="216" y="584"/>
      <point x="210" y="500" type="qcurve" name="sv02"/>
      <point x="205" y="429"/>
      <point x="238" y="311"/>
      <point x="298" y="222"/>
      <point x="378" y="167"/>
    </contour>
  </outline>
</glyph>
<glyph name="psi" format="2">
  <advance width="1300"/>
  <unicode hex="03C8"/>
  <outline>
    <contour>
      <point x="94" y="800" type="line"/>
      <point x="287" y="820" type="line" name="av02"/>
      <point x="230" y="497" type="line"/>
      <point x="217" y="425"/>
      <point x="216" y="292"/>
      <point x="247" y="190"/>
      <point x="317" y="129"/>
      <point x="375" y="129" type="qcurve"/>
      <point x="391" y="128"/>
      <point x="409" y="128" type="qcurve" name="av03"/>
      <point x="473" y="128" type="line"/>
      <point x="644" y="1100" type="line"/>
      <point x="840" y="1121" type="line" name="av01"/>
      <point x="665" y="128" type="line" name="av07"/>
      <point x="711" y="128"/>
      <point x="774" y="128" name="sv01"/>
      <point x="775" y="129" type="qcurve"/>
      <point x="855" y="129"/>
      <point x="951" y="190"/>
      <point x="1008" y="292"/>
      <point x="1037" y="425"/>
      <point x="1050" y="497" type="qcurve" name="av05"/>
      <point x="1081" y="672" type="line"/>
      <point x="1097" y="764"/>
      <point x="1075" y="892"/>
      <point x="1026" y="971"/>
      <point x="964" y="1007"/>
      <point x="941" y="1007" type="qcurve" name="sv02"/>
      <point x="960" y="1117" type="line" name="av06"/>
      <point x="1043" y="1117"/>
      <point x="1172" y="1039"/>
      <point x="1255" y="917"/>
      <point x="1288" y="769"/>
      <point x="1276" y="699" type="qcurve"/>
      <point x="1240" y="495" type="line" name="sv03"/>
      <point x="1231" y="448"/>
      <point x="1212" y="335"/>
      <point x="1174" y="221"/>
      <point x="1112" y="115"/>
      <point x="1009" y="32"/>
      <point x="857" y="-17"/>
      <point x="750" y="-17" type="qcurve"/>
      <point x="640" y="-17" type="line" name="sv04"/>
      <point x="554" y="-500" type="line" name="sv05"/>
      <point x="362" y="-500" type="line" name="av04"/>
      <point x="448" y="-17" type="line"/>
      <point x="350" y="-17" type="line"/>
      <point x="260" y="-17"/>
      <point x="141" y="37"/>
      <point x="67" y="124"/>
      <point x="33" y="235"/>
      <point x="24" y="349"/>
      <point x="33" y="455"/>
      <point x="40" y="495" type="qcurve"/>
    </contour>
  </outline>
</glyph>
<glyph name="omega" format="2">
  <advance width="1300"/>
  <unicode hex="03C9"/>
  <outline>
    <contour>
      <point x="784" y="725" type="line"/>
      <point x="742" y="482" type="line"/>
      <point x="729" y="411"/>
      <point x="712" y="283"/>
      <point x="723" y="186"/>
      <point x="772" y="129"/>
      <point x="825" y="129" type="qcurve"/>
      <point x="885" y="129"/>
      <point x="960" y="188"/>
      <point x="1009" y="295"/>
      <point x="1041" y="442"/>
      <point x="1056" y="530" type="qcurve"/>
      <point x="1072" y="622"/>
      <point x="1074" y="765"/>
      <point x="1054" y="871"/>
      <point x="1018" y="943"/>
      <point x="978" y="988"/>
      <point x="936" y="1007"/>
      <point x="921" y="1007" type="qcurve" name="sv01"/>
      <point x="940" y="1117" type="line" name="ih03"/>
      <point x="1023" y="1117"/>
      <point x="1156" y="1027"/>
      <point x="1241" y="875"/>
      <point x="1271" y="672"/>
      <point x="1251" y="560" type="qcurve"/>
      <point x="1233" y="457" type="line"/>
      <point x="1223" y="402"/>
      <point x="1197" y="289"/>
      <point x="1155" y="184"/>
      <point x="1094" y="92"/>
      <point x="1004" y="23"/>
      <point x="882" y="-17"/>
      <point x="800" y="-17" type="qcurve" name="sv02"/>
      <point x="749" y="-17"/>
      <point x="676" y="3"/>
      <point x="625" y="40"/>
      <point x="593" y="90"/>
      <point x="584" y="120" type="qcurve" name="ih01"/>
      <point x="564" y="90"/>
      <point x="515" y="40"/>
      <point x="451" y="3"/>
      <point x="371" y="-17"/>
      <point x="321" y="-17" type="qcurve" name="ab01"/>
      <point x="239" y="-17"/>
      <point x="131" y="23"/>
      <point x="65" y="92"/>
      <point x="36" y="185"/>
      <point x="31" y="290"/>
      <point x="44" y="402"/>
      <point x="54" y="457" type="qcurve"/>
      <point x="72" y="560" type="line"/>
      <point x="92" y="672"/>
      <point x="190" y="875"/>
      <point x="325" y="1027"/>
      <point x="486" y="1117"/>
      <point x="569" y="1117" type="qcurve" name="ih02"/>
      <point x="550" y="1007" type="line" name="sv03"/>
      <point x="527" y="1007"/>
      <point x="448" y="962"/>
      <point x="362" y="852"/>
      <point x="281" y="669"/>
      <point x="257" y="530" type="qcurve"/>
      <point x="242" y="442"/>
      <point x="221" y="295"/>
      <point x="232" y="188"/>
      <point x="286" y="129"/>
      <point x="346" y="129" type="qcurve"/>
      <point x="399" y="129"/>
      <point x="468" y="186"/>
      <point x="513" y="283"/>
      <point x="542" y="411"/>
      <point x="555" y="482" type="qcurve"/>
      <point x="601" y="745" type="line" name="av01"/>
    </contour>
  </outline>
</glyph>
<glyph name="Upsilon1" format="2">
  <advance width="1300"/>
  <unicode hex="03D2"/>
  <guideline x="743" y="0" angle="90"/>
  <outline>
    <contour>
      <point x="1198" y="1517" type="qcurve" name="ih03"/>
      <point x="1175" y="1387" type="line" name="sv01"/>
      <point x="1155" y="1389"/>
      <point x="1131" y="1380" type="qcurve"/>
      <point x="1111" y="1372"/>
      <point x="1058" y="1331"/>
      <point x="1030" y="1289" type="qcurve"/>
      <point x="609" y="658" type="line"/>
      <point x="493" y="0" type="line" name="sv02"/>
      <point x="301" y="0" type="line" name="ab01"/>
      <point x="417" y="658" type="line"/>
      <point x="218" y="1289" type="line"/>
      <point x="204" y="1331"/>
      <point x="166" y="1371"/>
      <point x="149" y="1379" type="qcurve"/>
      <point x="129" y="1389"/>
      <point x="107" y="1387" type="qcurve" name="sv03"/>
      <point x="130" y="1517" type="line" name="ih02"/>
      <point x="155" y="1517"/>
      <point x="218" y="1507"/>
      <point x="282" y="1471"/>
      <point x="343" y="1401"/>
      <point x="366" y="1340" type="qcurve"/>
      <point x="496" y="1000" type="line"/>
      <point x="533" y="751" type="line" name="ih01"/>
      <point x="650" y="1000" type="line"/>
      <point x="900" y="1340" type="line"/>
      <point x="954" y="1413"/>
      <point x="1033" y="1487"/>
      <point x="1100" y="1517"/>
      <point x="1162" y="1517"/>
    </contour>
  </outline>
</glyph>
<glyph name="phi1" format="2">
  <advance width="1300"/>
  <unicode hex="03D5"/>
  <outline>
    <contour>
      <point x="451" y="2" type="line" name="sv03"/>
      <point x="349" y="16"/>
      <point x="190" y="91"/>
      <point x="84" y="215"/>
      <point x="32" y="388"/>
      <point x="38" y="500" type="qcurve" name="av03"/>
      <point x="43" y="594"/>
      <point x="111" y="740"/>
      <point x="207" y="844"/>
      <point x="316" y="908"/>
      <point x="362" y="922" type="qcurve"/>
      <point x="437" y="804" type="line" name="mh01"/>
      <point x="406" y="785"/>
      <point x="332" y="738"/>
      <point x="264" y="668"/>
      <point x="214" y="570"/>
      <point x="207" y="500" type="qcurve" name="sv04"/>
      <point x="201" y="436"/>
      <point x="235" y="317"/>
      <point x="307" y="221"/>
      <point x="411" y="155"/>
      <point x="476" y="145" type="qcurve" name="av01"/>
      <point x="591" y="799" type="line"/>
      <point x="601" y="853"/>
      <point x="652" y="925"/>
      <point x="721" y="968"/>
      <point x="801" y="986"/>
      <point x="840" y="986" type="qcurve"/>
      <point x="922" y="986"/>
      <point x="1069" y="911"/>
      <point x="1178" y="780"/>
      <point x="1239" y="602"/>
      <point x="1235" y="500" type="qcurve" name="sv05"/>
      <point x="1231" y="417"/>
      <point x="1179" y="281"/>
      <point x="1092" y="174"/>
      <point x="978" y="94"/>
      <point x="849" y="38"/>
      <point x="711" y="7"/>
      <point x="643" y="2" type="qcurve" name="sv02"/>
      <point x="554" y="-500" type="line" name="sv06"/>
      <point x="362" y="-500" type="line" name="av02"/>
    </contour>
    <contour>
      <point x="854" y="840" type="qcurve"/>
      <point x="827" y="840"/>
      <point x="785" y="816"/>
      <point x="779" y="780" type="qcurve"/>
      <point x="667" y="143" type="line" name="sv01"/>
      <point x="698" y="143"/>
      <point x="778" y="161"/>
      <point x="863" y="198"/>
      <point x="946" y="255"/>
      <point x="1014" y="334"/>
      <point x="1059" y="436"/>
      <point x="1065" y="500" type="qcurve" name="av04"/>
      <point x="1071" y="572"/>
      <point x="1038" y="696"/>
      <point x="976" y="787"/>
      <point x="896" y="840"/>
    </contour>
  </outline>
</glyph>
<glyph name="omega1" format="2">
  <advance width="1300"/>
  <unicode hex="03D6"/>
  <outline>
    <contour>
      <point x="1300" y="942" type="line" name="sv02"/>
      <point x="1139" y="942" type="line"/>
      <point x="1217" y="885" type="line"/>
      <point x="1228" y="857"/>
      <point x="1247" y="792"/>
      <point x="1256" y="703"/>
      <point x="1249" y="580"/>
      <point x="1234" y="495" type="qcurve" name="sv03"/>
      <point x="1225" y="444" type="line"/>
      <point x="1217" y="401"/>
      <point x="1194" y="299"/>
      <point x="1154" y="196"/>
      <point x="1092" y="101"/>
      <point x="1002" y="27"/>
      <point x="877" y="-17"/>
      <point x="794" y="-17" type="qcurve" name="sv04"/>
      <point x="740" y="-17"/>
      <point x="666" y="3"/>
      <point x="616" y="40"/>
      <point x="587" y="90"/>
      <point x="578" y="120" type="qcurve"/>
      <point x="558" y="90"/>
      <point x="511" y="40"/>
      <point x="450" y="3"/>
      <point x="369" y="-17"/>
      <point x="315" y="-17" type="qcurve" name="ab01"/>
      <point x="232" y="-17"/>
      <point x="123" y="27"/>
      <point x="58" y="101"/>
      <point x="31" y="196"/>
      <point x="26" y="299"/>
      <point x="38" y="401"/>
      <point x="46" y="444" type="qcurve"/>
      <point x="55" y="495" type="line" name="av03"/>
      <point x="70" y="580"/>
      <point x="107" y="703"/>
      <point x="147" y="792"/>
      <point x="189" y="857"/>
      <point x="210" y="885" type="qcurve"/>
      <point x="308" y="942" type="line" name="mv01"/>
      <point x="140" y="942" type="line" name="sv05"/>
      <point x="188" y="1100" type="line" name="av01"/>
      <point x="1348" y="1100" type="line" name="sv01"/>
    </contour>
    <contour>
      <point x="779" y="725" type="line"/>
      <point x="733" y="464" type="line"/>
      <point x="721" y="396"/>
      <point x="704" y="274"/>
      <point x="715" y="182"/>
      <point x="765" y="129"/>
      <point x="820" y="129" type="qcurve"/>
      <point x="873" y="129"/>
      <point x="947" y="190"/>
      <point x="998" y="292"/>
      <point x="1032" y="425"/>
      <point x="1045" y="497" type="qcurve" name="av04"/>
      <point x="1064" y="605"/>
      <point x="1071" y="756"/>
      <point x="1058" y="859"/>
      <point x="1030" y="922"/>
      <point x="1012" y="942" type="qcurve"/>
      <point x="434" y="942" type="line" name="mv02"/>
      <point x="410" y="922"/>
      <point x="359" y="859"/>
      <point x="310" y="756"/>
      <point x="265" y="605"/>
      <point x="246" y="497" type="qcurve" name="sv06"/>
      <point x="233" y="425"/>
      <point x="220" y="292"/>
      <point x="236" y="190"/>
      <point x="288" y="129"/>
      <point x="341" y="129" type="qcurve"/>
      <point x="396" y="129"/>
      <point x="464" y="182"/>
      <point x="508" y="274"/>
      <point x="534" y="396"/>
      <point x="546" y="464" type="qcurve"/>
      <point x="595" y="745" type="line" name="av02"/>
    </contour>
  </outline>
</glyph>
<glyph name="hyphentwo" format="2">
  <advance width="1300"/>
  <unicode hex="2010"/>
  <outline>
    <contour>
      <point x="305" y="600" type="line" name="av01"/>
      <point x="805" y="600" type="line" name="sv01"/>
      <point x="778" y="445" type="line"/>
      <point x="278" y="445" type="line"/>
    </contour>
  </outline>
</glyph>
<glyph name="endash" format="2">
  <advance width="1300"/>
  <unicode hex="2013"/>
  <outline>
    <contour>
      <point x="105" y="600" type="line" name="av01"/>
      <point x="1105" y="600" type="line" name="sv01"/>
      <point x="1078" y="446" type="line"/>
      <point x="78" y="446" type="line" name="sv02"/>
    </contour>
  </outline>
</glyph>
<glyph name="emdash" format="2">
  <advance width="1300"/>
  <unicode hex="2014"/>
  <outline>
    <contour>
      <point x="40" y="600" type="line" name="av01"/>
      <point x="1287" y="600" type="line" name="sv01"/>
      <point x="1260" y="446" type="line"/>
      <point x="13" y="446" type="line" name="sv02"/>
    </contour>
  </outline>
</glyph>
<glyph name="quotesinglbase" format="2">
  <advance width="1300"/>
  <unicode hex="201A"/>
  <outline>
    <contour>
      <point x="194" y="105" type="qcurve" name="mh01"/>
      <point x="195" y="131"/>
      <point x="219" y="178"/>
      <point x="258" y="213"/>
      <point x="310" y="230"/>
      <point x="339" y="226" type="qcurve" name="av01"/>
      <point x="383" y="220"/>
      <point x="443" y="155"/>
      <point x="442" y="91" type="qcurve"/>
      <point x="442" y="61"/>
      <point x="422" y="-20"/>
      <point x="372" y="-113"/>
      <point x="285" y="-212"/>
      <point x="218" y="-260" type="qcurve"/>
      <point x="177" y="-240" type="line"/>
      <point x="204" y="-207"/>
      <point x="226" y="-170" type="qcurve" name="mh02"/>
      <point x="245" y="-138"/>
      <point x="280" y="-58"/>
      <point x="285" y="-16" type="qcurve" name="mh03"/>
      <point x="243" y="-14"/>
      <point x="192" y="47"/>
    </contour>
  </outline>
</glyph>
<glyph name="quotedblright" format="2">
  <advance width="1300"/>
  <unicode hex="201D"/>
  <outline>
    <contour>
      <point x="194" y="1305" type="qcurve" name="mh01"/>
      <point x="195" y="1331"/>
      <point x="219" y="1378"/>
      <point x="258" y="1413"/>
      <point x="310" y="1430"/>
      <point x="339" y="1426" type="qcurve"/>
      <point x="383" y="1420"/>
      <point x="443" y="1355"/>
      <point x="442" y="1291" type="qcurve"/>
      <point x="442" y="1261"/>
      <point x="422" y="1180"/>
      <point x="372" y="1087"/>
      <point x="285" y="988"/>
      <point x="218" y="940" type="qcurve"/>
      <point x="177" y="960" type="line"/>
      <point x="204" y="993"/>
      <point x="226" y="1030" type="qcurve" name="mh02"/>
      <point x="245" y="1062"/>
      <point x="280" y="1142"/>
      <point x="285" y="1184" type="qcurve" name="mh03"/>
      <point x="243" y="1186"/>
      <point x="192" y="1247"/>
    </contour>
    <contour>
      <point x="594" y="1305" type="qcurve" name="mh04"/>
      <point x="595" y="1331"/>
      <point x="619" y="1378"/>
      <point x="658" y="1413"/>
      <point x="710" y="1430"/>
      <point x="739" y="1426" type="qcurve"/>
      <point x="783" y="1420"/>
      <point x="843" y="1355"/>
      <point x="842" y="1291" type="qcurve"/>
      <point x="842" y="1261"/>
      <point x="822" y="1180"/>
      <point x="772" y="1087"/>
      <point x="685" y="988"/>
      <point x="618" y="940" type="qcurve"/>
      <point x="577" y="960" type="line"/>
      <point x="604" y="993"/>
      <point x="626" y="1030" type="qcurve" name="mh05"/>
      <point x="645" y="1062"/>
      <point x="680" y="1142"/>
      <point x="685" y="1184" type="qcurve" name="mh06"/>
      <point x="643" y="1186"/>
      <point x="592" y="1247"/>
    </contour>
  </outline>
</glyph>
<glyph name="quotedblbase" format="2">
  <advance width="1300"/>
  <unicode hex="201E"/>
  <outline>
    <contour>
      <point x="194" y="105" type="qcurve" name="mh01"/>
      <point x="195" y="131"/>
      <point x="219" y="178"/>
      <point x="258" y="213"/>
      <point x="310" y="230"/>
      <point x="339" y="226" type="qcurve" name="av01"/>
      <point x="383" y="220"/>
      <point x="443" y="155"/>
      <point x="442" y="91" type="qcurve"/>
      <point x="442" y="61"/>
      <point x="422" y="-20"/>
      <point x="372" y="-113"/>
      <point x="285" y="-212"/>
      <point x="218" y="-260" type="qcurve"/>
      <point x="177" y="-240" type="line"/>
      <point x="204" y="-207"/>
      <point x="226" y="-170" type="qcurve" name="mh02"/>
      <point x="245" y="-138"/>
      <point x="280" y="-58"/>
      <point x="285" y="-16" type="qcurve" name="mh03"/>
      <point x="243" y="-14"/>
      <point x="192" y="47"/>
    </contour>
    <contour>
      <point x="594" y="105" type="qcurve" name="mh04"/>
      <point x="595" y="131"/>
      <point x="619" y="178"/>
      <point x="658" y="213"/>
      <point x="710" y="230"/>
      <point x="739" y="226" type="qcurve" name="av02"/>
      <point x="783" y="220"/>
      <point x="843" y="155"/>
      <point x="842" y="91" type="qcurve"/>
      <point x="842" y="61"/>
      <point x="822" y="-20"/>
      <point x="772" y="-113"/>
      <point x="685" y="-212"/>
      <point x="618" y="-260" type="qcurve"/>
      <point x="577" y="-240" type="line"/>
      <point x="604" y="-207"/>
      <point x="626" y="-170" type="qcurve" name="mh05"/>
      <point x="645" y="-138"/>
      <point x="680" y="-58"/>
      <point x="685" y="-16" type="qcurve" name="mh06"/>
      <point x="643" y="-14"/>
      <point x="592" y="47"/>
    </contour>
  </outline>
</glyph>
